<?xml version="1.0" encoding="utf-8"?>
<!-- Generator: Adobe Illustrator 27.5.0, SVG Export Plug-In . SVG Version: 6.00 Build 0)  -->
<svg version="1.1" xmlns="http://www.w3.org/2000/svg" xmlns:xlink="http://www.w3.org/1999/xlink" x="0px" y="0px"
	 viewBox="0 0 750 500" style="enable-background:new 0 0 750 500;" xml:space="preserve">
<g id="BACKGROUND">
	<rect style="fill:#FFFFFF;" width="750" height="500"/>
</g>
<g id="OBJECTS">
	<g>
		<path style="fill:#E8CB7B;stroke:#000000;stroke-miterlimit:10;" d="M75.051,428.478c-0.676,3.493,1.511,7.317,4.865,8.504"/>
		<g>
			<path style="fill:#8FF0FF;" d="M263.521,370.072c-27.48,1.064-57.33-1.437-84.21,2.57c-21.076,3.142-47.95,8.236-67.494-3.094
				c-25.432-14.744-30.175-54.288-27.972-80.622c1.864-22.283,11.132-44.424,27.913-59.204c7.025-6.188,15.19-10.987,22.146-17.253
				c19.393-17.47,23.419-44.235,24.753-69.151c1.111-20.748,7.832-36.417,26.269-48.293c15.5-9.983,33.911-14.191,51.909-18.194
				c11.518-2.562,23.218-5.176,33.555-10.864c8.278-4.554,15.388-10.922,23.076-16.413c29.832-21.308,69.122-28.813,104.708-20
				c21.778,5.393,42.025,16.416,64.527,18.917c21.634,2.404,42.339-6.02,63.985-6.283c24.316-0.295,48.499,11.293,63.504,30.428
				c4.338,5.531,7.955,11.683,10.171,18.353c4.241,12.765,3.654,27.859,12.685,37.828c4.255,4.696,10.108,7.549,15.437,10.979
				c22.489,14.476,36.39,41.368,35.195,68.087c-0.516,11.541-3.594,23.382-0.211,34.428c4.764,15.556,16.95,26.099,20.553,42.388
				c4.182,18.911,2.92,37.986-4.541,56.104c-14.73,35.77-49.342,36.102-82.965,37.785c-35.814,1.792-71.578-2.303-107.224-5.17
				C414.223,367.362,338.773,367.159,263.521,370.072z"/>
			<g>
				<path style="fill:#FFFFFF;" d="M301.267,115.145c-0.41-0.839-0.954-1.613-1.616-2.273c-1.55-1.546-3.637-2.441-5.746-3.026
					c-4.455-1.234-9.147-1.223-13.77-1.204c-1.252-3.982-4.171-7.516-8.054-9.046c-5.16-2.033-9.282-1.571-12.682,2.517
					c-1.369-5.269-3.151-10.937-8.766-13.05c-10.583-3.983-18.686,7.717-20.583,16.504c-10.991,1.078-22.437-0.335-32.822,3.424
					c-1.996,0.722-3.987,1.674-5.38,3.276c-1.394,1.601-2.063,3.983-1.165,5.907c0.457,0.98,1.266,1.753,2.133,2.401
					c6.907,5.16,18.524,4.113,26.661,4.082c1.793,6.543,3.957,13.629,9.546,17.475c3.991,2.746,9.396,3.302,13.862,1.424
					c4.466-1.877,7.851-6.128,8.681-10.901c3.791,2.936,8.333,5.331,13.123,5.112c4.79-0.219,9.646-3.826,9.881-8.615
					c3.712,0.05,7.517-0.845,11.238-1.119c6.053-0.447,15.388-0.322,16.296-8.122C302.293,118.286,301.985,116.614,301.267,115.145z
					"/>
				<path style="fill:none;stroke:#7ACCAD;stroke-linecap:round;stroke-miterlimit:10;" d="M224.211,129.793
					c0.796,2.485,2.218,4.767,4.099,6.577"/>
				<path style="fill:none;stroke:#7ACCAD;stroke-linecap:round;stroke-miterlimit:10;" d="M230.499,139.135
					c1.313,0.769,2.911,1.036,4.402,0.736"/>
				<path style="fill:none;stroke:#7ACCAD;stroke-linecap:round;stroke-miterlimit:10;" d="M251.521,133.24
					c-0.366-1.427-0.846-2.824-1.433-4.175"/>
				<path style="fill:none;stroke:#7ACCAD;stroke-linecap:round;stroke-miterlimit:10;" d="M280.601,108.654
					c-1.837,0.088-3.679,0.061-5.512-0.08"/>
				<path style="fill:none;stroke:#7ACCAD;stroke-linecap:round;stroke-miterlimit:10;" d="M273.965,129.772
					c0.309-1.458,0.188-3.004-0.344-4.396"/>
				<path style="fill:none;stroke:#7ACCAD;stroke-linecap:round;stroke-miterlimit:10;" d="M297.115,115.466
					c0.736,1.016,1.192,2.233,1.305,3.482"/>
				<path style="fill:none;stroke:#7ACCAD;stroke-linecap:round;stroke-miterlimit:10;" d="M297.917,121.957
					c-2.449,2.186-5.776,3.361-9.055,3.196"/>
				<path style="fill:none;stroke:#7ACCAD;stroke-linecap:round;stroke-miterlimit:10;" d="M192.588,114.695
					c-0.07,0.833,0.449,1.628,1.128,2.117c0.679,0.489,1.501,0.728,2.305,0.959"/>
				<path style="fill:none;stroke:#7ACCAD;stroke-linecap:round;stroke-miterlimit:10;" d="M242.037,92.483
					c-2.958,1.717-5.271,4.518-6.399,7.747"/>
				<path style="fill:none;stroke:#7ACCAD;stroke-linecap:round;stroke-miterlimit:10;" d="M259.495,102.065
					c-0.245,1.337-0.679,2.638-1.285,3.854"/>
				<path style="fill:none;stroke:#7ACCAD;stroke-linecap:round;stroke-miterlimit:10;" d="M229.761,106.462
					c2.059-0.35,4.156-0.469,6.241-0.354"/>
				<path style="fill:none;stroke:#7ACCAD;stroke-linecap:round;stroke-miterlimit:10;" d="M219.416,125.219
					c-0.87-2.066-2.246-3.917-3.974-5.346"/>
			</g>
			<g>
				<path style="fill:#FFFFFF;" d="M580.424,82.926c-0.244-0.163-0.498-0.308-0.759-0.435c-1.413-0.689-3.002-0.915-4.565-1.075
					c-4.318-0.442-8.668-0.453-13.009-0.463c-0.278-2.927-1.19-5.793-2.656-8.342c-0.75-1.303-1.657-2.54-2.844-3.464
					c-4.149-3.229-11.604-1.771-15.771,0.767c-3.573,2.177-6.276,5.741-7.407,9.769c-3.67-0.178-7.36-0.084-11.001,0.413
					c-2.189,0.299-4.395,0.756-6.341,1.802c-1.946,1.046-3.622,2.755-4.211,4.884c-2.105,7.619,8.428,7.442,13.138,8.173
					c-0.216,2.776,1.775,5.427,4.346,6.497c2.571,1.07,5.56,0.753,8.134-0.31c0.611,2.617,2.287,4.97,4.561,6.403
					c5.369,3.383,12.699,0.975,16.669-3.491c1.829-2.058,2.631-4.835,3.091-7.458c3.591-0.322,7.181-0.645,10.772-0.967
					c2.208-0.198,4.529-0.436,6.346-1.707c2.213-1.548,4.289-5.213,3.713-7.975C582.367,84.693,581.501,83.644,580.424,82.926z"/>
				<path style="fill:none;stroke:#7ACCAD;stroke-linecap:round;stroke-miterlimit:10;" d="M527.542,93.946
					c-0.453,1.006-0.191,2.244,0.495,3.108c0.686,0.865,1.734,1.386,2.814,1.617"/>
				<path style="fill:none;stroke:#7ACCAD;stroke-linecap:round;stroke-miterlimit:10;" d="M540.376,100.293
					c0.352,2.762,2.508,5.206,5.205,5.899"/>
				<path style="fill:none;stroke:#7ACCAD;stroke-linecap:round;stroke-miterlimit:10;" d="M561.818,96.888
					c0.073-1.36,0.138-2.721,0.196-4.082"/>
				<path style="fill:none;stroke:#7ACCAD;stroke-linecap:round;stroke-miterlimit:10;" d="M562.308,80.994
					c-0.787-0.021-1.573-0.042-2.36-0.064"/>
				<path style="fill:none;stroke:#7ACCAD;stroke-linecap:round;stroke-miterlimit:10;" d="M533.181,79.607
					c1.36,0.129,2.756,0.04,4.048-0.406c1.292-0.446,2.475-1.266,3.228-2.406"/>
				<path style="fill:none;stroke:#7ACCAD;stroke-linecap:round;stroke-miterlimit:10;" d="M541.168,76.054
					c0.383-1.013,0.901-1.974,1.537-2.85"/>
				<path style="fill:none;stroke:#7ACCAD;stroke-linecap:round;stroke-miterlimit:10;" d="M577.758,92.044
					c-2.2,1.275-4.956,1.868-7.488,1.699"/>
				<path style="fill:none;stroke:#7ACCAD;stroke-linecap:round;stroke-miterlimit:10;" d="M580.317,87.054
					c0.166,1.004-0.134,2.041-0.575,2.941"/>
			</g>
			<g>
				<path style="fill:#FFFFFF;" d="M347.555,182.275c3.945-1.691,7.151-1.163,11.426-1.385c4.266-0.221,8.174-0.543,11.806,0.36
					c2.399,0.596,4.69,2.269,5.296,4.665c0.527,2.086-0.332,4.347-1.805,5.919c-0.021,0.022-0.042,0.045-0.063,0.067
					c-1.512,1.574-3.563,2.522-5.643,3.185c-4.446,1.418-9.166,1.679-13.826,1.929c-5.446,0.292-10.927,0.966-16.349,1.092
					c-0.271,0.006-0.556,0.016-0.789,0.154c-0.176,0.104-0.304,0.269-0.428,0.431c-4.386,5.711-11.216,7.696-18.275,6.57
					c-2.574-0.401-5.181-1.093-7.269-2.651c-3.358-2.505-4.81-6.762-6.079-10.755c-4.995,0.286-10.002,0.536-14.998,0.276
					c-1.932-0.1-3.901-0.287-5.669-1.071c-1.768-0.784-3.327-2.266-3.74-4.156c-0.32-1.466,0.082-3.027,0.872-4.303
					c1.388-2.242,3.868-3.629,6.429-4.257c2.56-0.628,5.231-0.583,7.867-0.535c2.407,0.044,4.815,0.088,7.222,0.132
					c2.585-4.96,4.473-9.804,10.705-10.853c5.396-0.908,11.294,2.05,13.152,6.596c-0.868-4.213,2.934-8.525,7.685-9.464
					c4.751-0.939,9.872,1.109,12.874,4.481c2.961,3.325,4.046,7.722,3.785,11.942"/>
				<path style="fill:none;stroke:#7ACCAD;stroke-linecap:round;stroke-miterlimit:10;" d="M305.367,191.691
					c1.754-0.775,3.461-1.655,5.108-2.636"/>
				<path style="fill:none;stroke:#7ACCAD;stroke-linecap:round;stroke-miterlimit:10;" d="M337.183,198.61
					c0.412-0.872,0.843-1.736,1.292-2.59"/>
				<path style="fill:none;stroke:#7ACCAD;stroke-linecap:round;stroke-miterlimit:10;" d="M326.985,172.75
					c0.809,1.769,1.253,3.703,1.297,5.648"/>
				<path style="fill:none;stroke:#7ACCAD;stroke-linecap:round;stroke-miterlimit:10;" d="M303.232,177.981
					c1.101,0.038,2.205,0.021,3.304-0.051"/>
				<path style="fill:none;stroke:#7ACCAD;stroke-linecap:round;stroke-miterlimit:10;" d="M283.966,183.818
					c-0.101,0.004-0.16,0.114-0.193,0.21c-0.365,1.035-0.256,2.226,0.29,3.177c0.546,0.952,1.519,1.647,2.596,1.855"/>
				<path style="fill:none;stroke:#7ACCAD;stroke-linecap:round;stroke-miterlimit:10;" d="M374.352,187.139
					c-0.03,1.912-1.425,3.724-3.266,4.242"/>
				<path style="fill:none;stroke:#7ACCAD;stroke-linecap:round;stroke-miterlimit:10;" d="M368.063,192.681
					c-1.939,0.61-3.914,1.113-5.911,1.506"/>
				<path style="fill:none;stroke:#7ACCAD;stroke-linecap:round;stroke-miterlimit:10;" d="M290.192,189.859
					c1.669,0,3.338,0,5.007,0"/>
			</g>
			<path style="fill:#4F9C90;" d="M89.911,385.086c-2.231-14.901-0.434-29.656,12.797-40.348
				c11.474-9.271,26.802-12.417,41.552-12.649c41.486-0.652,82.552,19.212,123.32,11.497c26.202-4.958,49.589-20.992,76.079-24.05
				c42.334-4.886,81.667,24.021,124.224,26.252c22.875,1.199,45.404-5.397,67.048-12.895c21.644-7.498,43.192-16.031,65.912-18.943
				c22.72-2.913,47.31,0.47,65.259,14.702c17.949,14.231,26.829,41.016,16.063,61.234c-16.581,31.136-69.467,36.244-100.447,37.86
				c-44.455,2.32-90.117-2.499-133.355,10.559c-25.312,7.645-50.122,21.431-76.404,18.538
				c-19.417-2.138-36.604-13.189-55.291-18.878c-25.23-7.681-52.235-5.364-78.592-4.43c-35.726,1.266-70.927-1.12-106.487-4.11
				c-18.391-1.546-32.298-8.799-37.704-27.193C92.242,396.647,90.774,390.856,89.911,385.086z"/>
			<g>
				<g>
					<path style="fill:#64D9AA;" d="M110.473,192.367c-2.208,3.96-3.69,8.324-4.35,12.811c-0.091,0.623,7.702-0.569,8.357-0.77
						c2.804-0.861,5.436-2.303,7.664-4.212c3.922-3.36,8.87-9.809,4.612-14.801c-2.538-2.975-7.634-1.797-10.492,0.133
						c-2.429,1.641-4.224,4.07-5.669,6.62C110.554,192.222,110.513,192.294,110.473,192.367z"/>
					<path style="fill:none;stroke:#1F8F66;stroke-linecap:round;stroke-miterlimit:10;" d="M114.424,196.521
						c6.317-6.278,13.154-11.878,20.39-16.703"/>
				</g>
				<g>
					<path style="fill:#64D9AA;" d="M132.006,154.112c-1.865-3.489-2.737-7.414-3.44-11.308c-0.248-1.372-0.467-2.841,0.098-4.116
						c3.072,0.698,5.793,2.571,7.895,4.918c2.102,2.347,3.628,5.154,4.892,8.039c0.693,1.581,1.32,3.224,1.443,4.946
						c0.231,3.214-1.462,5.767-4.728,4.129C135.5,159.384,133.382,156.686,132.006,154.112z"/>
					<path style="fill:none;stroke:#1F8F66;stroke-linecap:round;stroke-miterlimit:10;" d="M133.942,146.231
						c2.752,8.386,9.781,14.893,12.282,23.358"/>
				</g>
				<g>
					<path style="fill:#64D9AA;" d="M165.138,162.18c3.26-0.218,6.505,1.161,9.382,3.359c0.073,0.056,0.151,0.119,0.184,0.227
						c0.042,0.133,0.003,0.288-0.04,0.421c-1.007,3.158-3.614,4.483-5.981,5.273c-2.322,0.775-4.728,1.348-7.086,0.841
						c-1.998-0.43-5.967-2.219-4.047-5.825C159.119,163.53,162.712,162.342,165.138,162.18z"/>
					<path style="fill:none;stroke:#1F8F66;stroke-linecap:round;stroke-miterlimit:10;" d="M153.169,169.747
						c2.461-1.154,5.075-1.64,7.661-1.425c0.981,0.082,2.004,0.254,2.915-0.271"/>
				</g>
				<g>
					<path style="fill:#64D9AA;" d="M155.143,132.049c2.497,1.691,4.005,4.327,4.916,7.083c1.345,4.075,1.51,8.565,0.475,12.945
						c-0.707,2.992-2.499,4.408-4.433,1.856c-1.534-2.025-2.604-4.351-3.196-6.81C151.732,142.256,152.429,136.816,155.143,132.049z
						"/>
					<path style="fill:none;stroke:#1F8F66;stroke-linecap:round;stroke-miterlimit:10;" d="M156.048,145.363
						c0.826,5.397,2.104,10.695,3.82,15.836"/>
				</g>
				<path style="fill:#353B38;" d="M150.984,174.1c0.128-0.127,0.176-0.268,0.19-0.408c0.145-0.221,0.288-0.444,0.435-0.661
					c2.214-3.269,4.577-6.441,7.057-9.512c1.412-1.749,2.855-3.478,4.355-5.152c0.538-0.601-0.3-1.453-0.89-0.889
					c-5.1,4.876-9.639,10.401-13.706,16.174c-0.016-0.288-0.026-0.577-0.044-0.865c0-6.28-1.522-12.877-2.189-19.157
					c-0.043-0.407-0.147-0.894-0.533-1.029c-0.324-0.114-0.689,0.112-0.849,0.416c-0.16,0.304-0.167,0.663-0.17,1.007
					c-0.088,11.743,0.565,23.36,0.595,35.096c-1.827-1.746-15.93-16.834-18.08-18.449c-0.619-0.465-1.549,0.462-1.081,1.081
					c1.451,1.918,2.834,3.863,4.403,5.698c1.645,1.924,3.339,3.793,5.061,5.649c1.671,1.8,3.335,3.604,5.04,5.372
					c0.827,0.858,1.655,1.717,2.482,2.575c0.594,0.616,1.395,1.263,1.701,2.124c0.354,0.999,0.068,2.42,0.063,3.467
					c-0.014,2.857-0.035,5.714-0.061,8.571c-0.052,5.717-0.126,11.434-0.204,17.15c-0.156,11.439-0.333,22.877-0.401,34.317
					c-0.019,3.145-0.03,6.291-0.03,9.437c0.288,25.259,0.426,50.525,0.18,75.785c-0.181,18.622-0.25,37.299-1.626,55.856
					c0,3.606-1.079,7.721-3.223,10.643c-0.816,1.112-1.789,1.68-2.777,2.551c-1.132,0.996-2.117,2.152-3.274,3.133
					c-1.278,1.084-3.204,1.952-4.285,3.193c-0.227,0.26-0.766,1.107-0.439,1.471c0.356,0.396,1.439-0.493,1.805-0.706
					c1.571-0.914,3.079-1.936,4.511-3.055c0.157-0.123,0.327-0.252,0.526-0.26c0.494-0.019,0.676,0.636,0.696,1.13l0.336,8.361
					c0.483-0.44,0.53-1.17,0.551-1.823c0.083-2.677,0.271-5.35,0.564-8.013c0.09-0.816,0.208-1.679,0.721-2.32
					c1.462-1.827,4.561-1.57,4.862,0.934c0.383,3.184,0.604,6.97,0.027,10.124c-0.625,3.411-3.086,9.95-1.835,10.297
					c1.024-0.696,1.319-2.044,1.605-3.249c0.388-1.635,0.908-3.238,1.553-4.789c0.263-0.633,0.684-1.354,1.369-1.374
					c0.866-0.025,1.273,1.031,1.897,1.632c0.257,0.247,0.654,0.431,0.963,0.253c0.448-0.258,0.278-0.936,0.05-1.401
					c-1.014-2.027-2.003-3.861-2.342-6.117c-0.273-1.821-0.768-4.336-0.023-6.113c0.685-1.634,2.848-2.328,4.539-1.798
					c0.642,0.201,1.186,0.628,1.694,1.068c0.704,0.61,1.403,1.315,1.616,2.222c0.293,1.246-0.395,2.482-0.753,3.711
					c-0.535,1.837-0.205,5.609,0.61,5.56c0.436,0.228,0.782-1.846,0.816-2.86c0.041-1.25,0.103-4.396,2.267-3.373
					c0.35,0.166,0.627,0.451,0.905,0.72c0.577,0.558,1.195,1.073,1.848,1.54c0.171,0.122,0.352,0.244,0.559,0.277
					c0.207,0.033,0.448-0.05,0.532-0.243c0.047-0.108,0.039-0.232,0.03-0.35c-0.196-2.51-3.029-4.904-4.809-6.561
					c-2.173-2.023-4.306-3.659-5.188-6.534c-0.957-3.12-1.038-6.278-1.151-9.514c-0.151-4.336,0.333-20.69,0.328-24.597
					c-0.01-9.301-0.029-18.601-0.029-27.902l-1.665-73.758c0.001-28.775,0.009-57.521-0.001-86.285
					c-0.001-1.677-0.017-3.355-0.054-5.032c0.549-1.471,1.305-2.877,2.151-4.219C150.837,174.251,150.91,174.174,150.984,174.1z"/>
				<path style="fill:none;stroke:#1F8F66;stroke-linecap:round;stroke-miterlimit:10;" d="M166.221,167.672
					c2.327-0.352,4.654-0.705,6.981-1.057"/>
				<path style="fill:none;stroke:#1F8F66;stroke-linecap:round;stroke-miterlimit:10;" d="M114.833,202.832
					c1.707-0.808,3.314-1.828,4.771-3.03"/>
				<path style="fill:none;stroke:#1F8F66;stroke-linecap:round;stroke-miterlimit:10;" d="M121.248,198.143
					c1.502-1.681,2.859-3.491,4.05-5.404"/>
				<path style="fill:none;stroke:#1F8F66;stroke-linecap:round;stroke-miterlimit:10;" d="M159.889,165.846
					c1.582-1.017,3.377-1.702,5.235-1.997"/>
				<path style="fill:none;stroke:#1F8F66;stroke-linecap:round;stroke-miterlimit:10;" d="M155.316,131.895
					c-0.064,3.093,0.056,6.189,0.359,9.268"/>
			</g>
			<g>
				<g>
					<path style="fill:#64D9AA;" d="M617.86,170.946c-3.915-4.591-6.326-10.36-6.808-16.288c4.877,0.649,9.16,3.805,11.789,7.823
						c1.856,2.837,4.759,8.828,3.895,12.322c-0.318,1.287,0.001,1.081-1.552,0.996c-0.927-0.051-1.96-0.581-2.757-1.001
						C620.648,173.862,619.139,172.445,617.86,170.946z"/>
					<path style="fill:none;stroke:#1F8F66;stroke-linecap:round;stroke-miterlimit:10;" d="M618.476,163.625
						c4.675,5.942,7.338,13.192,12.125,19.051"/>
				</g>
				<g>
					<path style="fill:#64D9AA;" d="M649.198,220.564c3.839-0.711,7.785-0.319,11.651,0.226c1.362,0.192,2.807,0.443,3.831,1.394
						c-1.588,2.764-4.17,4.816-7.009,6.117c-2.839,1.301-5.935,1.898-9.026,2.215c-1.693,0.174-3.425,0.264-5.078-0.158
						c-3.085-0.789-4.966-3.24-2.438-5.896C643.193,222.295,646.366,221.089,649.198,220.564z"/>
					<path style="fill:none;stroke:#1F8F66;stroke-linecap:round;stroke-miterlimit:10;" d="M656.003,224.932
						c-8.056,1.186-16.939,4.802-25.638,4.561"/>
				</g>
				<g>
					<path style="fill:#64D9AA;" d="M597.116,182.898c-5.083-1.627-9.528-4.903-13.095-8.819c-0.091-0.099-0.185-0.209-0.195-0.34
						c-0.013-0.162,0.107-0.3,0.223-0.414c2.759-2.703,7.266-2.596,11.2-2.07c3.859,0.516,7.768,1.29,11.189,3.157
						c2.898,1.581,8.296,5.694,3.965,8.343C606.865,184.919,600.899,184.109,597.116,182.898z"/>
					<path style="fill:none;stroke:#1F8F66;stroke-linecap:round;stroke-miterlimit:10;" d="M618.38,181.853
						c-4.217-0.202-8.412-1.184-12.295-2.878c-1.473-0.643-2.975-1.403-4.574-1.377"/>
				</g>
				<g>
					<path style="fill:#64D9AA;" d="M651.697,155.35c2.089,3.681,2.524,8.05,2.187,12.235c-0.497,6.185-2.605,12.244-6.078,17.464
						c-2.372,3.566-5.22,4.416-6.201-0.085c-0.778-3.572-0.852-7.276-0.291-10.883C642.423,166.942,646.039,160.118,651.697,155.35z
						"/>
					<path style="fill:none;stroke:#1F8F66;stroke-linecap:round;stroke-miterlimit:10;" d="M645.94,173.551
						c-1.791,7.643-2.995,15.414-3.6,23.229"/>
				</g>
				<path style="fill:#353B38;" d="M663.169,171.576c-1.396,1.666-3.024,3.116-4.468,4.742c-1.443,1.625-2.886,3.25-4.329,4.876
					c-2.962,3.336-5.858,6.721-8.756,10.109c-2.828,3.306-5.671,6.601-8.485,9.918c-1.33,1.568-2.643,3.15-3.962,4.726
					c1.369-1.637,0.385-5.607,0.225-7.491c-0.41-4.83-0.228-9.649-0.23-14.485c-0.003-7.094-0.257-14.2-1.552-21.213
					c-0.182-0.983-0.451-2.066-1.311-2.621c-1.3,0.986-1.372,2.829-1.33,4.424c0.189,7.261,0.669,17.603,0.689,24.875
					c-1.866-1.722-16.27-16.596-18.466-18.188c-0.632-0.458-1.582,0.456-1.104,1.066c1.482,1.891,2.894,3.809,4.497,5.618
					c1.68,1.897,3.411,3.74,5.169,5.569c1.706,1.775,3.407,3.553,5.148,5.296c0.845,0.846,1.69,1.692,2.535,2.539
					c0.635,0.636,1.277,1.207,1.406,1.958c0.062,0.364,0.209,0.662,0.406,0.908c-0.079,23.691-0.722,47.424-0.722,71.142
					c0.294,24.903,0.435,49.812,0.184,74.717c-0.272,27.082-0.414,54.043-4.234,80.861c-0.084,0.59-0.149,1.255,0.222,1.722
					c0.285,0.36,0.76,0.505,1.21,0.596c3.953,0.801,7.908-1.057,11.515-2.863c3.646-1.826,0.619-7.277-1.191-9.842
					c-0.884-1.252-2.021-2.359-2.584-3.784c-0.612-1.547-0.472-3.276-0.319-4.932c0.557-6.01,1.173-11.636,1.283-17.689
					c0.09-4.953,0.286-9.91,0.281-14.864c-0.01-9.17-0.03-18.339-0.029-27.509l-1.701-72.718c0.001-18.87,0.004-37.739,0.004-56.609
					c1.096-1.086,2.011-2.41,2.975-3.561c1.398-1.669,2.804-3.332,4.189-5.011c2.773-3.361,5.525-6.739,8.288-10.109
					c2.652-3.234,5.308-6.463,7.898-9.743c1.342-1.7,2.685-3.4,4.027-5.1c1.48-1.874,2.745-3.901,4.279-5.732
					C665.765,172.053,664.117,170.444,663.169,171.576z"/>
				<path style="fill:#73513D;stroke:#1F8F66;stroke-linecap:round;stroke-miterlimit:10;" d="M658.825,223.873
					c1.186-0.567,4.232-0.867,5.352-1.554"/>
				<path style="fill:#73513D;stroke:#1F8F66;stroke-linecap:round;stroke-miterlimit:10;" d="M646.587,170.243
					c0.588-2.131,1.176-4.262,1.764-6.393"/>
				<path style="fill:#73513D;stroke:#1F8F66;stroke-linecap:round;stroke-miterlimit:10;" d="M650.677,167.868
					c-0.183,3.236-1.001,6.435-2.395,9.362"/>
				<path style="fill:none;stroke:#1F8F66;stroke-linecap:round;stroke-miterlimit:10;" d="M590.492,176.288
					c1.981,2.564,5.004,4.297,8.217,4.71"/>
				<path style="fill:none;stroke:#1F8F66;stroke-linecap:round;stroke-miterlimit:10;" d="M614.14,161.444
					c0.551,1.162,1.101,2.325,1.652,3.487"/>
			</g>
			<path style="fill:#FFFFFF;" d="M465.633,192.936c4.123-3.559,4.803-5.165,8.316-9.552c6.682-8.345,12.115-21.113,6.357-31.454
				c-2.788-5.008-10.122-6.607-14.93-3.545c-2.084,1.327-3.358,3.587-4.472,5.792c-2.565,5.082-4.789,10.508-8.619,14.808
				c-2.817,3.164-14.182,14.958-17.183,17.503c-6.202,5.26-13.084,9.718-20.427,13.214c-1.643,0.782-3.341,1.526-5.149,1.735
				c-3.322,0.385-6.038-0.415-9.428,0.228c-2.47,0.468-4.299,1.314-5.3,1.795c-4.077,1.956-2.03,7.706-2.443,11.521
				c-0.212,1.951-0.278,4.137,0.996,5.63c1.481,1.736,0.216,2.983,2.42,2.393c2.842-0.762,7.528-2.199,10.147-3.539
				c1.993-1.02,4.271-3.12,5.85-3.785c5.477-2.308,10.401-2.452,17.826-4.405C439.706,208.615,457.758,199.734,465.633,192.936z"/>
			<g>
				<path style="fill:#64D9AA;" d="M654,376.89c2.464-6.036,6.405-12.638,13.871-11.775c2.459,0.284,4.999,1.57,5.92,3.868
					c1.214,3.027-0.746,6.322-2.657,8.965c-5.554,7.683-11.435,15.129-17.624,22.31c-5.005,5.808-3.556-5.72-3.239-8.231
					C650.922,386.871,652.031,381.715,654,376.89z"/>
				<path style="fill:none;stroke:#000000;stroke-linecap:round;stroke-miterlimit:10;" d="M647.476,414.842
					c2.321-14.003,8.141-27.411,16.786-38.668c1.142-1.488,3.846-4.308,5.134-5.672"/>
				<path style="fill:none;stroke:#000000;stroke-linecap:round;stroke-miterlimit:10;" d="M653.233,386.091
					c0.407-1.37,1.029-2.675,1.835-3.854"/>
				<path style="fill:none;stroke:#000000;stroke-linecap:round;stroke-miterlimit:10;" d="M656.572,379.224
					c1.709-3.289,3.94-6.306,6.585-8.903"/>
			</g>
			<g>
				<g>
					<path style="fill:#64D9AA;" d="M377.68,96.488c-5.062-6.15-8.18-13.877-8.803-21.818c6.306,0.869,11.845,5.097,15.243,10.479
						c2.4,3.801,6.153,11.826,5.037,16.506c-0.411,1.724,0.001,1.449-2.006,1.334c-1.198-0.068-2.534-0.778-3.565-1.34
						C381.285,100.394,379.334,98.496,377.68,96.488z"/>
					<path style="fill:none;stroke:#1F8F66;stroke-linecap:round;stroke-miterlimit:10;" d="M378.477,86.682
						c6.045,7.96,9.489,17.671,15.678,25.519"/>
				</g>
				<g>
					<path style="fill:#64D9AA;" d="M345.491,126.778c-5.346,5.642-9.56,12.605-12.613,20.139
						c7.662,2.128,15.951-0.501,22.403-5.661c3.607-2.885,18.167-17.997,14.173-23.326
						C364.227,110.954,349.264,122.795,345.491,126.778z"/>
					<path style="fill:none;stroke:#1F8F66;stroke-linecap:round;stroke-miterlimit:10;" d="M352.662,132.712
						c8.343-8.291,17.372-15.687,26.929-22.059"/>
				</g>
				<g>
					<path style="fill:#64D9AA;" d="M383.333,65.578c-0.843-5.157-0.258-10.434,0.524-15.601c0.276-1.82,0.629-3.75,1.879-5.102
						c3.542,2.183,6.144,5.685,7.769,9.514c1.626,3.83,2.335,7.989,2.684,12.135c0.191,2.272,0.274,4.593-0.306,6.798
						c-1.082,4.116-4.288,6.584-7.671,3.143C385.451,73.657,383.955,69.382,383.333,65.578z"/>
					<path style="fill:none;stroke:#1F8F66;stroke-linecap:round;stroke-miterlimit:10;" d="M389.115,56.553
						c-0.138,11.655,5.871,22.787,5.386,34.433"/>
				</g>
				<g>
					<path style="fill:#64D9AA;" d="M444.741,115.192c7.5-0.352,14.963,1.872,21.583,5.415c0.168,0.09,0.347,0.192,0.424,0.366
						c0.096,0.215,0.006,0.464-0.092,0.678c-2.316,5.091-8.313,7.228-13.759,8.502c-5.342,1.25-10.876,2.173-16.301,1.355
						c-4.595-0.693-13.726-3.577-9.309-9.391C430.894,117.369,439.159,115.454,444.741,115.192z"/>
					<path style="fill:none;stroke:#1F8F66;stroke-linecap:round;stroke-miterlimit:10;" d="M417.207,127.391
						c5.661-1.86,11.674-2.644,17.623-2.297c2.539,0.148,4.885,0.164,7.371-0.388c2.593-0.576,5.2-1.086,7.818-1.529
						c5.306-0.898,10.658-1.523,16.029-1.871"/>
				</g>
				<g>
					<path style="fill:#64D9AA;" d="M421.848,77.276c2.702,4.931,3.263,10.783,2.828,16.389c-0.643,8.285-3.369,16.401-7.859,23.394
						c-3.068,4.778-6.75,5.916-8.018-0.114c-1.006-4.785-1.101-9.747-0.377-14.578C409.856,92.805,414.532,83.664,421.848,77.276z"
						/>
					<path style="fill:none;stroke:#1F8F66;stroke-linecap:round;stroke-miterlimit:10;" d="M414.404,101.658
						c-2.316,10.239-3.873,20.648-4.655,31.116"/>
				</g>
				<path style="fill:#353B38;" d="M436.682,99.013c-1.805,2.232-3.911,4.173-5.777,6.351c-1.866,2.177-3.732,4.354-5.598,6.531
					c-3.83,4.469-7.575,9.003-11.323,13.541c-3.657,4.428-7.332,8.843-10.971,13.286c-1.72,2.1-3.417,4.219-5.123,6.331
					c0.045-1.32,0.497-7.511,0.29-10.034c-0.531-6.47-0.295-12.926-0.297-19.403c-0.003-9.502-0.66-17.825-2.335-27.219
					c-0.235-1.317-0.255-3.965-1.367-4.708c-1.681,1.321-0.889,6.975-0.835,9.113c0.245,9.727-0.019,20.393,0.006,30.135
					c-2.413-2.306-21.038-22.231-23.877-24.364c-0.817-0.614-2.046,0.61-1.428,1.428c1.916,2.533,3.743,5.102,5.814,7.525
					c2.172,2.541,4.41,5.01,6.684,7.46c2.886,3.11,5.87,6.138,8.628,9.361c0.844,0.986,1.695,1.984,2.284,3.141
					c1.54,3.028,1.347,6.648,1.325,9.939c-0.026,3.812-0.06,7.624-0.101,11.435c-0.081,7.627-0.185,15.254-0.291,22.881
					c-0.212,15.259-0.433,30.518-0.488,45.778c-0.009,2.364-0.04,4.731-0.013,7.095c0.38,33.359,0.562,66.725,0.238,100.086
					c-0.239,24.593-0.33,49.259-2.147,73.766c0,4.763-1.425,10.196-4.257,14.055c-1.078,1.468-2.362,2.219-3.668,3.368
					c-1.494,1.315-2.796,2.843-4.324,4.138c-1.272,1.079-2.768,1.851-4.107,2.839c-1.207,0.891-2.577,1.692-3.226,3.113
					c-0.047,0.103-0.091,0.218-0.062,0.327c0.08,0.295,0.517,0.224,0.791,0.087c2.575-1.291,5.131-2.62,7.667-3.985
					c2.862-1.541,2.434,2.685,2.421,4.387c-0.022,2.827-0.407,5.635-0.82,8.427c-0.094,0.637,0.71,0.856,0.957,0.264
					c0.286-0.685,0.526-1.384,0.743-2.089c0.381-0.32,0.948-0.311,1.292,0.124c0.382,0.482,0.357,1.143,0.341,1.723
					c-0.043,1.527-0.045,3.051,0.023,4.578c0.032,0.711,1.008,0.682,1.084,0c0.116-1.042,0.231-2.083,0.347-3.125
					c0.105-0.945,0.247-1.898,0.113-2.847c-0.187-1.323-1.238-2.695-2.609-2.719c0.402-1.855,0.633-3.749,0.767-5.646
					c0.221-2.275,0.419-4.554,1.361-6.658c0.599-1.339,1.758-2.973,3.395-2.966c0.017,0,0.032,0.006,0.049,0.006
					c1.243,0.244,2.284,1.141,2.475,2.726c0.479,3.989,0.754,8.083,0.235,12.082c-0.533,4.108-1.822,8.126-2.549,12.231
					c-0.054,0.306-0.036,0.728,0.267,0.796c0.215,0.049,0.407-0.135,0.544-0.307c2.082-2.62,2.322-6.315,3.74-9.27
					c0.308-0.643,1.185-2.642,2.15-1.748c0.199,0.184,0.31,0.442,0.408,0.695c0.318,0.811,0.57,1.647,0.753,2.498
					c0.13,0.603,0.296,1.306,0.861,1.553c0.065,0.029,0.139,0.05,0.208,0.031c0.157-0.042,0.194-0.245,0.2-0.408
					c0.073-2.085,0.287-4.308-0.9-6.129c-0.881-1.362-1.339-3.342-1.576-4.926c-0.361-2.405-1.014-5.726-0.03-8.073
					c0.905-2.158,3.762-3.074,5.994-2.375c0.847,0.265,1.566,0.829,2.237,1.41c0.93,0.805,1.853,1.737,2.135,2.934
					c0.387,1.646-0.522,3.278-0.995,4.901c-0.707,2.426-0.27,7.408,0.805,7.343c0.575,0.301,1.033-2.438,1.077-3.777
					c0.066-2.008,1.049-6.188,3.362-5.167c0.629,0.766,1.287,1.509,1.945,2.256c-0.611,1.285-1.082,2.613-1.428,3.976
					c-0.977,3.436-1.321,7.051-0.927,10.606c0.083,0.748,1.232,0.787,1.199,0c-0.178-4.29,0.927-8.621,3.011-12.373
					c0.695,0.923,1.285,1.917,1.612,3.04c0.019,0.066,0.051,0.12,0.091,0.166c0.131,0.421,0.253,0.845,0.363,1.273
					c0.12,0.468,0.822,0.361,0.831-0.112c0.038-2.014-0.419-4.18-1.411-5.948c-0.798-1.419-1.982-2.684-2.846-4.078
					c-0.108-0.174-0.236-0.336-0.347-0.508c2.843-0.665,5.937-0.691,8.29,1.286c0.556,0.499,1.342-0.216,0.974-0.764
					c-0.013-0.11-0.048-0.223-0.137-0.334c-1.307-1.635-3.435-2.364-5.416-2.774c-1.082-0.224-2.182-0.355-3.282-0.45
					c-0.464-0.04-2.617,0.108-2.905-0.237c-0.138-0.166-0.268-0.338-0.414-0.496c-1.177-1.273-2.666-2.267-3.716-3.699
					c-0.236-0.322-0.485-0.635-0.71-0.964c-1.006-1.473-1.918-3.015-2.764-4.584c-0.226-0.419-0.439-0.844-0.657-1.267
					c-0.121-0.31-0.244-0.619-0.366-0.928c-0.08-0.203-0.171-0.4-0.257-0.601c-0.507-2.982-0.6-5.996-0.707-9.064
					c-0.199-5.727,0.439-27.324,0.434-32.484c-0.013-12.283-0.038-24.566-0.038-36.849l-2.199-97.408
					c0.001-25.277,0.006-50.553,0.005-75.83c1.417-1.455,2.6-3.227,3.847-4.771c1.807-2.236,3.626-4.463,5.417-6.712
					c3.586-4.503,7.144-9.027,10.716-13.541c3.429-4.332,6.863-8.657,10.213-13.051c1.736-2.277,3.472-4.554,5.208-6.832
					c1.914-2.511,3.55-5.226,5.533-7.679C440.038,99.652,437.908,97.496,436.682,99.013z"/>
				<path style="fill:none;stroke:#1F8F66;stroke-linecap:round;stroke-miterlimit:10;" d="M415.289,99.411
					c1.138-4.875,4.949-17.072,6.645-21.783"/>
				<path style="fill:none;stroke:#1F8F66;stroke-linecap:round;stroke-miterlimit:10;" d="M412.117,112.23
					c-1.489-2.699-2.765-5.516-3.813-8.415"/>
				<path style="fill:none;stroke:#1F8F66;stroke-linecap:round;stroke-miterlimit:10;" d="M413.174,107.024
					c-0.27-1.694-1.304-3.148-2.095-4.67c-0.739-1.423-1.279-2.95-1.6-4.521"/>
				<path style="fill:none;stroke:#1F8F66;stroke-linecap:round;stroke-miterlimit:10;" d="M415.974,96.453
					c-0.34-0.864-0.681-1.727-1.021-2.591c-0.718-1.822-1.439-3.652-1.873-5.562"/>
				<path style="fill:none;stroke:#1F8F66;stroke-linecap:round;stroke-miterlimit:10;" d="M415.34,84.187
					c0.776,2.229,1.553,4.458,2.329,6.687c2.389-0.462,4.978-1.296,7.108-2.473c0.022-0.062,0.044-0.124,0.066-0.186"/>
				<path style="fill:none;stroke:#1F8F66;stroke-linecap:round;stroke-miterlimit:10;" d="M424.675,92.567
					c-0.698,0.537-1.591,0.734-2.444,0.953c-2.039,0.523-4.026,1.248-5.922,2.163c-0.109,0.053-0.236,0.138-0.22,0.258"/>
				<path style="fill:none;stroke:#1F8F66;stroke-linecap:round;stroke-miterlimit:10;" d="M412.429,112.914
					c-0.091-0.023-0.021-0.162,0.059-0.211c0.975-0.604,2.073-0.973,3.139-1.395c1.939-0.766,3.805-1.715,5.566-2.833"/>
				<path style="fill:none;stroke:#1F8F66;stroke-linecap:round;stroke-miterlimit:10;" d="M433.853,124.967
					c0.981,0.99,1.616,2.261,2.385,3.424c0.753,1.139,1.644,2.187,2.648,3.113"/>
				<path style="fill:none;stroke:#1F8F66;stroke-linecap:round;stroke-miterlimit:10;" d="M437.854,125.104
					c1.862,1.701,3.804,4.411,5.731,6.037"/>
				<path style="fill:none;stroke:#1F8F66;stroke-linecap:round;stroke-miterlimit:10;" d="M454.24,122.67
					c1.825,1.937,3.65,3.874,5.475,5.811"/>
				<path style="fill:none;stroke:#1F8F66;stroke-linecap:round;stroke-miterlimit:10;" d="M448.941,123.44
					c1.979-2.235,3.001-5.185,4.959-7.439"/>
				<path style="fill:none;stroke:#1F8F66;stroke-linecap:round;stroke-miterlimit:10;" d="M440.667,116.132
					c-1.388,1.41-5.073,6.984-6.21,8.604"/>
				<path style="fill:none;stroke:#1F8F66;stroke-linecap:round;stroke-miterlimit:10;" d="M339.234,143.68
					c3.118-2.389,6.236-4.778,9.353-7.167"/>
				<path style="fill:none;stroke:#1F8F66;stroke-linecap:round;stroke-miterlimit:10;" d="M355.97,129.686
					c0.325,3.363,0.65,6.726,0.976,10.089"/>
				<path style="fill:none;stroke:#1F8F66;stroke-linecap:round;stroke-miterlimit:10;" d="M359.954,137.035
					c0.239-3.667,0.273-7.347,0.102-11.018"/>
				<path style="fill:none;stroke:#1F8F66;stroke-linecap:round;stroke-miterlimit:10;" d="M364.917,130.977
					c-0.017-2.96-0.301-5.917-0.848-8.826"/>
				<path style="fill:none;stroke:#1F8F66;stroke-linecap:round;stroke-miterlimit:10;" d="M362.096,123.416
					c-2.778-1.403-5.76-2.4-8.823-2.951"/>
				<path style="fill:none;stroke:#1F8F66;stroke-linecap:round;stroke-miterlimit:10;" d="M357.201,127.965
					c-3.244-1.097-6.501-2.157-9.769-3.18"/>
				<path style="fill:none;stroke:#1F8F66;stroke-linecap:round;stroke-miterlimit:10;" d="M345.83,138.8
					c-0.213,2.356-0.307,4.723-0.281,7.089c0.004,0.367-0.128,0.46-0.128,0.827"/>
				<path style="fill:none;stroke:#1F8F66;stroke-linecap:round;stroke-miterlimit:10;" d="M343.866,139.922
					c-1.996-1.123-3.993-2.247-5.989-3.37"/>
				<path style="fill:none;stroke:#1F8F66;stroke-linecap:round;stroke-miterlimit:10;" d="M380.697,89.736
					c0.545-2.323,1.006-4.666,1.381-7.022"/>
				<path style="fill:none;stroke:#1F8F66;stroke-linecap:round;stroke-miterlimit:10;" d="M384.611,96.392
					c0.645-2.273,1.105-4.598,1.375-6.944"/>
				<path style="fill:none;stroke:#1F8F66;stroke-linecap:round;stroke-miterlimit:10;" d="M382.918,92.981
					c-2.483,0.643-5.099,0.767-7.632,0.362"/>
				<path style="fill:none;stroke:#1F8F66;stroke-linecap:round;stroke-miterlimit:10;" d="M376.715,84.589
					c-1.697-2.298-3.394-4.596-5.091-6.894c-0.644-0.873-1.31-1.765-2.225-2.347"/>
				<path style="fill:none;stroke:#1F8F66;stroke-linecap:round;stroke-miterlimit:10;" d="M390.342,66.582
					c1.743-1.885,3.344-3.902,4.784-6.027"/>
				<path style="fill:none;stroke:#1F8F66;stroke-linecap:round;stroke-miterlimit:10;" d="M394.166,56.529
					c-0.695,1.478-1.986,2.568-3.095,3.766c-0.513,0.553-0.992,1.137-1.435,1.748"/>
				<path style="fill:none;stroke:#1F8F66;stroke-linecap:round;stroke-miterlimit:10;" d="M389.254,58.753
					c-2.11-0.289-4.152-1.066-5.921-2.251"/>
				<path style="fill:none;stroke:#1F8F66;stroke-linecap:round;stroke-miterlimit:10;" d="M385.694,45.286
					c0.175,0.44,0.403,0.856,0.615,1.279c1.068,2.129,1.734,4.46,1.952,6.832"/>
				<path style="fill:none;stroke:#1F8F66;stroke-linecap:round;stroke-miterlimit:10;" d="M391.584,71.962
					c-2.186,1.23-5.577-1.444-7.205-2.708"/>
				<path style="fill:none;stroke:#1F8F66;stroke-linecap:round;stroke-miterlimit:10;" d="M389.818,64.247
					c-2.415-0.676-4.423-1.437-6.7-2.488"/>
				<path style="fill:none;stroke:#1F8F66;stroke-linecap:round;stroke-miterlimit:10;" d="M420.715,97.78
					c-0.299,2.547-0.851,5.065-1.647,7.503"/>
			</g>
			<g>
				<g>
					<path style="fill:none;stroke:#000000;stroke-linecap:round;stroke-miterlimit:10;" d="M502.952,383.95"/>
				</g>
			</g>
			<path style="fill:#FFFFFF;" d="M391.473,225.878c0.293-0.85-0.215-2.229-0.764-2.776c0.306,0.222,0.619,0.445,0.976,0.57
				c0.357,0.125,0.77,0.141,1.1-0.045c0.135-0.076,0.251-0.182,0.355-0.297c0.499-0.554,0.699-1.347,0.576-2.076
				c-0.046-0.274-0.324-0.725,0.056-0.861c0.232-0.083,0.828,0.228,1.109,0.235c1.441,0.033,1.789-1.282,1.275-2.414
				c-0.243-0.535-0.613-1.001-0.98-1.46c0.436,0.216,0.882,0.434,1.365,0.496c0.482,0.061,1.016-0.063,1.329-0.436
				c0.189-0.225,0.28-0.518,0.32-0.809c0.164-1.201-0.483-2.379-1.318-3.257c-0.661-0.696-1.438-1.307-2.19-1.901
				c-0.608-0.479-1.153-0.722-1.623-1.387c-0.95-1.345-1.425-3.072-1.235-4.713c0.063-0.538,0.193-1.076,0.134-1.614
				c-0.051-0.468-3.053,1.117-3.276,1.311c-1.174,1.021-1.088,2.105-0.67,3.542c-0.32-0.492-1.121-0.438-1.534-0.022
				c-0.413,0.416-0.518,1.046-0.521,1.633c-0.005,0.967,0.211,1.934,0.628,2.807c-0.486-0.282-1.149,0.052-1.394,0.558
				c-0.245,0.506-0.176,1.105-0.046,1.652c0.281,1.176,0.722,1.935,1.503,3.186c-0.516-0.106-0.972,0.256-1.246,0.706
				c-0.274,0.449-0.326,1.001-0.29,1.527c0.125,1.809,1.194,3.337,2.417,4.602c0.711,0.735,1.716,1.958,2.841,1.955
				C390.991,226.586,391.329,226.296,391.473,225.878z"/>
			<path style="fill:#FFFFFF;stroke:#383836;stroke-linecap:round;stroke-miterlimit:10;" d="M399.256,203.723
				c0.111,2.114-1.702,3.746-3.077,5.355c-0.241,0.283-0.479,0.587-0.567,0.948c-0.161,0.665,0.257,1.377,0.856,1.706
				c0.599,0.33,1.331,0.335,1.999,0.186c3.492-0.779,4.501-4.88,7.025-6.965"/>
			<path style="fill:none;stroke:#222221;stroke-linecap:round;stroke-linejoin:round;stroke-miterlimit:10;" d="M386.649,217.799
				c1.032,1.711,2.933,4.187,4.304,5.691"/>
			<path style="fill:none;stroke:#222221;stroke-linecap:round;stroke-linejoin:round;stroke-miterlimit:10;" d="M393.441,220.373
				c-1.999-2.736-4.882-4.594-6.856-7.97"/>
			<path style="fill:none;stroke:#222221;stroke-linecap:round;stroke-linejoin:round;stroke-miterlimit:10;" d="M388.106,208.273
				c2.036,3.215,4.475,6.173,7.242,8.785"/>
			<path style="fill:#FFFFFF;" d="M409.98,216.78c1.503-1.445,2.67-2.37,4.055-3.928"/>
			<g>
				<path style="fill:#64D9AA;" d="M471.284,372.988c1.599-3.214,3.901-7.418,6.903-9.307c3.335-2.099,8.067-2.36,11.014,0.255
					c2.159,1.916,2.992,5.021,2.682,7.891c-0.843,7.787-6.277,14.128-11.519,19.527c-2.789,2.873-5.718,5.607-8.516,8.471
					c-0.325,0.332-0.706,0.737-1.115,1.195c-1.688,1.889-4.809,0.689-4.774-1.844c0.06-4.343,0.335-8.673,1.077-12.95
					c0.768-4.427,2.057-8.792,4.046-12.829C471.147,373.263,471.215,373.126,471.284,372.988z"/>
				<path style="fill:#64D9AA;" d="M451.811,369.689c-4.318-0.526-8.259,4.469-6.743,8.547c0.986,2.652,3.813,4.94,5.872,6.793
					c3.575,3.215,7.139,6.181,9.921,9.883c1.258,1.674,3.941,0.708,3.836-1.384c-0.042-0.838-0.122-1.673-0.239-2.504
					c-0.65-4.611-2.13-9.039-4.091-13.277C458.711,374.167,456.071,370.208,451.811,369.689z"/>
				<path style="fill:none;stroke:#222221;stroke-linecap:round;stroke-linejoin:round;stroke-miterlimit:10;" d="M465.595,416.588
					c0.383-13.656,4.712-27.179,12.332-38.518"/>
				<path style="fill:none;stroke:#222221;stroke-linecap:round;stroke-linejoin:round;stroke-miterlimit:10;" d="M458.968,384.396
					c4.956,9.285,5.81,21,7.03,31.454"/>
				<path style="fill:none;stroke:#000000;stroke-linecap:round;stroke-miterlimit:10;" d="M479.954,375.429
					c1.658-2.137,3.315-4.273,4.973-6.41"/>
				<path style="fill:none;stroke:#000000;stroke-linecap:round;stroke-miterlimit:10;" d="M476.121,392.147
					c0.918-1.101,1.835-2.202,2.753-3.304"/>
				<path style="fill:none;stroke:#000000;stroke-linecap:round;stroke-miterlimit:10;" d="M482.605,385.77
					c2.356-3.086,4.141-6.607,5.238-10.331"/>
				<path style="fill:none;stroke:#000000;stroke-linecap:round;stroke-miterlimit:10;" d="M450.16,372.826
					c2.098,1.394,3.564,3.532,4.978,5.616c0.446,0.658,0.892,1.316,1.339,1.973"/>
			</g>
			<g>
				<path style="fill:#64D9AA;" d="M318.301,369.228c0.206-2.747,0.854-5.465,2.137-8.263c3.826-8.345,10.612-15.844,17.042-22.283
					c-0.528,0.529,1.598,8.565,1.732,9.756c0.765,6.786,1.059,14.4-0.394,21.112c-1.878,8.678-8.697,15.822-16.483,19.863
					c-1.064,0.545-3.156-9.774-3.321-10.661C318.398,375.438,318.07,372.315,318.301,369.228z"/>
				<path style="fill:#64D9AA;" d="M317.195,389.817c-3.879-1.649-8.345-0.546-12.54-1.017c-5.285-0.594-9.961-3.683-13.871-7.249
					c-6.979-6.367-12.235-14.563-15.083-23.519c7.34-0.162,14.558,1.793,21.554,3.995c3.947,1.242,7.917,2.631,11.288,5.01
					C315.591,372.01,319.154,381.478,317.195,389.817z"/>
				<path style="fill:none;stroke:#000000;stroke-linecap:round;stroke-miterlimit:10;" d="M318.856,426.01
					c-0.458-20.619,3.124-41.318,10.486-60.614"/>
				<path style="fill:none;stroke:#000000;stroke-linecap:round;stroke-miterlimit:10;" d="M320.754,395.862
					c-2.886-7.63-7.88-14.469-14.296-19.579"/>
				<path style="fill:none;stroke:#000000;stroke-linecap:round;stroke-miterlimit:10;" d="M330.57,361.495
					c2.231-6.833,4.259-13.731,6.083-20.684"/>
				<path style="fill:none;stroke:#000000;stroke-linecap:round;stroke-miterlimit:10;" d="M277.031,358.104
					c5.905,2.947,11.727,6.06,17.457,9.335"/>
				<path style="fill:none;stroke:#000000;stroke-linecap:round;stroke-miterlimit:10;" d="M297.74,370.091
					c1.681,0.751,3.279,1.688,4.755,2.789"/>
				<path style="fill:none;stroke:#000000;stroke-linecap:round;stroke-miterlimit:10;" d="M289.094,375.818
					c2.021,1.832,4.043,3.665,6.064,5.498"/>
				<path style="fill:none;stroke:#000000;stroke-linecap:round;stroke-miterlimit:10;" d="M297.875,383.009
					c2.443,2.21,5.733,3.459,9.027,3.428"/>
				<path style="fill:none;stroke:#000000;stroke-linecap:round;stroke-miterlimit:10;" d="M327.414,383.286
					c2.241-1.889,4.168-4.15,5.678-6.662"/>
				<path style="fill:none;stroke:#000000;stroke-linecap:round;stroke-miterlimit:10;" d="M335.027,374.184
					c1.147-2.169,1.872-4.56,2.123-7.001"/>
				<path style="fill:none;stroke:#000000;stroke-linecap:round;stroke-miterlimit:10;" d="M337.902,361.864
					c0.071-1.896,0.143-3.792,0.214-5.688"/>
			</g>
			<path style="fill:#DEBA59;" d="M361.609,415.013c-5.133-4.264-11.459-4.075-18.778-4.116c-25.578-0.145-51.16,0-76.739,0
				c-38.756,0-77.512,0-116.268,0c-17.497,0-35.059,0.128-52.465,2.105c-10.028,1.139-33.216,8.445-25.239,23.745
				c2.839,5.445,9.143,8.279,15.243,8.987c6.101,0.708,12.256-0.302,18.395-0.492c10.826-0.334,21.724,1.935,31.516,6.563
				c5.978,2.825,11.553,6.513,17.742,8.837c28.974,10.879,61.032-10.534,91.58-5.566c17.572,2.858,33.378,14.327,51.181,14.351
				c18.128,0.025,34.057-11.652,52.103-11.658c17.221-0.006,29.59,13.572,45.739,17.206c26.412,5.939,51.228-19.228,78.217-17.132
				c9.504,0.738,18.43,4.85,27.847,6.329c12.707,1.996,26.137-1.061,36.729-8.359c4.574-3.152,8.706-7.096,13.863-9.162
				c12.565-5.035,26.286,2.388,39.63,4.657c15.418,2.621,31.931-2.198,43.518-12.701c2.217-2.01,4.357-4.273,7.17-5.294
				c2.758-1.001,5.793-0.671,8.718-0.442c9.889,0.775,20.232,0.147,29.028-4.439c3.009-1.569,6.015-3.925,6.596-7.268
				c1.168-6.727-7.47-10.519-14.25-11.322c-26.41-3.13-54.224,0.422-80.892-0.225c-19.637-0.477-39.267-1.246-58.911-1.448
				c-26.622-0.275-53.243-0.598-79.866-0.739c-9.934-0.053-17.905-1.883-24.506,6.419c-5.613,7.06-5.818,16.895-11.857,23.685
				c-5.434,6.11-13.283,9.295-21.427,8.986c-8.234-0.313-16.105-4.204-21.544-10.355c-4.556-5.152-5.074-12.511-9.072-17.931
				C363.661,416.945,362.66,415.886,361.609,415.013z"/>
			
				<line style="fill:none;stroke:#9E8A54;stroke-linecap:round;stroke-miterlimit:10;" x1="441.984" y1="418.118" x2="460.818" y2="418.118"/>
			
				<line style="fill:none;stroke:#9E8A54;stroke-linecap:round;stroke-miterlimit:10;" x1="483.555" y1="422.981" x2="517.817" y2="422.981"/>
			<path style="fill:none;stroke:#9E8A54;stroke-linecap:round;stroke-miterlimit:10;" d="M440.124,449.41c1.721,0,3.442,0,5.163,0"
				/>
			<path style="fill:none;stroke:#9E8A54;stroke-linecap:round;stroke-miterlimit:10;" d="M411.025,449.41
				c8.393,0,16.785,0,25.178,0"/>
			
				<line style="fill:none;stroke:#9E8A54;stroke-linecap:round;stroke-miterlimit:10;" x1="533.109" y1="421.33" x2="541.409" y2="421.33"/>
			
				<line style="fill:none;stroke:#9E8A54;stroke-linecap:round;stroke-miterlimit:10;" x1="124.285" y1="424.633" x2="135.877" y2="424.633"/>
			
				<line style="fill:none;stroke:#9E8A54;stroke-linecap:round;stroke-miterlimit:10;" x1="147.41" y1="425.459" x2="210.179" y2="425.459"/>
			
				<line style="fill:none;stroke:#9E8A54;stroke-linecap:round;stroke-miterlimit:10;" x1="253.126" y1="424.633" x2="261.385" y2="424.633"/>
			
				<line style="fill:none;stroke:#9E8A54;stroke-linecap:round;stroke-miterlimit:10;" x1="225.137" y1="439.224" x2="241.024" y2="439.224"/>
			
				<line style="fill:none;stroke:#9E8A54;stroke-linecap:round;stroke-miterlimit:10;" x1="299.377" y1="446.107" x2="309.824" y2="446.107"/>
			
				<line style="fill:none;stroke:#9E8A54;stroke-linecap:round;stroke-miterlimit:10;" x1="320.851" y1="430.415" x2="329.273" y2="430.415"/>
			
				<line style="fill:none;stroke:#9E8A54;stroke-linecap:round;stroke-miterlimit:10;" x1="596.704" y1="426.285" x2="614.068" y2="426.285"/>
			
				<line style="fill:none;stroke:#9E8A54;stroke-linecap:round;stroke-miterlimit:10;" x1="590.097" y1="435.37" x2="600.865" y2="435.37"/>
			<path style="fill:none;stroke:#9E8A54;stroke-linecap:round;stroke-miterlimit:10;" d="M509.462,442.436
				c0.475,1.352,2.123,1.987,3.541,1.784c1.418-0.202,2.656-1.034,3.837-1.846"/>
			<path style="fill:none;stroke:#9E8A54;stroke-linecap:round;stroke-miterlimit:10;" d="M564.052,425.277
				c0.831,1.473,2.541,2.403,4.23,2.299c1.688-0.104,3.272-1.235,3.917-2.799"/>
			<path style="fill:none;stroke:#9E8A54;stroke-linecap:round;stroke-miterlimit:10;" d="M270.096,441.372
				c0.786,2.106,3.11,3.522,5.342,3.255c2.232-0.267,4.157-2.191,4.424-4.423"/>
			<path style="fill:none;stroke:#9E8A54;stroke-linecap:round;stroke-miterlimit:10;" d="M654.527,419.359
				c1.285,1.125,3.578,0.716,4.395-0.783"/>
			<path style="fill:none;stroke:#9E8A54;stroke-linecap:round;stroke-miterlimit:10;" d="M185.62,445.718
				c-0.224-2.264,1.468-4.558,3.697-5.012c2.229-0.454,4.684,0.995,5.363,3.166"/>
			<path style="fill:none;stroke:#9E8A54;stroke-linecap:round;stroke-miterlimit:10;" d="M455.045,448.48
				c0.641,1.492,2.203,2.542,3.827,2.571c1.624,0.03,3.223-0.962,3.918-2.43"/>
			<path style="fill:none;stroke:#9E8A54;stroke-linecap:round;stroke-miterlimit:10;" d="M369.315,451.245
				c0.133,1.275,1.081,2.427,2.306,2.802c1.225,0.375,2.656-0.048,3.48-1.029"/>
			
				<line style="fill:none;stroke:#9E8A54;stroke-linecap:round;stroke-miterlimit:10;" x1="396.648" y1="464.277" x2="411.981" y2="464.277"/>
			
				<line style="fill:none;stroke:#9E8A54;stroke-linecap:round;stroke-miterlimit:10;" x1="138.366" y1="438.398" x2="141.354" y2="438.398"/>
			<path style="fill:none;stroke:#9E8A54;stroke-linecap:round;stroke-miterlimit:10;" d="M338.089,438.198
				c-0.27,0.928,0.84,1.69,1.802,1.772c1.525,0.129,3.094-0.632,3.936-1.91"/>
			
				<line style="fill:none;stroke:#9E8A54;stroke-linecap:round;stroke-miterlimit:10;" x1="343.773" y1="422.981" x2="347.28" y2="422.981"/>
			
				<line style="fill:none;stroke:#9E8A54;stroke-linecap:round;stroke-miterlimit:10;" x1="294.605" y1="415.273" x2="306.724" y2="415.273"/>
			<g>
				<g>
					<g>
						<path style="fill:#FFFFFF;" d="M523.089,346.358c8.176-0.234,16.331-1.466,24.21-3.663c1.326-0.37,2.641-0.778,3.95-1.204
							c-0.102-2.49-0.206-4.979-0.309-7.465c-0.646-10.405,0.34-25.177-6.382-33.581c-0.902-1.127-1.931-2.188-2.515-3.503
							c-0.668-1.503-0.701-3.215-0.724-4.88c-0.199-14.44-0.397-28.88-0.596-43.32c-0.05-3.615-0.114-7.31-1.402-10.643
							c-1.288-3.333-4.051-6.298-7.741-6.89c-3.309-0.531-6.827,0.941-9.389,3.203c-2.562,2.262-4.307,5.233-5.792,8.229
							c-7.033,14.183-9.185,29.843-11.242,45.187c-0.545,4.065-1.091,8.16-0.819,12.207c0.265,3.942,1.302,7.754,2.335,11.538
							c2.39,8.75,6.622,21.607,11.206,34.779C519.615,346.396,521.353,346.407,523.089,346.358z"/>
						<path style="fill:#529FDE;" d="M550.94,334.025c-7.15,4.174-26.651,8.713-35.39,8.024
							c5.183,13.979,21.608,56.446,22.115,56.824c1.831,1.368,6.761,4.017,9.092,3.397c5.014-1.333,5.843-5.528,5.772-12.966
							C552.743,383.091,552.341,345.052,550.94,334.025z"/>
						<path style="fill:#353B38;" d="M553.141,394.102c-2.606,0.404-5.287,0.492-7.802,0.404c-3.949-0.137-7.915-0.682-11.404-2.149
							c-1.325,0.622-2.809,1.982-4.309,2.531c-5.157,1.886-10.313,3.772-15.47,5.657c-3.873,1.416-7.784,2.851-11.229,4.973
							c-0.828,0.51-1.675,1.118-1.961,1.952c-1.232,3.602,9.066,2.499,11.126,2.481c5.515-0.049,10.995-0.512,16.505-0.569
							c4.654-0.049,9.315,0.07,13.96-0.145c2.766-0.129,7.09,0.961,9.244-0.909c1.682-1.46,1.757-4.423,1.417-6.231
							C552.73,399.498,552.881,396.72,553.141,394.102z"/>
						<path style="fill:#FFFFFF;" d="M584.039,341.908c3.388-0.146,6.765-0.592,10.104-1.163c4.293-0.734,8.545-1.678,12.812-2.547
							c2.922-0.595,5.86-1.095,8.789-1.654c0.962-0.184,1.923-0.383,2.882-0.593c-0.031-0.747-0.062-1.496-0.093-2.243
							c-0.645-10.39-0.783-19.373-5.077-29.042c-3.954-8.903-9.248-17.349-11.137-27.061c-1.032-5.303-0.98-10.799-1.664-16.171
							c-1.071-8.412-4.945-15.338-7.376-23.211c-1.858-6.016-4.317-12.535-11.687-13.94c-5.771-1.1-11.995,2.392-15.357,7.275
							c-3.363,4.883-4.323,10.851-4.344,16.552c-0.042,11.653,3.815,22.524,4.858,33.982c0.925,10.157,2.792,19.287,7.1,28.601
							c2.616,5.655,3.881,12.283,5.831,18.244C581.1,333.271,582.559,337.593,584.039,341.908z"/>
						<path style="fill:#529FDE;" d="M617.737,330.028c-7.15,4.174-26.651,8.714-35.39,8.024
							c5.183,13.979,21.857,58.992,22.364,59.371c1.831,1.368,6.512,1.47,8.843,0.85c5.014-1.333,6.057,2.646,5.986-4.792
							C619.754,387.268,620.291,343.081,617.737,330.028z"/>
						<path style="fill:#DEBA59;" d="M598.235,381.045c2.256-0.109,17.785-1.314,21.445-2.346l-0.188-6.851l-23.557,2.956
							L598.235,381.045z"/>
						<path style="fill:#DEBA59;" d="M593.281,366.865c7.702-0.652,18.802-2.082,26.306-3.933l-0.141-9.526l-29.507,4.834
							L593.281,366.865z"/>
						<path style="fill:#DEBA59;" d="M586.031,347.437c7.701-0.652,28.066-4.965,32.711-6.655l-0.563-10.84
							c-9.098,3.521-21.614,6.13-35.534,8.032c-0.071,0.016-0.111,0.091-0.086,0.159L586.031,347.437z"/>
						<path style="fill:#353B38;" d="M620.733,393.784c-2.605,0.404-5.287,0.492-7.802,0.404c-3.949-0.137-7.915-0.682-11.403-2.149
							c-1.325,0.622-2.809,1.982-4.309,2.531c-5.157,1.886-10.313,3.772-15.47,5.657c-3.873,1.416-7.784,2.851-11.229,4.973
							c-0.828,0.51-1.675,1.118-1.961,1.952c-1.232,3.602,9.066,2.499,11.126,2.481c5.515-0.049,10.995-0.512,16.505-0.569
							c4.654-0.049,9.315,0.07,13.96-0.145c2.766-0.128,7.09,0.961,9.244-0.909c1.682-1.46,1.757-4.423,1.417-6.231
							C620.323,399.179,620.473,396.402,620.733,393.784z"/>
						<path style="fill:#D66087;" d="M570.007,180.215c-5.36-4.761-11.118-9.624-18.156-11.333c-6.864-1.667-11.876,0-17.524,2.695
							c-12.501,5.966-16.168,14.126-20.219,26.611c-10.624,32.745-14.816,60.695-13.177,94.318
							c15.015,0.425,27.966-1.698,47.285-2.111c-2.022-17.096-1.611-34.606-0.567-51.887c3.219,3.891,11.663,38.537,12.363,47.743
							c0.086,1.13,1.148,1.922,2.258,1.695c9.971-2.038,31.67-5.53,45.658-9.877C607.728,275.628,598.431,205.46,570.007,180.215z"
							/>
					</g>
					<path style="fill:none;stroke:#222221;stroke-linecap:round;stroke-linejoin:round;stroke-miterlimit:10;" d="M548.333,239.24
						c-1.761-4.732-3.26-9.566-4.487-14.476"/>
					<path style="fill:none;stroke:#222221;stroke-linecap:round;stroke-linejoin:round;stroke-miterlimit:10;" d="M557.491,189.511
						c2.415,2.038,5.854,2.821,9.158,2.452c3.305-0.369,6.473-1.814,9.19-3.77"/>
					<path style="fill:none;stroke:#222221;stroke-linecap:round;stroke-linejoin:round;stroke-miterlimit:10;" d="M515.525,209.326
						c-0.039,2.324-1.172,4.595-2.734,6.456c-1.562,1.86-3.535,3.363-5.522,4.802"/>
				</g>
				<path style="fill:#353B38;" d="M558.74,176.325c0.63-0.741,0.729-1.822,0.494-2.766c-0.235-0.944-0.759-1.786-1.276-2.611
					c0.33,0.526-7.707,9.023-8.301,9.718c-2.247,2.631-4.494,5.262-6.742,7.893c-0.982,1.15-1.917,2.377-2.965,3.468
					c-1.33,1.385-3.037,1.984-4.483,3.16c-3.597,2.924,3.072,5.817,5.509,5.311c2.297-0.477,4.236-2.376,4.759-4.663
					c0.361-1.578,0.125-3.355,1.026-4.7c0.869-1.297,2.513-1.771,3.995-2.26c1.491-0.492,2.981-1.111,4.137-2.174
					c1.155-1.063,1.929-2.649,1.671-4.198c-0.222-1.329-1.156-2.692-0.571-3.906C556.516,177.512,557.962,177.241,558.74,176.325z"
					/>
				<path style="fill:#522E97;" d="M477.422,126.275c0.129,0.104,0.231,0.238,0.311,0.383c-0.102,0.035-0.202,0.078-0.301,0.122
					L477.422,126.275z"/>
				<path style="fill:#DEBA59;" d="M522.568,205.039c5.211-2.142,10.178-5.38,14.595-8.787c9.784-7.546,17.828-17.611,22.473-29.089
					c0.259-0.641,0.146-1.376-0.283-1.919c-2.01-2.542-4.027-5.077-6.064-7.598c-3.016-3.732-6.059-7.443-9.129-11.131
					c-5.642-6.777-11.187-15.059-17.957-20.731c-4.638-3.886-10.509-8.216-15.732-11.261c-6.718-3.917-13.837-3.885-20.484,0.254
					c-7.185,4.475-13.907,11.71-19.686,17.885c-6.325,6.76-11.592,14.502-15.488,22.83c-0.542,1.158-1.066,2.336-1.669,3.467
					c-1.146,2.148,19.843,19.104,24.28,22.654c0.415,0.332,1.015,0.211,1.296-0.241c1.712-2.755,3.809-4.808,5.76-7.337
					c6.936,10.73,13.104,21.956,18.459,33.557c1.28,2.772,16.289-1.277,18.47-2.098C521.796,205.35,522.183,205.197,522.568,205.039
					z"/>
				<path style="fill:#FFFFFF;" d="M515.934,122.864c-2.876-2.864-6.619-4.803-10.641-5.026
					c-10.017-0.555-9.202,7.849-12.245,15.494c-1.523,3.827-5.66,14.503-22.428,12.448c-6.891-0.844-14.045-2.691-20.713-4.641
					c-6.905-2.019-13.809-4.038-20.714-6.056c-4.284-1.252-8.131-2.668-12.544-3.051c-3.608-0.313-7.631-0.198-10.946,1.059
					c-2.369,0.898-5.741,2.857-5.57,5.867c0.168,2.969,3.515,5.563,6.095,6.48c2.661,0.946,5.479,0.939,8.233,0.982
					c2.777,0.043,5.896,0.155,8.549,1.364c3.23,1.472,6.352,4.077,9.334,6.047c12.162,8.036,24.68,14.949,38.815,17.559
					c5.961,1.101,12.097,1.521,17.806,0.151c11.051-2.652,19.012-11.528,25.718-20.457c3.188-4.244,6.339-8.855,6.786-14.312
					C521.882,131.73,519.622,126.537,515.934,122.864z"/>
				<path style="fill:#DEBA59;" d="M491.755,113.705c6.688-4.353,14.917-7.162,22.958-5.896c3.161,0.498,7.03,1.552,9.172,4.065
					c2.238,2.626,3.473,6.197,3.977,9.524c0.748,4.939,0.604,9.973,0.374,14.963c-0.141,3.066,0.471,8.682-3.895,8.039
					c-5.247-0.773-13.494-2.312-18.623-3.621c-1.312-0.335-16.446-3.885-16.446-3.885s5.028-13.914,5.681-17.748"/>
				<path style="fill:none;stroke:#222221;stroke-linecap:round;stroke-linejoin:round;stroke-miterlimit:10;" d="M496.184,166.002
					c-3.089,1.361-6.376,2.27-9.725,2.687"/>
				<path style="fill:none;stroke:#222221;stroke-linecap:round;stroke-linejoin:round;stroke-miterlimit:10;" d="M483.065,169.042
					c-1.656,0.269-3.346,0.32-5.015,0.151"/>
				<path style="fill:none;stroke:#222221;stroke-linecap:round;stroke-linejoin:round;stroke-miterlimit:10;" d="M467.036,187.873
					c-2.6,2.455-8.259,7.158-11.1,8.605"/>
				<path style="fill:none;stroke:#222221;stroke-linecap:round;stroke-linejoin:round;stroke-miterlimit:10;" d="M400.971,136.319
					c3.774-1.111,7.858-1.092,11.879-1.025"/>
				<path style="fill:none;stroke:#222221;stroke-linecap:round;stroke-linejoin:round;stroke-miterlimit:10;" d="M412.655,138.285
					c-4.056,0.487-8.167,0.692-12.296,0.612"/>
				<path style="fill:none;stroke:#222221;stroke-linecap:round;stroke-linejoin:round;stroke-miterlimit:10;" d="M401.284,141.85
					c3.966,0.926,8.038,1.174,11.978,0.729"/>
				<path style="fill:#353B38;" d="M450.329,105.037c-0.279-1.095-0.114-2.261,0.049-3.38c0.338-2.314,1.458-4.769,2.289-6.949
					c0.894-2.347,2.508-4.428,4.583-5.847c2.859-1.955,6.561-2.628,9.925-1.806c4.324,1.057,8.251,4.443,12.645,3.732
					c2.419-0.392,4.874-2.014,7.126-1.048c1.837,0.788,2.611,3.004,2.684,5.001s-0.342,4.018,0.022,5.984
					c0.253,1.369,0.882,2.73,0.615,4.096c-0.292,1.495-1.57,2.566-2.767,3.509c-3.183,2.508-6.91,6.709-11.135,7.243
					c-1.587,0.201-3.28-0.063-4.856-0.147c-1.776-0.094-3.52,0.505-5.287,0.578c-2.67,0.111-5.576,0.639-8.048-0.352
					C454.198,114.057,451.46,109.476,450.329,105.037z"/>
				<path style="fill:#FFFFFF;" d="M473.753,124.291c-0.301-0.397-0.609-0.782-0.928-1.148c-0.491-0.564-1.037-1.14-1.773-1.323
					c-0.784-0.195-1.62,0.091-2.435,0.223c-2.812,0.455-5.094-1.21-7.1-2.833c-2.247-1.818-4.112-4.156-5.457-6.722
					c-1.476-2.815-4.416-6.69-3.715-9.954c0.584-2.719,4.451-4.61,7.143-5.58c1.557-0.561,3.23-0.616,4.818-0.407
					c1.852,0.244,4.682,0.799,6.118,1.991c1.032,0.856,2.048,1.732,3.045,2.628c2.565,2.305,4.058,5.568,6.306,8.186
					c1.984,2.311,4.501,4.639,6.971,6.455c0.488,0.358,1.132,0.495,1.723,0.364c0.273,1.935,0.547,3.87,0.82,5.805
					c0.401,2.833,0.768,6.48-0.688,9.076c-1.459,2.603-4.365,2.996-6.806,1.908C478.114,131.316,476.139,127.429,473.753,124.291z"
					/>
				<path style="fill:#353B38;" d="M451.868,100.043c0.568-1.979,1.414-3.453,2.774-5.556c0.829-1.282,1.904-2.424,3.236-3.188
					c1.841-1.057,4.7-1.761,6.821-1.309c2.118,0.452,3.786,2.186,5.903,2.755c2.131,0.572,4.114,0.866,5.419,2.947
					c0.629,1.004,0.841,2.12,0.759,3.325c-0.094,1.382-0.564,3.274-1.539,4.306c-0.688,0.728-1.193,0.321-2.017,0.068
					c-0.855-0.262-1.673-0.119-2.443,0.322c-0.755,0.432-1.71,1.037-2.591,0.559c-0.227-0.123-1.423-1.76-1.124-1.921
					c-0.553,0.298-0.841,1.005-1.446,1.176c-0.491,0.139-1.004-0.138-1.391-0.471c-0.42-0.36-0.772-0.799-1.034-1.286
					c-0.295-0.549-0.514-1.202-1.059-1.505c-0.541-0.3-1.244-0.132-1.735,0.245c-0.49,0.376-0.815,0.924-1.126,1.459
					c-0.547,0.94-1.093,1.881-1.585,2.851c-0.438,0.863-0.838,1.755-1.427,2.523c-0.489,0.638-1.095,1.175-1.715,1.687
					c-0.652,0.54-1.334,1.063-2.116,1.388c-1.292,0.538-4.016,0.278-3.961-1.704c0.021-0.748,0.57-1.358,1.023-1.954
					c0.96-1.263,1.603-2.764,1.855-4.331C451.495,101.534,451.664,100.756,451.868,100.043z"/>
				<path style="fill:#D66087;" d="M474.217,99.259c0.024-0.077,0.017-0.166-0.04-0.259c-0.183-0.3-0.408-0.535-0.65-0.741
					c-1.535-2.026-3.646-3.654-6.011-4.591c-2.542-1.008-5.354-0.784-7.956-0.11c-2.11,0.546-4.124,1.406-6.116,2.29
					c0.382-2.804-0.553-5.759-2.479-7.832c-1.944,1.126-1.765,3.213-1.038,5.068c0.333,0.85,0.764,1.66,1.122,2.499
					c-0.651-0.355-1.339-0.649-2.058-0.806c-1.092-0.239-2.249-0.213-3.345-0.016c-0.975,0.176-2.041,1.042-1.406,2.119
					c0.307,0.52,0.881,0.729,1.455,0.771c0.601,0.043,1.218,0.001,1.82-0.006c1.364-0.018,2.692,0.192,4.069,0.068
					c-0.637,0.651-0.795,1.413-1.062,2.244c-0.121,0.376-0.28,0.678-0.339,1.087c-0.042,0.292,0.091,1.04-0.038,1.266
					c0.559-0.977,1.129-1.968,1.947-2.741c1.813-1.713,4.486-2.058,6.967-2.317c3.085-0.321,5.932,0.452,8.606,2.012
					c0.734,0.429,1.484,1.148,2.288,1.412c0.827,0.271,1.859,0.008,2.73-0.11c0.051,0.035,0.105,0.064,0.156,0.099
					C473.688,101.25,474.741,100.108,474.217,99.259z"/>
				<path style="fill:#FFFFFF;" d="M469.796,105.981c-0.518-0.787-0.927-1.661-1.052-2.58c-0.125-0.919,0.058-1.887,0.619-2.59
					c0.455-0.57,1.125-0.934,1.827-1.154c2.716-0.851,5.605,0.687,6.547,3.465c0.35,1.032,0.078,2.293-0.512,3.141
					c-0.465,0.668-1.104,1.189-1.735,1.702"/>
				<path style="fill:#D66087;" d="M461.543,116.019l6.785-3.498C468.908,114.119,466.64,120.016,461.543,116.019z"/>
				<path style="fill:#353B38;" d="M469.599,121.478c1.32-0.78,2.44-1.794,3.487-2.897c0.053,0.885,0.245,1.735,0.286,2.607
					c0.047,0.982-0.12,1.936,0.19,2.867c-0.413-0.471-0.82-0.944-1.278-1.374c-0.389-0.366-0.815-0.715-1.328-0.882
					c-0.716-0.233-1.52-0.087-2.262,0.146c-0.025,0.008-0.051,0.015-0.076,0.023C468.95,121.818,469.282,121.666,469.599,121.478z"
					/>
				<path style="fill:none;stroke:#222221;stroke-linecap:round;stroke-linejoin:round;stroke-miterlimit:10;" d="M471.752,101.862
					c-0.448,0.585-0.917,1.225-0.945,1.943c-0.033,0.866,0.577,1.574,1.153,2.19"/>
				<path style="fill:none;stroke:#D66087;stroke-linecap:round;stroke-miterlimit:10;" d="M573.176,299.444
					c0.92,1.707,2.376,3.12,4.111,3.988"/>
				<path style="fill:none;stroke:#D66087;stroke-linecap:round;stroke-miterlimit:10;" d="M508.43,306.17
					c2.351,0.653,4.403,2.316,5.529,4.48"/>
				<path style="fill:#DEBA59;" d="M552.208,374.277c-7.504,1.851-15.154,3.11-22.856,3.762c0,0,2.372,6.297,2.552,6.408
					c2.015,1.235,17.316-1.408,20.384-2.747c0.169-0.074,0.304-0.203,0.294-0.388L552.208,374.277z"/>
				<path style="fill:#DEBA59;" d="M526.484,370.862c7.702-0.652,18.47-2.443,25.974-4.294l-0.352-8.94l-28.964,4.608
					L526.484,370.862z"/>
				<path style="fill:#DEBA59;" d="M519.234,351.434c7.702-0.652,27.769-5.49,32.414-7.18l-0.709-10.229
					c-9.098,3.521-21.172,6.044-35.091,7.946c-0.071,0.016-0.111,0.091-0.086,0.159L519.234,351.434z"/>
				<path style="fill:#353B38;" d="M597.791,271.26c1.075-0.764,2.361-1.315,3.11-2.401c0.971-1.409,0.76-3.282,1.07-4.965
					c0.349-1.9,1.098-3.806,2.639-4.971c1.554,6.734,2.368,12.751,3.32,19.146c-2.409,0.595-4.948,1.38-7.356,1.976
					c-1.204,0.298-2.409,0.594-3.613,0.893c-1.305,0.325-1.841,0.836-2.48-0.292C592.823,277.721,595.443,272.928,597.791,271.26z"
					/>
				<path style="fill:#353B38;" d="M547.296,235.813c1.451-0.364,3.024,0.38,3.948,1.556c0.924,1.176,1.286,2.707,1.362,4.201
					c0.035,0.688,0.018,1.394,0.251,2.042c0.301,0.839,0.989,1.492,1.302,2.327c0.502,1.341-0.056,2.822-0.608,4.144
					c-0.363,0.869-0.726,1.737-1.089,2.606"/>
				<path style="fill:#353B38;" d="M519.393,138.218c0.183-2.067,2.027-3.55,3.79-4.643c0.519-0.322,1.071-0.661,1.344-1.207
					c0.524-1.046-0.195-2.253-0.395-3.406c-0.224-1.293,0.24-2.629,0.986-3.709c0.745-1.08,1.908-2.04,2.905-2.894
					c0.588,7.165,1.004,14.61-0.978,21.521c-0.495,1.725-3.534,0.241-4.553-0.458C520.872,142.313,519.21,140.285,519.393,138.218z"
					/>
				<path style="fill:none;stroke:#353B38;stroke-linecap:round;stroke-miterlimit:10;" d="M549.222,377.904
					c0.114,2.652,0.259,5.302,0.436,7.95"/>
				<path style="fill:none;stroke:#353B38;stroke-linecap:round;stroke-miterlimit:10;" d="M549.788,388.248
					c0.025,1.056,0.05,2.112,0.074,3.168"/>
				<path style="fill:none;stroke:#353B38;stroke-linecap:round;stroke-miterlimit:10;" d="M548.171,355.574
					c-0.083,0.017-0.035-0.154,0.045-0.126c0.08,0.029,0.094,0.134,0.094,0.219c-0.002,2.531-0.004,5.061-0.006,7.591"/>
				<path style="fill:#DEBA59;stroke:#353B38;stroke-linecap:round;stroke-miterlimit:10;" d="M599.62,379.095
					c3.143-0.15,6.276-0.508,9.371-1.073"/>
				<path style="fill:#DEBA59;stroke:#353B38;stroke-linecap:round;stroke-miterlimit:10;" d="M612.641,377.539
					c1.025-0.08,2.042-0.26,3.032-0.538"/>
				<path style="fill:#DEBA59;stroke:#353B38;stroke-linecap:round;stroke-miterlimit:10;" d="M616.237,357.206
					c-0.028,2.393-0.057,4.786-0.085,7.18"/>
				<path style="fill:#DEBA59;stroke:#353B38;stroke-linecap:round;stroke-miterlimit:10;" d="M616.724,385.785
					c0,3.848,0,7.696,0,11.544"/>
				<path style="fill:none;stroke:#222221;stroke-linecap:round;stroke-linejoin:round;stroke-miterlimit:10;" d="M526.393,144.621
					c-10.187-1.899-22.441-3.554-35.957-7.727c1.825-4.33,3.63-8.538,5.454-12.868"/>
				<g>
					<defs>
						<path id="SVGID_1_" d="M550.94,334.025c-7.15,4.174-26.651,8.713-35.39,8.024c5.183,13.979,21.608,56.446,22.115,56.824
							c1.831,1.368,6.761,4.017,9.092,3.397c5.014-1.333,5.843-5.528,5.772-12.966C552.743,383.091,552.341,345.052,550.94,334.025z
							"/>
					</defs>
					<clipPath id="SVGID_00000158733616878797030360000001581125960028364427_">
						<use xlink:href="#SVGID_1_"  style="overflow:visible;"/>
					</clipPath>
				</g>
			</g>
			<g>
				<g>
					<path style="fill:#DEBA59;" d="M379.791,327.499c-2.559-3.223-6.31-5.356-10.309-6.22c-4.677-1.011-9.216-0.394-13.865,0.455
						c-0.06,0.011-0.121,0.025-0.181,0.036c-0.033,0-0.067,0-0.101,0.001c-6.324,0.099-14.662,3.033-20.089-0.68
						c10.707-8.263,22.891-17.739,22.891-17.739l-17.77-23.863c-0.121,0-1.508,0.819-3.68,2.147
						c-5.848-7.872-12.706-9.671-21.068-7.523c-8.94,2.297-17.28,9.789-16.087,19.685c0.346,2.87,1.241,5.65,2.286,8.335
						c0.143,0.368,0.296,0.753,0.466,1.133c-1.59,1.009-2.535,1.609-2.535,1.609l18.528,26.674c0.618,0.889,1.844,1.093,2.713,0.447
						c1.396-1.038,3.604-2.718,6.264-4.756c2.329,1.998,5.184,3.4,8.18,3.961c4.856,0.908,9.711,0.323,14.481-0.797
						c4.714-1.108,9.236-3.002,14.145-3.041c3.69-0.03,8.31,0.908,10.384,4.263c1.071,1.732,3.371,2.214,5.003,0.955
						C381.181,331.241,381.056,329.093,379.791,327.499z M307.59,299.901c-1.457-2.819-2.194-6.008-2.107-9.181
						c0.029-1.052,0.154-2.13,0.636-3.065c0.46-0.895,1.215-1.601,1.992-2.241c6.874-5.671,17.829-10.34,23.286-1.468
						c0.141,0.229,0.285,0.463,0.431,0.694C324.67,289.097,314.544,295.495,307.59,299.901z"/>
					<path style="fill:#FFFFFF;" d="M290.552,270.849c3.846-0.048,7.7,0.104,11.539,0.052c3.074-0.042,7.072,0.446,10.013,1.431
						c2.704,0.905,5.298,2.311,7.215,4.422c0.722,0.795,1.372,1.789,1.268,2.858c-0.104,1.069-1.332,2.023-2.267,1.494
						c0.735,0.624,1.103,1.652,0.932,2.601c-0.171,0.949-0.875,1.784-1.781,2.113c0.728,0.845,0.556,2.246-0.235,3.033
						c-0.791,0.787-2.042,0.991-3.118,0.697c0.378,0.808-0.074,1.817-0.808,2.324c-0.734,0.507-1.668,0.616-2.56,0.629
						c-4.392,0.061-8.559-1.685-12.516-3.401c-4.019-1.743-7.508-2.403-11.913-2.435c-4.699-0.034-9.374-0.633-14.035-1.231
						c-1.116-0.143-2.246-0.29-3.291-0.706c-3.251-1.296-5.036-5.171-4.474-8.625c0.144-0.886,0.424-1.762,0.931-2.503
						c0.465-0.679,1.107-1.223,1.81-1.651c2.62-1.595,5.882-1.554,8.948-1.463C280.984,270.628,285.777,270.908,290.552,270.849z"/>
					<path style="fill:none;stroke:#222221;stroke-linecap:round;stroke-linejoin:round;stroke-miterlimit:10;" d="M245.026,320.067
						"/>
					<path style="fill:#353B38;" d="M287.256,411.091c-0.281,0.159-0.567,0.301-0.854,0.441h-43.137
						c-5.38-3.157-2.992-13.831-2.73-18.911c0.311-6.042,0.557-14.688,7.957-15.682c2.019-0.272,4.26-0.067,5.777,1.294
						c1.766,1.584,2.039,4.206,2.193,6.574l0.475,7.268c0.071,1.093,0.143,2.185,0.214,3.278c5.935,1.112,11.879,2.226,17.689,3.872
						c5.473,1.551,11.446,4.181,13.324,9.551c0.151,0.431,0.271,0.909,0.112,1.337C288.109,410.565,287.675,410.854,287.256,411.091
						z"/>
					<path style="fill:#353B38;" d="M79.901,399.354c0.197-0.54,0.536-0.916,1.25-1.036c2.225-0.376,6.829,2.021,9.04,2.674
						c2.112,0.624,4.59,1.191,6.358-0.122c0.828-0.615,1.349-1.554,1.782-2.49c1.585-3.424,4.016-11.116,0.288-14.134
						c-0.625-0.506-1.477-0.601-2.278-0.676c-5.707-0.534-11.414-1.067-17.122-1.601c-2.847-0.266-5.727-0.426-8.562-0.8
						c-2.423-0.32-3.989,0.339-5.274,2.615c-2.389,4.234-2.359,9.222-2.418,13.945c-0.059,4.764,0.247,10.007,3.062,14.048
						c1.554,2.23,4.198,4.035,6.412,5.53c1.188,0.802,2.963,2.234,4.386,2.514c2.184,0.43,7.403-2.2,8.242-4.273
						c0.667-1.65,0.161-3.702-1.197-4.852c-0.655-0.554-1.457-0.897-2.21-1.309c-0.878-0.481-1.696-1.062-2.511-1.642
						c-0.201-0.143-0.411-0.297-0.506-0.525c-0.089-0.213-0.061-0.455-0.029-0.684c0.225-1.663,0.508-3.318,0.849-4.962
						C79.64,400.715,79.688,399.938,79.901,399.354z"/>
					<path style="fill:#D66087;" d="M233.769,389.211c2.142,0.038,4.284,0.08,6.426,0.131c8.019,0.188,19.334,0.317,27.379,0.287
						c1.328-12.628-0.624-25.146,0.412-37.801c0.756-9.23,1.048-18.491,1.15-27.749c0.093-8.507,1.714-17.951-1.209-26.136
						c-1.868-5.231-5.96-9.944-11.359-11.248c-8.406-2.03-17.642-1.814-26.249-2.49c-10.128-0.796-20.195-2.103-30.164-4.072
						c-10.094-1.993-20.193-4.622-30.479-4.411c-10.286,0.21-21.085,3.741-27.373,11.885c-3.588,4.646-5.338,10.627-5.043,16.474
						c0.167,3.305,0.988,6.568,2.5,9.522c7.9,15.431,26.965,13.726,41.522,13.943c17.061,0.255,35.074,2.05,51.862-1.819
						C233.816,347.042,231.975,367.26,233.769,389.211z"/>
					<path style="fill:#FFFFFF;" d="M235.377,180.117c3.048,2.763,8.221,2.729,6.756,7.073c-0.993,2.946-6.234,9.62-8.496,11.753
						c-1.31,1.236-2.842,2.305-4.593,2.727c-2.579,0.622-5.26-0.221-7.778-1.054c-1.212-0.401-9.519,11.604-11.303,14.375
						c-2.047,3.179-16.335-10.688-17.743-11.929c8.805-6.351,26.221-25.807,30.055-26.665
						C226.754,175.395,231.946,177.007,235.377,180.117z"/>
					<g>
						<path style="fill:#D66087;" d="M180.533,306.095c0.089,1.495,0.303,2.972,0.606,4.434c0.667,3.221,1.766,6.367,2.902,9.464
							c6.022,16.418,15.168,45.717,17.329,63.07c4.079,32.76-6.332,25.053-48.688,27.888c-12.364,0.828-54.15,3.072-60.332,3.771
							c-2.163-8.626-4.948-25.731-6.883-34.413c-0.268-1.202,64.397-4.105,70.126-6.158c-15.011-21.274-41.393-59.911-26.158-87.142
							c4.707-8.413,13.818-14.425,15.972-23.821c0.259-1.131,0.514-2.443,1.533-2.998c0.896-0.489,2.001-0.166,2.963,0.175
							c13.383,4.738,26.157,11.192,37.911,19.153c0.647,0.438,1.333,0.936,1.563,1.683"/>
					</g>
					<path style="fill:none;stroke:#222221;stroke-linecap:round;stroke-linejoin:round;stroke-miterlimit:10;" d="M160.048,295.711
						c-0.873,4.055-3.359,7.74-6.791,10.069c-3.432,2.329-7.774,3.277-11.865,2.59"/>
					<path style="fill:#529FDE;" d="M154.206,230.721c2.519-3.6,5.172-7.1,8.034-10.438c5.357-6.248,11.48-11.927,18.467-16.313
						c5.694-3.574,12.55-8.209,19.476-8.02c6.263,0.172,11.166,2.01,15.847,6.691c5.695,5.695,2.603,15.103,0.739,22.449
						c-2.082,8.203-5.016,16.149-7.62,24.193c-3.285,10.149-5.517,20.727-6.107,31.299c-11.872,6.956-23.912,13.984-37.169,17.669
						c-7.933,2.205-16.344,3.114-24.534,2.035c-4.454-0.587-18.845-2.086-19.146-8.285c-0.053-1.086,0.354-2.136,0.754-3.148
						c5.278-13.352,10.135-26.968,18.845-38.581C145.781,243.667,149.786,237.039,154.206,230.721z"/>
					<g>
						<path style="fill:#353B38;" d="M242.726,177.533c-0.111,0.282-0.255,0.551-0.433,0.801c1.059-0.421,2.397,0.075,2.926,1.085
							c0.529,1.01,0.174,2.392-0.775,3.023c0.489-0.325,1.501,1.364,1.566,1.695c0.158,0.808,0.246,1.99-0.055,2.762
							c-0.529,1.354-1.672,2.045-3.103,1.709c-0.51-0.12-3.084-1.126-2.614-2.027c-0.259,0.497-0.756,0.863-1.307,0.963
							c-1.319,0.24-2.33-0.544-2.906-1.626c-0.402-0.754-0.778-1.522-1.129-2.302c-0.295,0.663-0.744,1.287-1.385,1.626
							c-1.167,0.617-3.056-0.129-3.344-1.464c-0.167,1.065-0.343,2.156-0.879,3.091c-0.619,1.08-1.68,1.902-3.004,1.431
							c-0.664-0.236-1.257-0.779-1.959-0.719c-0.618,0.053-1.083,0.554-1.596,0.903c-1.578,1.074-3.693,0.721-5.542,0.243
							c-2.472-0.639-4.976-1.027-7.208-2.307c0.829-0.714,1.407-1.689,1.374-2.818c-0.012-0.416-0.102-0.837-0.018-1.245
							c0.323-1.551,2.252-1.32,3.029-2.451c0.913-1.329-0.156-2.879,0.424-4.262c0.316-0.754,1.102-1.206,1.885-1.442
							c0.783-0.236,1.612-0.313,2.376-0.603c3.357-1.273,1.869-6.118,5.367-6.678c1.686-0.27,3.06,0.645,4.437,1.441
							c0.785-1.094,1.903-1.874,3.332-1.725c1.382,0.144,2.595,1.043,3.432,2.151c0.859,1.137,1.291,2.465,1.358,3.881
							c0.607-0.545,1.422-0.852,2.238-0.841C242.048,171.867,243.707,175.041,242.726,177.533z"/>
					</g>
					<path style="fill:#353B38;" d="M218.052,203.736c0.928-1.133,1.934-2.47,3.171-3.128c-0.304-0.275-0.882-0.625-1.006-0.727
						c-0.576-0.469-1.149-0.948-1.677-1.472c-0.387-0.385-0.574-1.068-1.253-0.98c-0.368,0.048-0.685,0.362-0.735,0.73
						c-0.026,0.19,0.013,0.383,0.054,0.57c0.123,0.553,0.282,1.113,0.623,1.566c0.163,0.217,0.366,0.405,0.502,0.64
						c0.303,0.522,0.156,1.076,0.231,1.635C217.99,202.773,217.987,203.283,218.052,203.736z"/>
					<path style="fill:#FFFFFF;" d="M225.588,184.671c-0.478-0.136-0.984-0.185-1.479-0.146c-1.666,0.13-2.402,0.691-2.894,2.29
						c-0.524,1.703,0.14,3.691,1.785,4.208c1.569,0.494,3.987-0.173,4.761-1.765c0.572-1.177,0.289-2.804-0.636-3.714
						C226.698,185.126,226.163,184.835,225.588,184.671z"/>
					<path style="fill:none;stroke:#222221;stroke-linecap:round;stroke-linejoin:round;stroke-miterlimit:10;" d="M233.206,325.865
						c2.018-2.525,3.755-5.274,5.17-8.18"/>
					<path style="fill:none;stroke:#222221;stroke-linecap:round;stroke-linejoin:round;stroke-miterlimit:10;" d="M155.8,374.481
						c2.675,1.079,5.653,1.393,8.495,0.896"/>
					<path style="fill:#529FDE;" d="M214.952,201.725c9.068,6.638,8.217,20.074,11.261,29.574
						c3.334,10.406,11.217,19.155,20.673,24.414c9.515,5.292,27.737,7.441,38.62,7.743c-0.337,8.669-0.675,17.338-1.012,26.007
						c-0.027,0.694-0.083,1.458-0.57,1.953c-0.492,0.5-1.264,0.563-1.964,0.596c-10.043,0.475-27.473,0.934-37.217-1.542
						c-19.7-5.006-38.617-20.776-46.402-39.552c-3.868-9.327-4.439-15.918-4.68-25.603"/>
					<path style="fill:none;stroke:#222221;stroke-linecap:round;stroke-linejoin:round;stroke-miterlimit:10;" d="M192.927,403.894
						c-2.019,1.101-7.416,0.667-8.901,1.193"/>
					<path style="fill:none;stroke:#222221;stroke-linecap:round;stroke-linejoin:round;stroke-miterlimit:10;" d="M261.162,296.713
						c1.907,2.689,3.105,5.878,3.439,9.158"/>
					<path style="fill:none;stroke:#222221;stroke-linecap:round;stroke-linejoin:round;stroke-miterlimit:10;" d="M88.438,382.403
						c0.793,3.248,1.705,6.468,2.731,9.65"/>
					<path style="fill:none;stroke:#222221;stroke-linecap:round;stroke-linejoin:round;stroke-miterlimit:10;" d="M92.504,395.814
						c0.268,1.342,0.536,2.684,0.804,4.026"/>
					<path style="fill:none;stroke:#222221;stroke-linecap:round;stroke-linejoin:round;stroke-miterlimit:10;" d="M128.003,308.279
						c0.687,5.682,1.996,13.311,5.642,19.448"/>
					<path style="fill:#D66087;" d="M228.14,195.502c-0.743,1.803,1.2,4.295,3.847,3.811"/>
					<path style="fill:none;stroke:#222221;stroke-linecap:round;stroke-linejoin:round;stroke-miterlimit:10;" d="M142.906,257.552
						c-1.259,2.02-1.524,3.18-2.687,5.257"/>
					<path style="fill:none;stroke:#222221;stroke-linecap:round;stroke-linejoin:round;stroke-miterlimit:10;" d="M144.604,254.602
						c0.603-0.96,1.25-1.894,1.936-2.798"/>
					<path style="fill:#353B38;" d="M380.578,328.949c-0.008-0.032-0.019-0.062-0.031-0.092c-0.045-0.106-0.09-0.212-0.135-0.319
						c-0.045-0.114-0.093-0.226-0.143-0.338c-0.01-0.019-0.02-0.035-0.032-0.052c-0.304-0.443-0.528-0.718-1-0.994
						c-0.003-0.001-0.006-0.003-0.009-0.004c-0.214-0.093-0.429-0.183-0.645-0.272c-0.008-0.002-0.016-0.004-0.024-0.005
						c-0.236-0.032-0.471-0.063-0.707-0.095c-0.138,0.005-0.237,0.027-0.401,0.05c-0.213,0.029-0.262,0.02-0.401,0.062
						c-0.158,0.048-0.497,0.196-0.721,0.309c-0.237,0.12-0.433,0.274-0.644,0.437c-0.137,0.106-0.288,0.21-0.413,0.333
						c-0.205,0.202-0.379,0.458-0.542,0.683c-0.025,0.034-0.047,0.069-0.067,0.105c-0.004,0.007-0.007,0.013-0.011,0.02
						c-0.087,0.206-0.174,0.411-0.26,0.617c-0.076,0.232-0.103,0.482-0.099,0.726c0.001,0.041,0.004,0.082,0.009,0.123
						c0.025,0.21,0.055,0.476,0.092,0.683c0.003,0.019,0.007,0.037,0.011,0.056c0.009,0.035,0.02,0.07,0.033,0.104
						c0.02,0.052,0.046,0.103,0.066,0.155c0.029,0.335,0.127,0.651,0.313,0.944c0.174,0.323,0.412,0.582,0.714,0.777
						c0.268,0.245,0.582,0.41,0.942,0.496c0.491,0.132,0.982,0.132,1.473,0c0.17-0.036,0.339-0.126,0.493-0.191
						c0.158-0.067,0.34-0.125,0.486-0.227c0.013-0.009,0.026-0.019,0.038-0.029c0.18-0.135,0.398-0.297,0.57-0.441
						c0.024-0.02,0.048-0.041,0.07-0.064c0.201-0.201,0.376-0.453,0.532-0.676c0.035-0.05,0.067-0.101,0.093-0.156
						c0.127-0.261,0.254-0.529,0.336-0.808c0.078-0.264,0.108-0.681,0.128-0.866c0.007-0.063,0.01-0.125,0.005-0.189
						C380.676,329.526,380.653,329.229,380.578,328.949z"/>
					<path style="fill:none;stroke:#222221;stroke-linecap:round;stroke-linejoin:round;stroke-miterlimit:10;" d="M326.203,327.626
						c1.7-1.144,3.424-2.838,4.846-4.313"/>
					<path style="fill:none;stroke:#222221;stroke-linecap:round;stroke-linejoin:round;stroke-miterlimit:10;" d="M305.578,310.039
						c1.598-1.39,3.094-2.897,4.472-4.506"/>
					<path style="fill:none;stroke:#222221;stroke-linecap:round;stroke-linejoin:round;stroke-miterlimit:10;" d="M314.617,289.707
						c-0.37-0.082-0.699-0.288-1.025-0.482c-1.556-0.929-4.158-1.713-5.889-2.248"/>
					<path style="fill:none;stroke:#222221;stroke-linecap:round;stroke-linejoin:round;stroke-miterlimit:10;" d="M317.498,286.03
						c-2.259-1.801-5.12-3.405-7.806-4.469"/>
					<path style="fill:none;stroke:#222221;stroke-linecap:round;stroke-linejoin:round;stroke-miterlimit:10;" d="M318.703,281.562
						c-2.182-2.025-4.68-4.046-7.409-5.235"/>
					<path style="fill:#353B38;" d="M325.551,274.722c-0.665-0.197-1.374-0.36-2.045-0.186c-0.671,0.174-1.276,0.791-1.204,1.481
						c0.073,0.697,0.775,1.166,1.459,1.321c0.684,0.156,1.404,0.103,2.082,0.283c2.615,0.694,3.002,3.685,4.577,5.445
						c1.886,2.106,3.912,0.718,5.783-0.804C334.17,278.59,329.467,275.88,325.551,274.722z"/>
					<path style="fill:#353B38;" d="M317.612,322.83c1.002,0.097,1.886,0.81,2.893,0.807c0.921-0.003,1.716-0.598,2.498-1.083
						c0.783-0.485,1.767-0.887,2.599-0.491c1.046,0.498,1.203,1.895,1.216,3.053c0.008,0.686,0.015,1.372,0.023,2.058
						c0.002,0.203,0.003,0.414-0.085,0.597c-0.08,0.168-0.226,0.293-0.367,0.414c-2.259,1.924-4.596,3.893-7.416,4.818
						c-1.179-1.139-2.195-2.445-3.008-3.869c-0.651-1.138-2.206-2.701-1.864-4.07C314.412,323.813,316.435,322.716,317.612,322.83z"
						/>
					<path style="fill:#353B38;" d="M225.391,186.028c0.622,0.393,1.006,1.135,0.967,1.87c-0.039,0.735-0.499,1.432-1.159,1.757"/>
				</g>
				<path style="fill:#8FF0FF;" d="M376.03,362.945c-0.015,0.68,0.003,1.36,0.068,2.038c0.191,1.989,0.917,5.345,3.059,6.083
					c1.877,0.646,4.019-0.425,5.146-2.059c3.052-4.423,1.332-10.378,0.174-15.081c-0.728-2.954-1.558-5.884-2.488-8.781
					c-0.465-1.449-0.955-2.889-1.471-4.321c-0.318-0.883-1.521-2.839-1.409-3.737c-0.894,7.152-1.788,14.303-2.682,21.455
					C376.244,360.004,376.061,361.475,376.03,362.945z"/>
				<path style="fill:none;stroke:#222221;stroke-linecap:round;stroke-linejoin:round;stroke-miterlimit:10;" d="M210.102,261.534
					c3.715,4.583,7.924,8.766,12.53,12.452"/>
				<path style="fill:none;stroke:#222221;stroke-linecap:round;stroke-linejoin:round;stroke-miterlimit:10;" d="M225.175,275.67
					c2.006,1.604,4.188,2.988,6.495,4.118"/>
				<path style="fill:none;stroke:#222221;stroke-linecap:round;stroke-linejoin:round;stroke-miterlimit:10;" d="M282.001,268.081
					c-0.238,5.323-0.475,10.646-0.713,15.969"/>
				<path style="fill:none;stroke:#222221;stroke-linecap:round;stroke-linejoin:round;stroke-miterlimit:10;" d="M218.562,212.917
					c2.936,6.856,2.346,14.9,5.704,21.559"/>
				<path style="fill:#353B38;" d="M198.654,251.953c-0.706,0.893-1.166,3.505-1.393,4.555c-0.258,1.193-0.13,2.526,0.615,3.492
					c0.336,0.436,0.783,0.781,1.087,1.239c1.096,1.651-0.045,3.793-0.447,5.732c-0.702,3.381,1.315,7.123,4.526,8.394
					c0.28-3.782,0.996-7.531,2.131-11.149c0.093-0.297,0.182-0.612,0.178-0.917C202.461,260.05,200.202,256.089,198.654,251.953z"/>
				<path style="fill:#353B38;" d="M236.658,370.093c0.574,0.543,0.825,1.34,1,2.111c0.36,1.582,0.5,3.214,0.416,4.833
					c-0.033,0.641-0.091,1.329,0.239,1.879c0.518,0.861,1.689,0.97,2.625,1.336c1.651,0.646,2.744,2.292,3.186,4.009
					c0.442,1.717,0.332,3.521,0.219,5.29c-3.646,0.103-7.3-0.05-10.925-0.457c-0.16-4.408-0.319-8.815-0.479-13.223
					c-0.046-1.262-0.817-4.832-0.054-5.912C233.677,368.838,235.786,369.27,236.658,370.093z"/>
				<path style="fill:none;stroke:#222221;stroke-linecap:round;stroke-linejoin:round;stroke-miterlimit:10;" d="M379.001,353.736
					c-0.37,2.177-0.773,4.352-1.019,6.546c-0.557,4.97,0.773,8.137,1.783,8.672"/>
				<path style="fill:none;stroke:#222221;stroke-linecap:round;stroke-linejoin:round;stroke-miterlimit:10;" d="M199.87,255.822
					c-2.164-6.757-3.997-13.62-5.491-20.556"/>
			</g>
			<path style="fill:none;stroke:#7ACCAD;stroke-linecap:round;stroke-miterlimit:10;" d="M644.743,277.174
				c-0.916,0.611-1.448,1.677-1.656,2.759c-0.295,1.536,0.024,3.215,1,4.437c0.976,1.222,2.634,1.914,4.164,1.589"/>
			<g>
				<path style="fill:none;stroke:#7ACCAD;stroke-linecap:round;stroke-miterlimit:10;" d="M575.356,148.022
					c3.818,0.336,7.361,2.882,8.896,6.393c-0.279-2.565-0.512-5.349,0.846-7.543c0.706-1.141,1.777-1.999,2.827-2.835
					c-0.961,0.765-3.755-0.062-4.738-0.441c-1.559-0.601-3.008-1.635-3.993-2.994C579.183,143.51,577.898,146.429,575.356,148.022z"
					/>
				<path style="fill:none;stroke:#7ACCAD;stroke-linecap:round;stroke-miterlimit:10;" d="M273.569,215.713
					c2.728,1.994,4.241,5.532,3.799,8.882c0.959-2.063,2.053-4.271,4.078-5.307c1.053-0.539,2.253-0.699,3.426-0.85
					c-1.074,0.139-2.806-1.758-3.375-2.493c-0.903-1.164-1.525-2.606-1.649-4.081C278.515,214.053,276.214,215.67,273.569,215.713z"
					/>
				<path style="fill:none;stroke:#7ACCAD;stroke-linecap:round;stroke-miterlimit:10;" d="M647.189,261.816
					c1.673,0.007,3.365,0.016,4.988,0.424c1.622,0.408,3.193,1.263,4.133,2.647c0.201-1.53-0.137-3.096,0.098-4.62
					c0.29-1.875,1.412-3.501,2.503-5.054c-0.581,0.827-8.169-1.917-8.258-2.69C651.084,256.262,650.009,259.355,647.189,261.816z"/>
				<path style="fill:none;stroke:#7ACCAD;stroke-linecap:round;stroke-miterlimit:10;" d="M429.461,275.868
					c1.673,0.007,3.365,0.016,4.988,0.424c1.622,0.408,3.193,1.263,4.133,2.646c0.201-1.53-0.137-3.096,0.098-4.62
					c0.29-1.875,1.412-3.501,2.503-5.054c-0.581,0.827-8.169-1.917-8.258-2.69C433.356,270.314,432.281,273.407,429.461,275.868z"/>
				<path style="fill:none;stroke:#7ACCAD;stroke-linecap:round;stroke-miterlimit:10;" d="M325.774,62.705
					c1.541,0.006,3.099,0.014,4.593,0.39c1.494,0.376,2.941,1.163,3.807,2.438c0.185-1.409-0.126-2.851,0.09-4.255
					c0.267-1.727,1.3-3.225,2.305-4.654c-0.535,0.762-7.523-1.766-7.605-2.477C329.361,57.59,328.371,60.438,325.774,62.705z"/>
				<path style="fill:none;stroke:#7ACCAD;stroke-linecap:round;stroke-miterlimit:10;" d="M99.098,270.102
					c1.237,0.005,2.489,0.012,3.688,0.314s2.361,0.934,3.057,1.957c0.149-1.131-0.102-2.289,0.073-3.417
					c0.214-1.387,1.044-2.589,1.851-3.737c-0.43,0.611-6.041-1.418-6.107-1.989C101.978,265.995,101.184,268.282,99.098,270.102z"/>
				<path style="fill:none;stroke:#7ACCAD;stroke-linecap:round;stroke-miterlimit:10;" d="M668.385,276.758
					c-0.145-0.345-0.05-0.745,0.108-1.083c0.473-1.01,1.534-1.718,2.648-1.767c1.114-0.049,2.233,0.563,2.792,1.528"/>
				<path style="fill:none;stroke:#7ACCAD;stroke-linecap:round;stroke-miterlimit:10;" d="M444.737,253.395
					c0-2.433,1.972-4.405,4.405-4.405c2.433,0,4.405,1.972,4.405,4.405"/>
				<path style="fill:none;stroke:#7ACCAD;stroke-linecap:round;stroke-miterlimit:10;" d="M106.115,294.69
					c0,0.912-0.74,1.652-1.652,1.652s-1.652-0.74-1.652-1.652c0-0.912,0.739-1.652,1.652-1.652S106.115,293.778,106.115,294.69z"/>
				<circle style="fill:none;stroke:#7ACCAD;stroke-linecap:round;stroke-miterlimit:10;" cx="307.086" cy="74.999" r="2.202"/>
				<g>
					<path style="fill:none;stroke:#7ACCAD;stroke-linecap:round;stroke-miterlimit:10;" d="M331.588,235.5
						c3.649,0,6.607,2.958,6.607,6.607c0,3.649-2.958,6.607-6.607,6.607"/>
					<path style="fill:none;stroke:#7ACCAD;stroke-linecap:round;stroke-miterlimit:10;" d="M325.806,245.411
						c0,0.912-0.74,1.652-1.652,1.652c-0.912,0-1.652-0.74-1.652-1.652c0-0.912,0.74-1.652,1.652-1.652
						C325.067,243.76,325.806,244.499,325.806,245.411z"/>
				</g>
				<path style="fill:none;stroke:#7ACCAD;stroke-linecap:round;stroke-miterlimit:10;" d="M473.919,305.703
					c0,2.737-2.219,4.955-4.955,4.955c-2.737,0-4.955-2.219-4.955-4.955c0-2.737,2.219-4.956,4.955-4.956
					C471.7,300.747,473.919,302.966,473.919,305.703z"/>
				<path style="fill:none;stroke:#7ACCAD;stroke-linecap:round;stroke-miterlimit:10;" d="M491.538,62.966
					c0-1.869,1.467-3.384,3.276-3.384c1.809,0,3.276,1.515,3.276,3.384"/>
			</g>
		</g>
	</g>
</g>
</svg>
