<?xml version="1.0" encoding="utf-8"?>
<!-- Generator: Adobe Illustrator 27.5.0, SVG Export Plug-In . SVG Version: 6.00 Build 0)  -->
<svg version="1.1" xmlns="http://www.w3.org/2000/svg" xmlns:xlink="http://www.w3.org/1999/xlink" x="0px" y="0px"
	 viewBox="0 0 500 500" style="enable-background:new 0 0 500 500;" xml:space="preserve">
<g id="BACKGROUND">
	<rect style="fill:#FFFFFF;" width="500" height="500"/>
</g>
<g id="OBJECT">
	<g>
		<g>
			<path style="fill:#E7FAF9;" d="M214.847,221.654c15.479-12.907,21.044-38.523,11.323-56.177
				c-3.354-6.091-8.097-11.286-12.09-16.978c-3.994-5.692-7.333-12.244-7.233-19.197c0.152-10.5,7.928-19.27,10.691-29.4
				c2.278-8.351,0.928-17.626-3.635-24.981c-4.564-7.355-12.274-12.683-20.768-14.351c-19.382-3.805-38.258,10.748-57.962,9.37
				c-15.623-1.092-29.481-12.088-45.142-12.085c-10.94,0.002-21.707,5.877-27.628,15.076c-5.921,9.2-6.81,21.432-2.28,31.391
				c4.011,8.818,11.624,15.353,18.399,22.277c6.776,6.924,13.195,15.225,13.671,24.9c0.475,9.659-5.06,18.547-6.712,28.075
				c-2.804,16.18,8.284,36.412,23.696,42.079H214.847z"/>
			<path style="fill:#E7FAF9;" d="M142.668,65.286c3.067-0.212,6.149-0.662,9.013-1.78c2.864-1.118,5.514-2.949,7.219-5.507
				c2.474-3.71,2.682-8.691,0.975-12.81c-1.707-4.12-5.163-7.381-9.172-9.334c-4.009-1.952-8.539-2.669-12.998-2.598
				c-5.209,0.082-10.4,1.216-15.169,3.313c-4.343,1.91-8.459,4.746-10.848,8.845c-2.213,3.796-3.278,11.261,0.881,14.273
				c2.224,1.611,5.544,2.38,8.134,3.151c3.32,0.989,6.723,1.701,10.161,2.125C134.777,65.447,138.736,65.559,142.668,65.286z"/>
			<path style="fill:#E7FAF9;" d="M169.465,49.103c0.454,2.809,2.666,5.202,5.371,6.085c3.3,1.077,7.25-0.151,9.264-2.979
				c2.014-2.827,1.846-7.045-0.473-9.629C178.554,36.925,168.215,41.37,169.465,49.103z"/>
		</g>
		<g>
			<g>
				<g>
					<g>
						<polygon style="fill:#6CA8BF;" points="138.487,79.806 132.628,98.6 144.961,103.651 146.958,94.607 						"/>
						<path style="fill:#468097;" d="M139.803,82.107c-1.733,7.058,2.426,20.426,2.426,20.426l2.731,1.119l1.997-9.044
							L139.803,82.107z"/>
					</g>
					<g>
						<polygon style="fill:#EBA58E;" points="106.631,139.201 114.657,129.726 107.454,127.651 103.695,130.979 						"/>
						<path style="fill:#F2C9AD;" d="M99.584,131.018l5.514-1.991l0.403,0.994c1.026,2.535,1.446,5.275,1.226,8.001l-0.095,1.179
							l-0.949-0.583c-2.169-1.333-3.922-3.247-5.061-5.525L99.584,131.018z"/>
						<path style="fill:#F2C9AD;" d="M133.645,99.017l-3.718,10.429l-16.522,15.426l-7.635,0.235l-1.214,7.086l0,0
							c1.389-0.093,2.547-1.098,2.832-2.461l0.026-0.123c2.623,1.84,6.538,0.979,8.339-0.117l20.587-13.354
							c1.683-1.091,2.972-2.692,3.679-4.569l3.246-8.611L133.645,99.017z"/>
						<polygon style="fill:#EBA58E;" points="133.645,99.017 143.266,102.957 141.84,106.739 133.319,99.929 						"/>
					</g>
				</g>
				<g>
					<path style="fill:#454F6B;" d="M157.636,125.296l16.386,37.992c1.06,2.458,2.898,4.499,5.231,5.811l22.87,12.856l5.325-12.529
						l-20.202-12.215l-4.703-34.011L157.636,125.296z"/>
					<polygon style="fill:#677793;" points="207.836,168.512 201.734,182.869 205.962,185.139 212.064,170.782 					"/>
					<g>
						<g>
							<path style="fill:#422C4F;" d="M219.291,180.007l-0.686,3.983c-0.66-0.278-1.424-0.083-1.87,0.478l-1.302,1.637l6.577,14.408
								l0,0l1.309-20.201L219.291,180.007z"/>
							<polygon style="fill:#FFFFFF;" points="225.378,180.467 223.32,180.311 222.011,200.512 224.439,200.512 							"/>
						</g>
						<g>
							<path style="fill:#F2C9AD;" d="M218.605,183.99l0.686-3.983l-2.213-0.167l-6.883-4.661l-3.036,7.145l8.275,3.781l1.302-1.637
								C217.181,183.908,217.945,183.712,218.605,183.99z"/>
							<polygon style="fill:#422C4F;" points="210.196,175.179 209.599,183.438 207.159,182.323 							"/>
						</g>
					</g>
					<path style="fill:#454F6B;" d="M149.659,125.967l-17.618,27.93c-1.637,2.596-2.036,5.784-1.09,8.703l7.902,24.365l13.938-1.826
						l-7.361-25.893l19.247-17.622l-7.042-16.328L149.659,125.967z"/>
					<polygon style="fill:#677793;" points="153.747,185.014 137.897,187.091 139.229,192.181 155.078,190.104 					"/>
					<g>
						<path style="fill:#F2C9AD;" d="M149.072,202.548l3.825,0.173l-0.575-2.382l-1.121-9.727l-8.06,1.056l1.899,8.609l2.408,0.374
							C148.382,200.797,149.072,201.602,149.072,202.548z"/>
						<g>
							<polygon style="fill:#FFFFFF;" points="133.059,207.481 133.059,210.065 154.671,210.065 154.283,208.461 							"/>
							<path style="fill:#422C4F;" d="M152.897,202.721l-3.825-0.173c0-0.946-0.69-1.751-1.625-1.897l-2.408-0.374l-11.98,7.204l0,0
								l21.224,0.98L152.897,202.721z"/>
						</g>
						<polygon style="fill:#422C4F;" points="143.14,191.668 151.2,190.612 151.569,193.808 143.371,192.716 						"/>
					</g>
					<path style="fill:#422C4F;" d="M161.322,133.844l3.355,7.78l-14.802,13.553l5.064-8.52c1.48-2.49,3.994-4.19,6.856-4.636l0,0
						L161.322,133.844z"/>
					<g>
						<polygon style="fill:#422C4F;" points="149.659,125.967 158.223,126.658 157.636,125.296 						"/>
						<polygon style="fill:#422C4F;" points="182.541,123.2 157.636,125.296 158.223,126.658 183.299,128.678 						"/>
					</g>
					<g>
						<polygon style="fill:#454F6B;" points="175.394,123.801 174.449,123.881 175.396,128.042 176.377,128.121 						"/>
						<path style="fill:#5A6784;" d="M184.89,161.083c-0.748-0.46-1.288-1.215-1.483-2.071l-7.03-30.892l-0.981-0.079l7.095,31.179
							c0.25,1.101,0.946,2.071,1.907,2.663l20.812,12.807l0.372-0.875L184.89,161.083z"/>
					</g>
					<path style="fill:#5A6784;" d="M161.288,133.764l-0.413-0.958l-20.45,23.586c-0.72,0.832-0.977,1.961-0.687,3.022l7.246,26.487
						l0.941-0.123l-7.28-26.612c-0.207-0.758-0.024-1.565,0.491-2.159L161.288,133.764z"/>
				</g>
				<g>
					<path style="fill:#6CA8BF;" d="M144.436,69.072l-6.875,9.64l0.785,4.925c0.719,4.512,2.474,8.795,5.126,12.515l0,0
						c3.273,4.59,5.166,10.021,5.456,15.651l0.73,14.165l34.884-2.936l-5.369-18.189c-2.65-8.975-7.315-17.227-13.641-24.123v0
						C159.958,74.64,152.55,70.55,144.436,69.072L144.436,69.072z"/>
					<path style="fill:#468097;" d="M170.387,94.378L170.387,94.378c0.267-0.474,0.844-0.676,1.348-0.472l3.789,1.533
						c-2.594-5.349-5.949-10.313-9.991-14.721c-0.359-0.392-0.727-0.774-1.101-1.149l-12.753,5.718l17.244,9.507
						C169.443,95.081,170.096,94.895,170.387,94.378z"/>
				</g>
				<g>
					<path style="fill:#6CA8BF;" d="M151.679,85.287l16.773,6.501l3.993-13.155l-16.102-5.811c-3.5-1.263-7.356,0.589-8.557,4.111
						l0,0C146.633,80.311,148.351,83.997,151.679,85.287z"/>
					<path style="fill:#F2C9AD;" d="M172.089,79.806l9.309,3.357c3.25,1.172,5.998,3.428,7.78,6.388l11.105,18.445l0.702-0.119
						c3.086-0.525,6.255,0.193,8.812,1.999l0,0l2.929-0.732c0.79-0.197,1.622,0.09,2.121,0.732l0,0l-5.755,4.581l-13.39-3.641
						l-16.796-19.028l-9.643-2.669L172.089,79.806z"/>
					<polygon style="fill:#EBA58E;" points="172.089,79.806 172.445,90 169.262,89.119 					"/>
				</g>
				<g>
					<path style="fill:#BD6C67;" d="M151.891,60.193H110.39c-0.627,0-1.135-0.508-1.135-1.135l0,0c0-0.627,0.508-1.135,1.135-1.135
						h41.501c0.627,0,1.135,0.508,1.135,1.135l0,0C153.026,59.684,152.518,60.193,151.891,60.193z"/>
					<path style="fill:#BD6C67;" d="M142.821,57.922H119.46l3.655-13.155l0,0c5.241-1.534,10.811-1.534,16.052,0l0,0L142.821,57.922
						z"/>
					<path style="fill:#8C404C;" d="M120.48,54.25l-1.02,3.671h23.361l-1.02-3.671C134.775,53.39,127.505,53.39,120.48,54.25z"/>
					<g>
						<path style="fill:#6A3649;" d="M143.786,60.193h-13.625l2.232,2.506l1.306,2.863c0.444,0.973,1.419,1.593,2.489,1.583
							c-0.913-0.817-1.311-2.191-0.904-3.347c0.407-1.156,1.633-1.99,2.852-1.871c1.22,0.118,2.283,1.232,2.277,2.457
							c-0.005,0.916-0.694,1.745-1.207,2.504l3.118,2.039h0C145.09,67.598,147.584,63.638,143.786,60.193z"/>
						<path style="fill:#F2C9AD;" d="M140.412,64.384c0.006-1.225-1.057-2.339-2.277-2.457c-1.22-0.119-2.445,0.715-2.852,1.871
							c-0.407,1.156-0.009,2.529,0.904,3.347c-1.069,0.01-2.045-0.61-2.489-1.583l-1.306-2.863l-2.232-2.506h-1.918h-8.241
							c0,2.179,0.666,4.307,1.91,6.097l0.052,3.778c0.017,1.256,1.239,2.142,2.438,1.768l1.12-0.349l1.186,1.707
							c2.102,3.025,6.396,3.487,9.092,0.976l2.936,2.995l5.099-7.25l-1.511-0.988l-3.118-2.039
							C139.718,66.129,140.408,65.3,140.412,64.384z"/>
					</g>
					<path style="fill:#EBA58E;" d="M136.874,65.234c-0.074-0.415,0.052-0.861,0.331-1.177c0.211-0.238,0.551-0.405,0.849-0.291
						c0.177,0.068,0.31,0.227,0.376,0.405c0.065,0.178,0.068,0.374,0.042,0.563c-0.066,0.468-0.338,0.955-0.728,1.23
						C137.276,66.293,136.945,65.631,136.874,65.234z"/>
					<g>
						<polygon style="fill:#422C4F;" points="143.786,60.193 130.162,60.193 131.744,61.969 						"/>
						<path style="fill:#EBA58E;" d="M130.162,60.193h-1.918h-8.241c0,1.172,0.199,2.327,0.57,3.424l11.172-1.648L130.162,60.193z"
							/>
					</g>
					<polygon style="fill:#422C4F;" points="135.799,74.17 139.167,69.961 137.408,75.811 					"/>
				</g>
				<g>
					<g>
						<path style="fill:#F0BF6C;" d="M176.613,211.944h-59.877c-2.219,0-4.374-0.789-6.068-2.222l-4.37-3.696
							c-0.396-0.335-0.446-0.928-0.111-1.325c0.335-0.396,0.927-0.445,1.325-0.111l4.37,3.696c1.355,1.147,3.079,1.778,4.854,1.778
							h59.877c1.538,0,3.019-0.463,4.283-1.339l4.717-3.27c0.427-0.297,1.011-0.189,1.308,0.237
							c0.296,0.427,0.189,1.012-0.237,1.308l-4.717,3.27C180.386,211.365,178.536,211.944,176.613,211.944z"/>
					</g>
					<g>
						<g>
							<g>
								<path style="fill:#C7D2D7;" d="M127.788,217.622h-5.398v-5.677h9.768l-1.798,4.011
									C129.906,216.969,128.899,217.622,127.788,217.622z"/>
								<polygon style="fill:#99A3B0;" points="132.158,211.944 122.39,211.944 122.39,214.783 130.886,214.783 								"/>
							</g>
							<path style="fill:#E8916A;" d="M125.659,217.622c0,2.227-1.805,4.033-4.033,4.033c-2.227,0-4.033-1.806-4.033-4.033
								c0-2.227,1.805-4.033,4.033-4.033C123.854,213.589,125.659,215.394,125.659,217.622z"/>
							<path style="fill:#CC6164;" d="M123.974,217.622c0,1.297-1.051,2.348-2.348,2.348s-2.348-1.051-2.348-2.348
								c0-1.297,1.051-2.348,2.348-2.348S123.974,216.325,123.974,217.622z"/>
						</g>
						<g>
							<g>
								<path style="fill:#C7D2D7;" d="M165.266,217.622h5.398v-5.677h-9.768l1.798,4.011
									C163.148,216.969,164.156,217.622,165.266,217.622z"/>
								<polygon style="fill:#99A3B0;" points="160.896,211.944 170.664,211.944 170.664,214.783 162.168,214.783 								"/>
							</g>
							<path style="fill:#E8916A;" d="M167.395,217.622c0,2.227,1.805,4.033,4.033,4.033s4.033-1.806,4.033-4.033
								c0-2.227-1.805-4.033-4.033-4.033S167.395,215.394,167.395,217.622z"/>
							<path style="fill:#CC6164;" d="M169.08,217.622c0,1.297,1.051,2.348,2.348,2.348c1.297,0,2.348-1.051,2.348-2.348
								c0-1.297-1.051-2.348-2.348-2.348C170.131,215.274,169.08,216.325,169.08,217.622z"/>
						</g>
					</g>
				</g>
			</g>
			<g>
				<path style="fill:#6BC3C0;" d="M228.53,222.476L228.53,222.476c0-0.454-0.368-0.822-0.822-0.822H100.406
					c-0.454,0-0.822,0.368-0.822,0.822l0,0c0,0.454,0.368,0.822,0.822,0.822h15.348c0.454,0,0.822,0.368,0.822,0.822l0,0
					c0,0.454-0.368,0.822-0.822,0.822h-6.225c-0.454,0-0.822,0.368-0.822,0.822l0,0c0,0.454,0.368,0.822,0.822,0.822h100.448
					c0.454,0,0.822-0.368,0.822-0.822l0,0c0-0.454-0.368-0.822-0.822-0.822h-8.187c-0.454,0-0.822-0.368-0.822-0.822l0,0
					c0-0.454,0.368-0.822,0.822-0.822h25.918C228.162,223.298,228.53,222.93,228.53,222.476z"/>
				<path style="fill:#6BC3C0;" d="M220.739,226.587h-5.677c-0.454,0-0.822-0.368-0.822-0.822l0,0c0-0.454,0.368-0.822,0.822-0.822
					h5.677c0.454,0,0.822,0.368,0.822,0.822l0,0C221.561,226.219,221.193,226.587,220.739,226.587z"/>
				<path style="fill:#6BC3C0;" d="M104.41,226.587h1.116c0.454,0,0.822-0.368,0.822-0.822l0,0c0-0.454-0.368-0.822-0.822-0.822
					h-1.116c-0.454,0-0.822,0.368-0.822,0.822l0,0C103.587,226.219,103.955,226.587,104.41,226.587z"/>
			</g>
		</g>
	</g>
	<g>
		<g>
			<path style="fill:#FBEED1;" d="M423.425,221.654c18.259-21.063,22.493-53.306,9.272-77.846
				c-3.993-7.412-9.299-14.028-13.739-21.182c-4.44-7.154-8.079-15.148-8.158-23.567c-0.067-7.216,2.473-14.161,4.086-21.195
				c1.614-7.034,2.201-14.843-1.427-21.081c-5.049-8.68-16.944-11.348-26.615-8.644c-9.671,2.704-17.57,9.551-24.883,16.434
				c-7.312,6.883-14.63,14.162-23.866,18.105c-5.955,2.542-12.433,3.569-18.616,5.492c-6.183,1.923-12.376,5.002-15.945,10.406
				c-4.61,6.981-3.825,16.208-1.59,24.269c2.235,8.061,5.759,15.903,6.127,24.261c0.382,8.683-2.678,17.106-5.703,25.255
				c-3.025,8.148-6.104,16.561-5.761,25.246c0.343,8.685,5.695,21.134,13.884,24.049H423.425z"/>
			<path style="fill:#FBEED1;" d="M333.329,77.05c-3.78,1.301-7.898,1.891-11.796,1.003c-3.898-0.888-7.537-3.406-9.166-7.057
				c-1.762-3.949-0.968-8.679,1.128-12.461c2.096-3.782,5.349-6.777,8.669-9.548c3.289-2.745,6.75-5.371,10.699-7.032
				s8.469-2.29,12.544-0.966c5.641,1.832,10.34,7.87,8.7,13.815c-1.794,6.502-5.746,12.401-10.933,16.685
				C340.252,73.9,336.914,75.816,333.329,77.05z"/>
			<circle style="fill:#FBEED1;" cx="366.897" cy="37.896" r="7.537"/>
		</g>
		<g>
			<g>
				<path style="fill:#E8916A;" d="M299.862,222.476L299.862,222.476c0-0.454,0.368-0.822,0.822-0.822h127.302
					c0.454,0,0.822,0.368,0.822,0.822l0,0c0,0.454-0.368,0.822-0.822,0.822h-15.348c-0.454,0-0.822,0.368-0.822,0.822l0,0
					c0,0.454,0.368,0.822,0.822,0.822h6.225c0.454,0,0.822,0.368,0.822,0.822l0,0c0,0.454-0.368,0.822-0.822,0.822H318.416
					c-0.454,0-0.822-0.368-0.822-0.822l0,0c0-0.454,0.368-0.822,0.822-0.822h8.187c0.454,0,0.822-0.368,0.822-0.822l0,0
					c0-0.454-0.368-0.822-0.822-0.822h-25.918C300.23,223.298,299.862,222.93,299.862,222.476z"/>
				<path style="fill:#E8916A;" d="M307.653,226.587h5.677c0.454,0,0.822-0.368,0.822-0.822l0,0c0-0.454-0.368-0.822-0.822-0.822
					h-5.677c-0.454,0-0.822,0.368-0.822,0.822l0,0C306.831,226.219,307.199,226.587,307.653,226.587z"/>
				<path style="fill:#E8916A;" d="M423.983,226.587h-1.116c-0.454,0-0.822-0.368-0.822-0.822l0,0c0-0.454,0.368-0.822,0.822-0.822
					h1.116c0.454,0,0.822,0.368,0.822,0.822l0,0C424.805,226.219,424.437,226.587,423.983,226.587z"/>
			</g>
			<g>
				<g>
					<g>
						<g>
							<polygon style="fill:#F1C6C7;" points="304.098,149.889 305.826,151.08 298.419,170.367 295.465,169.974 							"/>
							<path style="fill:#E36B85;" d="M313.357,156.271c-1.449,2.31,0.078,5.599,0.078,5.599l-6.733,3.758
								c-0.874,0.488-1.613,1.188-2.148,2.034c-1.226,1.941-3.452,3.012-5.734,2.759l-0.403-0.054l7.407-19.287L313.357,156.271z"/>
						</g>
						<g>
							<path style="fill:#BD6C67;" d="M313.357,156.271c8.77,2.427,21.925-2.858,32.026,4.307c0.47-6.108,2.466-16.917,2.466-16.917
								l20.039,8.968l-9.623,18.337c-1.989,3.79-6.497,5.497-10.497,3.974l-34.333-13.07
								C313.435,161.87,311.909,158.581,313.357,156.271z"/>
							<g>
								<path style="fill:#422C4F;" d="M347.85,143.661l20.039,8.968l-4.922,9.38l-16.194-12.053
									C347.339,146.429,347.85,143.661,347.85,143.661z"/>
								<path style="fill:#FFFFFF;" d="M338.039,157.374c-3.024,3.21-4.812,7.57-4.951,11.977l-2.673-1.018
									c0.217-4.208,1.928-8.341,4.776-11.446C336.147,157,337.098,157.161,338.039,157.374z"/>
								<path style="fill:#7DD3E9;" d="M335.191,156.887c-2.847,3.105-4.559,7.239-4.776,11.446l-2.669-1.016
									c0.279-3.892,1.829-7.696,4.369-10.657C333.143,156.696,334.17,156.766,335.191,156.887z"/>
								<path style="fill:#FFFFFF;" d="M313.357,156.271c5.222,1.445,11.998,0.157,18.758,0.39c-2.54,2.961-4.09,6.765-4.369,10.657
									l-14.311-5.448C313.435,161.87,311.909,158.581,313.357,156.271z"/>
							</g>
						</g>
					</g>
					<polygon style="fill:#5FA5CC;" points="348.085,135.677 345.971,145.896 370.338,155.096 370.857,142.902 					"/>
				</g>
				<g>
					<path style="fill:#8C404C;" d="M423.412,90.958c-2.74,4.667-8.496,6.382-8.496,6.382l-5.011-3.32l4.365-7.85L423.412,90.958z"
						/>
					<path style="fill:#A64F5A;" d="M414.312,83.666l0.135-0.23l8.965,7.522l-0.582,0.424c-2.222,1.621-5.272,1.481-7.337-0.336l0,0
						C413.382,89.188,412.886,86.092,414.312,83.666z"/>
					<g>
						<path style="fill:#BD6C67;" d="M370.618,87.207L370.618,87.207c3.641-0.817,7.432,0.472,9.82,3.339l15.53,18.649
							l13.938-15.176l-0.477-4.652c-0.093-0.907,0.283-1.799,0.996-2.367l0,0c1.081-0.859,2.639-0.754,3.595,0.243l3.794,3.957l0,0
							c-1.053,0.655-2.388,0.648-3.433-0.019l-0.952-0.607c2.427,2.819,1.958,5.623,1.488,6.766l-14.335,19.607
							c-1.968,2.692-5.83,3.097-8.313,0.872l-15.726-14.089L370.618,87.207z"/>
						<path style="fill:#A64F5A;" d="M372.258,91.781l4.768,2.547l5.542,8.27c1.432,2.137,1.755,4.832,0.869,7.247l-0.017,0.046
							l-6.877-6.161L372.258,91.781z"/>
					</g>
				</g>
				<g>
					<path style="fill:#422C4F;" d="M334.444,71.09c-0.723,0.366-0.683,1.421,0.073,1.715c1.078,0.419,2.255,0.632,3.412,0.746
						c4.994,0.491,10.136-0.659,14.446-3.23c5.427-3.238,9.497-8.708,10.896-14.895c0.356-1.577,0.096-3.272-0.85-4.583
						c-1.708-2.368-4.823-3.494-7.729-3.204c-2.912,0.291-5.594,1.854-7.658,3.929c-2.063,2.076-3.565,4.642-4.846,7.273
						c-1.281,2.632-2.365,5.358-3.725,7.95c-0.552,1.051-1.159,2.094-2.013,2.918C335.989,70.153,335.231,70.691,334.444,71.09z"/>
					<path style="fill:#E68799;" d="M361.76,56.3c-1.098,1.902-0.775,4.144,0.722,5.008c1.497,0.864,3.6,0.023,4.698-1.879
						c1.098-1.902,0.775-4.144-0.722-5.008C364.962,53.557,362.858,54.398,361.76,56.3z"/>
					<path style="fill:#422C4F;" d="M385.005,61.054c0.819-1.46,1.085-2.981,0.429-4.521c-0.656-1.54-1.88-2.79-3.282-3.704
						c-3.138-2.047-7.234-2.465-10.79-1.282c-3.555,1.183-6.534,3.894-8.229,7.235c-1.696,3.341-2.134,7.267-1.422,10.945
						c0.345,1.782,0.982,3.565,2.214,4.898c1.232,1.333,3.15,2.134,4.906,1.672c3.589-0.944,7.178-2.513,9.716-5.221
						C381.084,68.367,383.189,64.291,385.005,61.054z"/>
					<path style="fill:#BD6C67;" d="M385.005,61.054l0.267,1.03c0.57,2.202,0.582,4.511,0.035,6.718l-0.302,1.217l1.246,4.181
						c0.249,0.836-0.416,1.662-1.286,1.598l-1.37-0.102l-0.601,2.482c-0.648,2.676-3.433,4.237-6.054,3.392l-2.193-0.707
						l-3.132,5.755l-7.556-4.033l4.17-7.282c-0.674-0.774-1.527-1.682-1.938-2.623c-0.41-0.941-0.526-2.061-0.071-2.982
						c0.506-1.025,1.678-1.638,2.821-1.606c1.142,0.032,2.225,0.649,2.953,1.53s1.126,2.002,1.271,3.136
						c0.402-0.984,0.607-2.17,0.4-3.213c2.43-1.518,4.015-4.662,3.447-7.47C379.537,61.141,382.405,61.054,385.005,61.054z"/>
					<polygon style="fill:#422C4F;" points="374.747,80.865 370.01,78.985 373.348,83.436 					"/>
					<path style="fill:#A64F5A;" d="M370.096,70.696c-0.315-0.327-0.825-0.486-1.244-0.312c-0.383,0.159-0.625,0.562-0.689,0.973
						c-0.084,0.54,0.113,1.116,0.509,1.492c0.396,0.376,1.372,0.769,1.746,0.157C370.804,72.374,370.593,71.211,370.096,70.696z"/>
				</g>
				<g>
					<path style="fill:#E68799;" d="M364.059,82.587l7.556,4.033l0,0c2.348,2.14,4.196,4.772,5.411,7.707l3.629,8.77
						c0.972,2.348,0.091,5.054-2.076,6.38l0,0c-0.962,0.589-1.705,1.476-2.115,2.526l-5.24,13.415l-19.341-3.132l0.76-5.583
						c0.534-3.927,0.434-7.913-0.296-11.808l-2.156-11.503l9.288-11.354L364.059,82.587z"/>
					<path style="fill:#F1C6C7;" d="M364.059,82.587c4.894,14.251-5.366,25.4-13.352,13.562l-0.517-2.756l9.288-11.354
						L364.059,82.587z"/>
					<path style="fill:#E36B85;" d="M359.976,107.292c1.722-0.761,3.687-0.85,5.375-0.016c2.247,1.11,4.843,1.526,7.322,1.157
						c1.096-0.163,2.222,0.172,3.036,0.925c0.495,0.458,1.065,0.841,1.673,1.142c-0.314,0.361-0.568,0.769-0.772,1.205l-16.664-4.4
						L359.976,107.292z"/>
					<g>
						<path style="fill:#E36B85;" d="M351.323,99.436l-0.616-3.287c0.615,0.912,1.244,1.672,1.878,2.32
							C352.141,98.828,351.72,99.15,351.323,99.436z"/>
						<path style="fill:#E68799;" d="M354.451,96.841c-0.659,0.619-1.28,1.153-1.866,1.628c-0.634-0.648-1.263-1.408-1.878-2.32
							l-0.517-2.756l0.771-0.943l3.489-0.177V96.841z"/>
					</g>
				</g>
				<g>
					<path style="fill:#BD6C67;" d="M352.548,93.863l-18.088,5.168l-8.962,25.891c-0.351,1.014-1.119,1.829-2.109,2.241
						l-6.381,2.652c-0.674,0.28-1.45,0.144-1.989-0.348l-2.039-1.865c-0.472-0.432-0.227-1.218,0.407-1.305l2.692-0.369
						c1.116-2.467,3.993-3.465,5.873-3.171l3.338-24.886c0.336-2.503,1.905-4.669,4.178-5.768l22.78-11.013
						c2.749-1.329,5.956-1.33,8.706-0.002l3.105,1.5c1.069,3.564,0.705,7.492-0.688,10.942c-0.644,1.595-1.604,3.154-3.101,4.001
						c-1.349,0.763-3.06,0.849-4.478,0.224C354.373,97.13,352.895,95.373,352.548,93.863z"/>
					<path style="fill:#A64F5A;" d="M358.112,92.273c-1.031,1.642-2.268,3.189-3.661,4.568c-0.906-0.821-1.667-1.952-1.903-2.978
						l-2.358,0.674l0,0L358.112,92.273z"/>
				</g>
				<g>
					<g>
						<path style="fill:#BD6C67;" d="M358.93,149.928l15.935-17.07c9.55,7.294,17.357,16.463,21.739,22.117
							c2.502,3.228,4.058,7.086,4.532,11.143l5.09,43.556l-0.162,0.059c-1.854,0.674-3.874,0.742-5.769,0.194l-0.333-0.096
							c-2.819-14.173-12.842-19.967-15.191-42.832C375.06,159.638,358.93,149.928,358.93,149.928z"/>
						<g>
							<path style="fill:#7DD3E9;" d="M403.771,188.673l0.358,3.062c-3.644,0.962-7.421,1.42-11.191,1.363
								c-0.506-0.951-1.013-1.926-1.515-2.934C395.583,190.29,399.762,189.788,403.771,188.673z"/>
							<path style="fill:#FFFFFF;" d="M404.129,191.734l2.096,17.939l-0.162,0.059c-1.854,0.674-3.874,0.742-5.769,0.194
								l-0.333-0.096c-1.298-6.525-4.123-11.277-7.023-16.733C396.707,193.154,400.484,192.696,404.129,191.734z"/>
							<path style="fill:#422C4F;" d="M370.695,146.953c0,1.627-0.598,3.196-1.68,4.411l-2.76,3.099
								c-4.261-2.69-7.325-4.535-7.325-4.535l15.935-17.07c2.415,1.845,4.717,3.809,6.882,5.806l-5.969,6.141
								C374.443,146.178,372.61,146.953,370.695,146.953z"/>
							<path style="fill:#FFFFFF;" d="M403.413,185.611l0.358,3.062c-4.009,1.116-8.188,1.617-12.349,1.491
								c-0.47-0.942-0.934-1.916-1.389-2.93C394.543,187.426,399.083,186.879,403.413,185.611z"/>
						</g>
						<g>
							<path style="fill:#E36B85;" d="M406.063,209.732l0.162-0.059l5.575,3.87c0.715,0.496,1.51,0.866,2.35,1.093l0.861,0.233
								c2.307,0.623,4.186,2.295,5.073,4.514h-21.142l1.018-9.553l0.333,0.096C402.189,210.475,404.209,210.407,406.063,209.732z"/>
							<polygon style="fill:#F1C6C7;" points="420.946,221.654 398.63,221.654 398.943,219.383 420.085,219.383 							"/>
						</g>
					</g>
					<g>
						<g>
							<path style="fill:#7DD3E9;" d="M368.404,143.194L368.404,143.194c0.248,2.531-0.637,5.043-2.417,6.859l-4.943,5.043
								l-10.096-10.798c-4.609-4.929-5.122-12.417-1.229-17.929l0.257-0.364c0.642-0.909,1.176-1.891,1.589-2.925l0.317-0.793
								l10.294,1.667L368.404,143.194z"/>
							<path style="fill:#FFFFFF;" d="M367.479,143.384l-6.239-19.582l0.937,0.152l6.228,19.24c0.248,2.531-0.637,5.043-2.417,6.859
								l-4.943,5.043l-0.604-0.646l4.877-5.055C366.883,147.797,367.668,145.611,367.479,143.384z"/>
						</g>
						<path style="fill:#7DD3E9;" d="M371.223,125.419l10.258,9.945l-7.986,7.498c-1.434,1.346-3.408,1.959-5.352,1.66h0
							c-1.62-0.249-3.084-1.111-4.087-2.407l-0.896-1.157c-3.555-4.591-5.483-10.232-5.483-16.038v-1.694L371.223,125.419z"/>
						<path style="fill:#FFFFFF;" d="M358.616,123.378v1.542c0,5.569,1.877,11.061,5.287,15.463l0.896,1.157
							c0.86,1.111,2.099,1.841,3.487,2.054c0.273,0.042,0.552,0.063,0.829,0.063c1.394,0,2.722-0.525,3.738-1.48l8.001-7.422
							l0.628,0.609l-7.986,7.498c-1.434,1.346-3.408,1.958-5.352,1.66c-1.62-0.249-3.084-1.111-4.087-2.407l-0.896-1.157
							c-3.555-4.591-5.483-10.232-5.483-16.038v-1.694L358.616,123.378z"/>
					</g>
				</g>
			</g>
		</g>
	</g>
	<g>
		<g>
			<path style="fill:#EFEDD3;" d="M93.364,464.708c-17.604-22.849-26.85-52.21-27.651-81.043
				c-0.801-28.833,7.75-57.852,24.058-81.643c9.35-13.64,22.058-26.083,38.141-29.929c16.083-3.846,35.592,3.656,40.806,19.349
				c2.471,7.437,1.562,15.5,1.619,23.337c0.057,7.836,1.459,16.363,7.238,21.656c8.266,7.571,21.761,5.431,31.282,11.346
				c9.445,5.867,12.631,18.061,13.433,29.151c2.231,30.832-8.177,64.377-28.376,87.776H93.364z"/>
			<path style="fill:#EFEDD3;" d="M181.508,326.344c1.759,3.893,4.528,7.568,8.474,9.205c3.946,1.637,9.169,0.618,11.343-3.059
				c1.429-2.417,1.34-5.406,1.208-8.211c-0.259-5.487-0.518-10.974-0.777-16.461c-0.128-2.713-0.278-5.513-1.474-7.951
				c-1.609-3.278-5.145-5.517-8.797-5.569C176.567,294.086,177.426,317.308,181.508,326.344z"/>
			<path style="fill:#EFEDD3;" d="M194.77,282.097c0,3.793-3.075,6.868-6.868,6.868c-3.793,0-6.868-3.075-6.868-6.868
				c0-3.793,3.075-6.868,6.868-6.868C191.695,275.229,194.77,278.304,194.77,282.097z"/>
		</g>
		<g>
			<g>
				<path style="fill:#6C9D7C;" d="M205.733,465.53L205.733,465.53c0-0.454-0.368-0.822-0.822-0.822H87.423
					c-0.454,0-0.822,0.368-0.822,0.822v0c0,0.454,0.368,0.822,0.822,0.822h15.348c0.454,0,0.822,0.368,0.822,0.822l0,0
					c0,0.454-0.368,0.822-0.822,0.822h-6.225c-0.454,0-0.822,0.368-0.822,0.822l0,0c0,0.454,0.368,0.822,0.822,0.822h90.634
					c0.454,0,0.822-0.368,0.822-0.822l0,0c0-0.454-0.368-0.822-0.822-0.822h-8.187c-0.454,0-0.822-0.368-0.822-0.822l0,0
					c0-0.454,0.368-0.822,0.822-0.822h25.918C205.365,466.352,205.733,465.984,205.733,465.53z"/>
				<path style="fill:#6C9D7C;" d="M197.942,469.641h-5.677c-0.454,0-0.822-0.368-0.822-0.822l0,0c0-0.454,0.368-0.822,0.822-0.822
					h5.677c0.454,0,0.822,0.368,0.822,0.822l0,0C198.764,469.273,198.396,469.641,197.942,469.641z"/>
				<path style="fill:#6C9D7C;" d="M91.426,469.641h1.116c0.454,0,0.822-0.368,0.822-0.822l0,0c0-0.454-0.368-0.822-0.822-0.822
					h-1.116c-0.454,0-0.822,0.368-0.822,0.822l0,0C90.604,469.273,90.972,469.641,91.426,469.641z"/>
			</g>
			<g>
				<g>
					<path style="fill:#468094;" d="M171.689,363.084h-33.307c-5.077,0-9.194-4.116-9.194-9.194v-61.08
						c0-5.077,4.116-9.194,9.194-9.194h33.307c5.077,0,9.194,4.116,9.194,9.194v61.08
						C180.882,358.968,176.766,363.084,171.689,363.084z"/>
					<path style="fill:#6CA8BC;" d="M171.689,363.084L171.689,363.084c5.077,0,9.194-4.116,9.194-9.194v-61.08
						c0-5.077-4.116-9.194-9.194-9.194l0,0c-5.077,0-9.194,4.116-9.194,9.194v61.08
						C162.495,358.968,166.611,363.084,171.689,363.084z"/>
				</g>
				<g>
					<path style="fill:#F0BF6C;" d="M137.293,296.693l-6.043,1.372l-4.292,8.215c-2.041,3.905-2.594,8.418-1.557,12.701
						l4.042,16.696c0.172,0.712,0.129,1.459-0.124,2.146l-0.255,0.693c-0.518,1.406-0.135,2.986,0.969,3.999l0.511,0.469h29.467
						l1.117-1.734c0.825-1.28,0.78-2.936-0.114-4.169l0,0c-0.636-0.878-0.855-1.99-0.598-3.043l3.881-15.913l-3.343-21.431
						l-12.422-1.329L137.293,296.693z"/>
					<polygon style="fill:#EBA25D;" points="140.666,301.45 140.666,310.509 137.951,319.173 140.666,328.924 139.308,336.896 
						140.666,342.983 137.951,336.896 139.8,329.246 136.2,319.173 139.736,310.509 139.157,306.326 					"/>
					<g>
						<rect x="125.175" y="315.166" style="fill:#F5D896;" width="8.025" height="9.579"/>
						<polygon style="fill:#FAECCB;" points="133.742,315.905 129.098,318.38 124.453,315.905 124.453,312.559 133.742,312.559 
													"/>
					</g>
					<g>
						<rect x="146.39" y="315.166" style="fill:#F5D896;" width="9.997" height="9.579"/>
						<polygon style="fill:#FAECCB;" points="157.062,315.905 151.276,318.38 145.49,315.905 145.49,312.559 157.062,312.559 						
							"/>
					</g>
				</g>
				<g>
					<g>
						<path style="fill:#EBA58E;" d="M101.804,300.25l-6.362,23.197c-1.157,4.217,0.86,8.66,4.796,10.566l0.002,0.001
							c3.286,1.591,7.205,1.058,9.946-1.353l2.591-2.279l-6.429-6.686v-22.186L101.804,300.25L101.804,300.25z"/>
						<polygon style="fill:#E78882;" points="106.347,323.695 106.347,330.467 107.847,327.739 112.776,330.382 						"/>
					</g>
					<g>
						<path style="fill:#F0BF6C;" d="M126.253,299.27l-0.3,0.033c-3.742,0.411-7.121,2.425-9.262,5.52l-9.144,13.214l9.353,8.915
							l7.02-7.779l-0.771-7.736L126.253,299.27z"/>
						<polygon style="fill:#F5D896;" points="106.347,316.894 117.725,327.739 113.742,331.386 106.347,323.695 						"/>
						<path style="fill:#EBA25D;" d="M116.9,326.953l7.02-7.779l-0.771-7.736l1.304-5.111l-2.415,1.964
							C118.691,313.494,116.824,320.523,116.9,326.953z"/>
					</g>
				</g>
				<g>
					<g>
						<polygon style="fill:#EBA58E;" points="137.293,296.693 140.666,301.45 147.279,293.95 146.422,287.092 137.293,291.421 
													"/>
						<path style="fill:#422C4F;" d="M145.728,287.421L145.728,287.421l-8.435,4v5.272
							C141.772,298.922,146.282,295.081,145.728,287.421z"/>
					</g>
					<polygon style="fill:#F5D896;" points="137.293,296.693 135.235,306.326 140.666,301.45 					"/>
					<polygon style="fill:#F5D896;" points="147.279,293.95 140.666,301.45 146.744,307.644 148.53,295.364 					"/>
				</g>
				<path style="fill:#6CA8BC;" d="M160.952,296.693l-0.13,0.158c-1.722,2.087-2.503,4.793-2.159,7.476l0.77,5.997
					c0.154,1.203,0.531,2.367,1.111,3.432l6.271,11.526l0,0c-1.809,0-3.519-0.823-4.647-2.236l-6.14-7.689
					c-1.151-1.441-1.871-3.177-2.078-5.01l-0.727-6.436c-0.321-2.84,0.616-5.679,2.564-7.771l0,0
					C157.566,294.978,160.952,296.693,160.952,296.693z"/>
				<path style="fill:#6CA8BC;" d="M127.52,327.739l-2.121-8.759c-1.037-4.282-0.483-8.796,1.557-12.701l4.292-8.215
					c0,0-2.615-1.543-4.366,0l-3.396,6.499c-2.566,4.912-2.753,10.725-0.507,15.792l2.76,6.226
					C126.052,327.285,126.75,327.739,127.52,327.739L127.52,327.739z"/>
				<g>
					<path style="fill:#422C4F;" d="M129.123,282.334c-1.664-0.931-2.788-2.761-2.866-4.666c-0.078-1.905,0.893-3.82,2.475-4.884
						c-1.591-1.911-2.23-4.349-1.419-6.699c0.811-2.35,2.909-4.21,5.34-4.733c2.431-0.523,5.108,0.309,6.814,2.117
						c1.342,1.422,2.236,3.473,4.097,4.074c2.293,0.74,4.668-1.174,7.068-0.963c1.644,0.145,3.089,1.327,3.807,2.813
						c0.718,1.486,0.777,3.227,0.44,4.843c-0.337,1.616-1.044,3.129-1.811,4.59c-1.234,2.353-2.704,4.688-4.904,6.178
						c-3.107,2.104-7.182,2.183-10.864,1.461C134.264,285.87,131.825,283.845,129.123,282.334z"/>
					<path style="fill:#EBA58E;" d="M129.192,274.212l-0.842,3.658c-0.544,2.365-0.468,4.829,0.221,7.156l1.283,4.329
						c1.056,3.564,4.331,6.009,8.048,6.009l0,0c3.404,0,6.471-2.056,7.764-5.204l1.269-3.09c1.624,1.853,5.346,1.621,5.747-1.751
						c0.087-0.735,0.011-1.504-0.373-2.137c-0.376-0.62-0.971-1.121-1.668-1.326c-0.896-0.264-1.893-0.018-2.658,0.518
						c-0.765,0.536-1.316,1.333-1.699,2.185c-0.196-0.771-0.434-1.525-0.63-2.296c-1.382-0.814-2.494-2.545-2.947-4.083
						c-0.453-1.539-0.298-3.248,0.423-4.681c-1.017-0.374-2.349-0.029-3.326,0.44c-0.977,0.469-1.859,1.123-2.852,1.557
						C134.544,276.548,131.217,275.887,129.192,274.212z"/>
					<path style="fill:#E78882;" d="M148.569,284.496c0.128-0.461,0.554-0.826,1.03-0.874c0.476-0.048,0.97,0.227,1.174,0.66
						c0.204,0.433,0.099,0.992-0.252,1.318c-0.335,0.311-1.005,0.405-1.435,0.235C148.611,285.648,148.446,284.939,148.569,284.496z
						"/>
				</g>
				<g>
					<g>
						<path style="fill:#A64F5A;" d="M130.542,342.983l-0.134,0.267c-3.424,6.837-4.928,14.476-4.349,22.1l6.776,89.328h12.687
							V377.7l9.429,76.978h13.03v-87.005c0-8.863-2.789-17.501-7.972-24.69l0,0H130.542z"/>
						<path style="fill:#422C4F;" d="M145.522,377.7l-1.743-14.226l-9.23-2.232l7.029,6.601l-0.216,0.393
							c-1.346,2.453-1.245,5.445,0.265,7.801l0,0c1.169,1.823,1.509,4.057,0.936,6.146l-1.081,3.937
							c-0.276,1.006-0.343,2.058-0.197,3.092l4.236,29.979V377.7z"/>
						<path style="fill:#422C4F;" d="M143.779,363.474l14.001-3.432l-2.609,2.014C151.915,364.567,147.551,365.111,143.779,363.474
							L143.779,363.474z"/>
					</g>
					<g>
						<path style="fill:#454F6B;" d="M143.379,454.678h-10.544l-2.375,2.54c-0.836,0.895-2.006,1.403-3.231,1.403l0,0
							c-2.443,0-4.423,1.98-4.423,4.423v0.206h21.965L143.379,454.678z"/>
						<polygon style="fill:#422C4F;" points="122.806,463.251 122.806,464.708 135.387,464.708 138.279,463.251 						"/>
						<polygon style="fill:#422C4F;" points="144.771,463.251 138.279,463.251 138.279,464.708 145.008,464.708 						"/>
					</g>
					<g>
						<path style="fill:#454F6B;" d="M166.095,454.678h-10.544l-2.375,2.54c-0.837,0.895-2.007,1.403-3.231,1.403h0
							c-2.443,0-4.423,1.98-4.423,4.423v0.206h21.965L166.095,454.678z"/>
						<polygon style="fill:#422C4F;" points="145.522,463.251 145.522,464.708 158.104,464.708 160.995,463.251 						"/>
						<polygon style="fill:#422C4F;" points="167.487,463.251 160.995,463.251 160.995,464.708 167.724,464.708 						"/>
					</g>
				</g>
				<g>
					<rect x="110.17" y="277.491" style="fill:#797C99;" width="4.149" height="187.217"/>
					<path style="fill:#422C4F;" d="M114.319,299.516c-1.099,1.678-2.512,3.151-4.148,4.309v-13.304h4.148V299.516z"/>
				</g>
				<path style="fill:#EBA58E;" d="M116.203,295.561l-0.793-7.139c-0.075-0.672-0.765-1.09-1.395-0.845l-5.236,2.036
					c-0.797,0.31-1.462,0.886-1.883,1.63l-5.093,9.007l4.543,1.259l0,0c0,0,6.086-2.588,7.972-4.816v2.577l0.169-0.109
					C115.698,298.384,116.362,296.989,116.203,295.561z"/>
				<g>
					<g>
						<path style="fill:#F0BF6C;" d="M160.952,296.693L160.952,296.693c3.421-0.786,6.947,0.803,8.626,3.885l11.305,20.76
							l-12.087,7.586l-8.252-15.168c-0.58-1.065-0.956-2.229-1.111-3.432l-0.77-5.997c-0.344-2.683,0.437-5.389,2.159-7.476
							L160.952,296.693z"/>
						
							<rect x="167.606" y="324.754" transform="matrix(0.847 -0.5316 0.5316 0.847 -147.0022 143.7142)" style="fill:#F5D896;" width="17.088" height="4.933"/>
					</g>
					<g>
						<g>
							<path style="fill:#E78882;" d="M155.744,345.704l-3.086,4.266c-0.77,1.064-0.782,2.5-0.029,3.576l0.962,1.376
								c0.87,1.245,2.516,1.672,3.881,1.007l2.515-1.225C159.987,354.705,156.387,351.362,155.744,345.704z"/>
							<path style="fill:#EBA58E;" d="M184.264,328.463l-1.494-2.485l-10.979,6.891l-9.425,14.893l-6.622-2.057
								c0.643,5.658,4.242,9.001,4.242,9.001l1.366-0.163c1.827-0.218,3.406-1.375,4.164-3.051l17.684-15.91
								C185.214,333.769,185.66,330.784,184.264,328.463z"/>
						</g>
						<polygon style="fill:#E78882;" points="182.77,325.978 171.791,332.868 170.121,335.507 177.282,331.817 						"/>
					</g>
				</g>
			</g>
		</g>
	</g>
	<g>
		<g>
			<path style="fill:#E5DCFF;" d="M416.808,464.708h-95.776c-13.233-13.996-17.744-36.863-11.775-55.175
				c2.86-8.773,8.019-17.049,8.237-26.274c0.266-11.276-6.839-21.202-13.27-30.468c-6.431-9.265-12.764-20.038-10.705-31.127
				c1.831-9.859,9.986-17.38,18.731-22.287c8.745-4.906,18.462-7.96,27.001-13.217c8.882-5.47,16.17-13.123,24.193-19.79
				c8.023-6.667,17.333-12.559,27.731-13.387c10.399-0.828,21.889,4.837,24.783,14.859c4.102,14.206-9.86,28.772-6.435,43.157
				c2.13,8.948,10.279,14.884,16.441,21.714c15.275,16.931,19.144,41.78,15.519,64.294
				C437.856,419.519,426.881,444.25,416.808,464.708z"/>
			<path style="fill:#E5DCFF;" d="M322.729,287.829c-4.87,1.233-10.787,0.98-13.951-2.922c-2.454-3.026-2.471-7.507-0.895-11.069
				c1.575-3.563,4.491-6.354,7.555-8.759c3.155-2.477,6.616-4.686,10.491-5.724c3.875-1.038,8.23-0.789,11.607,1.376
				c5.535,3.547,6.608,10.673,2.756,15.604C335.911,281.94,329.632,286.082,322.729,287.829z"/>
			
				<ellipse transform="matrix(0.1596 -0.9872 0.9872 0.1596 52.9995 682.2379)" style="fill:#E5DCFF;" cx="427.213" cy="309.99" rx="10.953" ry="10.953"/>
			<path style="fill:#E5DCFF;" d="M428.843,287.519c0,2.428-1.969,4.397-4.397,4.397c-2.428,0-4.397-1.969-4.397-4.397
				c0-2.428,1.969-4.397,4.397-4.397C426.874,283.122,428.843,285.091,428.843,287.519z"/>
		</g>
		<g>
			<g>
				<path style="fill:#6C6FC3;" d="M433.401,465.53L433.401,465.53c0-0.454-0.368-0.822-0.822-0.822H315.091
					c-0.454,0-0.822,0.368-0.822,0.822v0c0,0.454,0.368,0.822,0.822,0.822h15.348c0.454,0,0.822,0.368,0.822,0.822l0,0
					c0,0.454-0.368,0.822-0.822,0.822h-6.225c-0.454,0-0.822,0.368-0.822,0.822l0,0c0,0.454,0.368,0.822,0.822,0.822h90.634
					c0.454,0,0.822-0.368,0.822-0.822l0,0c0-0.454-0.368-0.822-0.822-0.822h-8.187c-0.454,0-0.822-0.368-0.822-0.822l0,0
					c0-0.454,0.368-0.822,0.822-0.822h25.919C433.033,466.352,433.401,465.984,433.401,465.53z"/>
				<path style="fill:#6C9D7C;" d="M425.61,469.641h-5.677c-0.454,0-0.822-0.368-0.822-0.822l0,0c0-0.454,0.368-0.822,0.822-0.822
					h5.677c0.454,0,0.822,0.368,0.822,0.822l0,0C426.432,469.273,426.064,469.641,425.61,469.641z"/>
				<path style="fill:#6C9D7C;" d="M319.094,469.641h1.116c0.454,0,0.822-0.368,0.822-0.822l0,0c0-0.454-0.368-0.822-0.822-0.822
					h-1.116c-0.454,0-0.822,0.368-0.822,0.822l0,0C318.272,469.273,318.64,469.641,319.094,469.641z"/>
			</g>
			<g>
				<path style="fill:#8C404C;" d="M352.232,259.999c-3.235,1.806-4.919,5.481-5.989,9.027c-1.07,3.547-1.786,7.31-3.917,10.341
					c-1.674,2.382-4.095,4.119-6.108,6.222c-2.014,2.103-3.698,4.882-3.292,7.764c0.646,4.582,6.004,6.987,7.79,11.256
					c2.115,5.056-1.351,11.096,0.535,16.242c1.306,3.564,4.991,5.832,8.733,6.466c3.742,0.634,7.571-0.094,11.275-0.923
					c3.704-0.829,7.45-1.769,11.24-1.558c3.247,0.18,6.379,1.198,9.543,1.954c3.163,0.755,6.508,1.248,9.643,0.381
					c3.135-0.867,6.001-3.394,6.37-6.626c0.487-4.266-3.311-8.311-2.345-12.495c0.758-3.283,4.087-5.175,6.325-7.695
					c2.879-3.241,4.007-7.951,2.91-12.145c-0.794-3.037-2.631-5.679-4.433-8.25c-1.966-2.805-3.983-5.661-6.741-7.692
					c-3.563-2.622-7.983-3.597-11.758-5.833c-2.593-1.536-4.821-3.603-7.711-4.601c-3.285-1.135-6.921-1.575-10.319-2.247
					C360.16,258.833,355.831,257.99,352.232,259.999z"/>
				<g>
					<g>
						<polygon style="fill:#F2C9AD;" points="361.53,299.036 363.248,298.381 364.432,295.525 375.298,295.525 375.994,298.311 
							377.503,299.036 377.503,310.849 361.53,310.849 						"/>
						<path style="fill:#422C4F;" d="M369.08,303.265c2.051,0.204,4.046-0.969,5.362-2.555c0.62-0.746,1.109-1.58,1.539-2.45
							l-0.684-2.735h-10.866l-0.957,2.308c0.264,0.742,0.566,1.468,0.973,2.145C365.458,301.662,367.126,303.071,369.08,303.265z"/>
					</g>
					<g>
						<path style="fill:#F2C9AD;" d="M371.855,276.327c-3.437,3.632-7.727,6.433-12.406,8.196v1.88c0,2.71,0.553,5.392,1.626,7.88
							c1.244,2.885,4.084,4.754,7.225,4.754h2.171c3.142,0,5.982-1.869,7.225-4.754c1.073-2.489,1.626-5.17,1.626-7.88v-2.393
							c0-0.3-0.019-0.596-0.045-0.889C376.303,281.546,373.764,279.162,371.855,276.327z"/>
						<path style="fill:#F0BF6C;" d="M379.323,281.316c0-11.771-19.874-11.701-19.874,0.905c-1.927-4.179,0.325-13.582,9.937-13.582
							C380.182,268.64,381.54,275.396,379.323,281.316z"/>
					</g>
				</g>
				<g>
					<path style="fill:#6C6FC3;" d="M389.254,317.966l-0.844-3.786c-6.797-2.889-9.727-5.841-10.907-15.143
						c0,0-2.043,6.333-7.987,10.047c-5.944-3.715-7.987-10.047-7.987-10.047c-1.18,9.302-4.111,12.254-10.907,15.143l-0.844,3.786
						c-0.847,3.801,0.186,7.732,2.692,10.609c0.97,1.114,1.444,2.576,1.444,4.054v3.387h15.602h15.602v-3.387
						c0-1.477,0.474-2.94,1.444-4.054C389.068,325.698,390.102,321.767,389.254,317.966z"/>
					<path style="fill:#56438C;" d="M356.352,330.908h27.094l-0.295-0.225c-0.765-0.583-1.669-0.955-2.622-1.08l-4.88-0.639
						c-0.737-0.096-1.444-0.348-2.077-0.738l-0.862-0.532c-1.718-1.059-3.891-1.041-5.591,0.046l0,0
						c-0.712,0.456-1.524,0.733-2.367,0.808l-4.672,0.416C358.63,329.094,357.289,329.793,356.352,330.908L356.352,330.908z"/>
				</g>
				<g>
					<path style="fill:#F2C9AD;" d="M383.447,336.016H370.77h-15.741c0.855,3.479,0.453,7.148-1.134,10.359
						c-0.238,0.483-0.461,0.971-0.681,1.461l33.255-5.712C384.942,340.389,383.895,338.285,383.447,336.016z"/>
					<path style="fill:#EBA58E;" d="M355.029,336.016h28.418l0,0c-8.803,3.245-18.452,3.374-27.338,0.365L355.029,336.016z"/>
				</g>
				<g>
					<g>
						<path style="fill:#F2C9AD;" d="M369.099,456.489l1.548-32.249h-13.951c0.139,3.018,0.51,6.029,1.129,9.003l4.819,23.129
							l-4.829,5.897h-1.075c-0.796,0-1.379,0.751-1.18,1.522c0.138,0.539,0.624,0.915,1.18,0.915h12.105
							c1.343,0,2.308-1.292,1.926-2.58L369.099,456.489z"/>
						<path style="fill:#EBA58E;" d="M357.815,462.27h5.334c0.712,0,1.388-0.308,1.855-0.845l0.387-0.445
							c0.467-0.537,1.144-0.845,1.855-0.845h0.969l-1.961-0.327c-0.857-0.143-1.725,0.177-2.285,0.841l0,0
							c-0.376,0.447-0.9,0.745-1.476,0.841L357.815,462.27z"/>
					</g>
					<path style="fill:#F2C9AD;" d="M385.602,396.732l-8.47,12.65l-5.718-1.112l-1.204,25.078c-0.034,0.706,0.403,1.35,1.071,1.579
						c1.146,0.393,2.292-0.589,2.079-1.782l-0.222-1.242l5.154-14.209l23.951-18.39l-10.894-9.492
						C389.216,391.917,387.28,394.225,385.602,396.732z"/>
					<g>
						<path style="fill:#454F6B;" d="M415.248,374.191l-28.701-31.97c-0.028-0.031-0.049-0.067-0.077-0.098l-33.255,5.712
							c-4.125,9.188-4.958,19.537-2.313,29.289l7.842,28.914l-0.536,2.227c-1.261,5.242-1.76,10.62-1.512,15.975h13.951
							l0.889-18.527l2.298-40.398l26.7,17.506c-3.366,1.924-6.443,4.285-9.185,6.99l10.894,9.492l11.498-8.828
							C418.891,386.522,419.584,379.022,415.248,374.191z"/>
						<path style="fill:#422C4F;" d="M373.835,365.316l-15.323-2.09l13.512,5.851l-0.675,2.175c-0.751,2.42-0.956,4.977-0.599,7.486
							l1.658,11.658L373.835,365.316z"/>
						<path style="fill:#422C4F;" d="M373.835,365.316l13.791-11.005l-8.219,11.701l0,0c3.786,0.991,7.118,3.25,9.44,6.4
							l3.922,5.318L373.835,365.316z"/>
					</g>
				</g>
				<g>
					<path style="fill:#F2C9AD;" d="M361.53,299.036c-0.015,0.001-0.039-0.044-0.07-0.129c-2.123-5.875-5.972-10.973-10.45-15.327
						l-4.524-4.399l20.211-16.792c1.784-1.482,2.816-3.681,2.816-6v-12.405c0-0.872-0.707-1.579-1.579-1.579l-1.3,7.801
						l-2.414,7.337l-25.306,13.052c-5.385,2.778-7.097,9.66-3.64,14.636l13.473,19.395c1.933,2.783,2.614,6.247,1.877,9.555l0,0
						C357.419,311.291,360.349,308.338,361.53,299.036z"/>
					<path style="fill:#EBA58E;" d="M349.63,300.446c2.339,3.567,3.973,7.693,4.628,11.933c1.711-1.017,3.067-2.177,4.139-3.675
						C356.515,304.201,353.876,301.314,349.63,300.446z"/>
				</g>
				<g>
					<path style="fill:#F2C9AD;" d="M377.503,299.036c0.015,0.001,0.039-0.044,0.07-0.129c2.123-5.875,5.972-10.973,10.45-15.327
						l4.524-4.399l-20.211-16.792c-1.784-1.482-2.816-3.681-2.816-6v-12.405c0-0.872,0.707-1.579,1.579-1.579l1.3,7.801l2.414,7.337
						l25.306,13.052c5.385,2.778,7.097,9.66,3.64,14.636l-13.473,19.395c-1.933,2.783-2.614,6.247-1.877,9.555l0,0
						C381.614,311.291,378.684,308.338,377.503,299.036z"/>
					<path style="fill:#EBA58E;" d="M380.636,308.704c1.072,1.498,2.428,2.658,4.139,3.675c0.655-4.24,2.29-8.366,4.628-11.933
						C385.157,301.314,382.518,304.201,380.636,308.704z"/>
				</g>
			</g>
		</g>
	</g>
</g>
</svg>
