<?xml version="1.0" encoding="utf-8"?>
<!-- Generator: Adobe Illustrator 27.5.0, SVG Export Plug-In . SVG Version: 6.00 Build 0)  -->
<svg version="1.1" id="Capa_1" xmlns="http://www.w3.org/2000/svg" xmlns:xlink="http://www.w3.org/1999/xlink" x="0px" y="0px"
	 viewBox="0 0 2122 2122" style="enable-background:new 0 0 2122 2122;" xml:space="preserve">
<path style="fill:#75C1A0;" d="M1969.161,1082.263c-14.867-25.398-29.683-50.791-44.501-76.184
	c-0.699-1.145-1.447-2.095-2.295-2.943c-3.043-3.693-7.832-5.686-13.871-3.644c-137.894,46.947-261.671,131.911-354.119,244.611
	c-22.051,26.889-44.401,57.924-76.23,73.788c-4.341-98.684-9.23-197.363-14.718-295.998c-3.092-56.024-6.436-112.101-9.927-168.077
	c-0.448-7.537-6.187-14.621-14.319-14.319c-10.977,0.346-21.951,0.745-32.928,1.096c-0.149-5.685-0.4-11.376-0.797-17.062
	c-0.151-2.645-0.351-5.291-0.65-7.932c-0.2-1.895-0.397-3.791-0.597-5.69c-0.299-2.894-0.699-5.783-1.147-8.677
	c-0.199-1.447-0.399-2.894-0.65-4.341c-0.3-2.046-0.648-4.141-1.048-6.236c-8.58-43.703-30.731-85.763-67.6-111.907
	c-38.065-27.04-92.596-32.326-136.649-18.509c-1.947,0.599-3.842,1.247-5.737,1.949c-1.547,0.599-3.094,1.198-4.589,1.793
	c11.724-5.438,23.198-11.425,34.323-18.007c3.791-2.197,7.532-4.492,11.225-6.835c3.542-2.198,6.984-4.439,10.426-6.787l1.099-0.745
	c3.491-2.348,6.884-4.741,10.278-7.186c3.59-2.543,7.084-5.189,10.526-7.883c3.493-2.694,6.884-5.438,10.278-8.229
	c21.452-17.812,41.458-38.416,53.032-63.81c11.576-25.344,13.62-56.277,0-80.574c-17.162-30.684-56.126-44.604-90.898-39.464
	c-34.774,5.14-65.356,26.192-90.001,51.186c-2.295,2.348-4.541,4.692-6.736,7.137l-0.251,0.297c-2.195,2.343-4.338,4.79-6.434,7.284
	c-2.146,2.543-4.241,5.14-6.287,7.732c-1.647,2.095-3.242,4.195-4.789,6.339c-0.699,0.848-1.347,1.695-1.995,2.592
	c-1.646,2.348-3.293,4.692-4.94,7.084l-0.149,0.253c-1.695,2.543-3.394,5.135-5.089,7.781c-0.348,0.497-0.648,1.047-0.947,1.549
	c-1.599,2.543-3.142,5.135-4.69,7.781c-1.698,2.894-3.345,5.837-4.94,8.828c-1.596,2.996-3.143,5.988-4.641,9.033
	c-1.545,3.045-2.991,6.085-4.39,9.179c-1.296,2.894-2.594,5.837-3.842,8.731l-0.448,1.15c-6.436,15.513-11.625,31.576-15.466,47.892
	l-0.049-0.049c-8.582-4.093-17.661-7.235-27.24-9.379c-1.198-0.302-2.395-0.55-3.593-0.75c-3.642-0.75-7.335-1.296-11.077-1.744
	c-9.028-0.999-18.11-1.198-27.189-0.653c-3.342,0.2-6.685,0.502-9.978,0.95c0.996-22.402,2.594-44.852,4.838-67.2
	c0.451-4.589,0.899-9.13,1.447-13.671c0.599-5.539,1.298-11.025,1.997-16.565c0.497-3.941,0.997-7.883,1.596-11.824
	c0.299-2.294,0.599-4.536,0.999-6.782c0.497-3.79,1.096-7.532,1.744-11.327c0.999-6.533,2.095-13.072,3.342-19.556
	c0.95-5.389,1.998-10.777,3.094-16.165c0.699-3.688,1.498-7.332,2.295-10.972l0.051-0.054
	c23.798-12.219,47.895-25.393,70.594-40.409c2.446-1.598,4.889-3.245,7.335-4.887c24.794-17.067,47.644-36.424,66.204-59.22
	c12.57-15.566,23.099-32.779,31.13-51.088c9.33-21.252,15.367-44.453,13.52-67.6c-1.895-23.152-12.373-46.202-31.031-59.97
	c-22.202-16.365-53.235-17.413-78.827-7.133c-25.593,10.227-46.148,30.431-61.763,53.13c-1.596,2.299-3.094,4.594-4.541,6.938
	c-1.895,2.943-3.69,5.934-5.389,8.93c-0.597,1.048-1.196,2.095-1.744,3.143c-0.65,1.097-1.247,2.246-1.846,3.391
	c-0.548,1.048-1.099,2.095-1.647,3.196c-0.947,1.842-1.846,3.688-2.643,5.535c-1.347,2.797-2.645,5.637-3.841,8.482
	c-1.148,2.694-2.246,5.389-3.293,8.132c-0.2,0.502-0.4,1.048-0.599,1.549c-1.048,2.943-2.095,5.837-3.043,8.78l-0.051,0.151
	c-0.796,2.343-1.544,4.638-2.195,6.982c-1.247,3.99-2.343,8.034-3.291,12.073c-0.799,3.245-1.547,6.485-2.197,9.73
	c-0.648,3.245-1.296,6.534-1.844,9.827c-0.599,3.294-1.099,6.587-1.447,9.881c-5.537,41.958-1.698,85.709,9.679,126.717l-0.051,0.2
	v0.053c-0.996,4.536-1.944,9.028-2.843,13.569c-0.947,4.589-1.796,9.179-2.643,13.769c-7.683,41.861-12.723,84.316-15.517,127.02
	c-9.579-10.178-19.106-20.453-28.536-30.733c-9.479-10.275-18.908-20.555-28.287-30.928c0.149-11.128-0.1-22.304-0.85-33.427
	c-0.049-0.999-0.097-1.998-0.198-2.996c-0.25-3.542-0.55-7.03-0.95-10.524c-0.1-1.301-0.248-2.597-0.397-3.893
	c-0.699-5.788-1.498-11.522-2.495-17.213c-0.451-2.646-0.95-5.238-1.498-7.83c-0.548-2.796-1.196-5.588-1.846-8.385
	c-0.748-3.094-1.595-6.236-2.443-9.276c-0.599-2.198-1.247-4.395-1.947-6.539c-0.548-1.797-1.147-3.542-1.747-5.34
	c-1.544-4.536-3.242-9.028-5.089-13.466c-17.31-41.359-50.087-77.831-92.793-91.449c-24.297-7.732-54.182-6.436-71.393,12.419
	c-10.977,12.024-14.819,29.086-15.318,45.403c-1.496,48.292,23.649,95.536,61.715,125.324
	c36.521,28.584,84.713,41.257,131.161,40.409h0.1c9.978,10.928,19.956,21.905,29.985,32.779c4.738,5.14,9.479,10.227,14.168,15.318
	c5.389,5.734,10.726,11.474,16.114,17.16c0.448,0.497,0.947,0.848,1.447,1.15c-0.051,1.247-0.151,2.543-0.151,3.791
	c0,1.198-0.049,2.495-0.1,3.742v0.049h-0.1c-13.469,2.845-26.74,7.284-39.313,13.121c-1.795,0.848-3.591,1.695-5.337,2.597
	c-1.995,0.994-3.993,2.046-5.988,3.142l-0.648,0.346c-1.747,0.999-3.493,1.998-5.237,3.045c-2.097,1.247-4.192,2.543-6.187,3.893
	c-1.747,1.096-3.442,2.295-5.138,3.493c-1.846,1.296-3.642,2.592-5.439,3.99l-0.3,0.2c-1.596,1.247-3.191,2.543-4.738,3.84
	c-2.046,1.598-3.993,3.342-5.936,5.091c-1.447,1.296-2.845,2.592-4.193,3.888l-0.1,0.102c-1.595,1.545-3.143,3.094-4.638,4.692
	c-14.319,15.064-25.892,32.974-32.928,52.531c-21.303-13.121-44.852-21.9-70.493-14.416c-29.886,8.731-53.583,34.075-68,60.764
	c-7.187,13.32-12.672,27.839-15.666,42.708c-1.447,7.23-2.394,14.665-2.945,22.051c-0.198,2.792-0.049,5.438-0.848,7.883
	c-0.648,1.895-0.449,1.545-2.195,2.592c-1.296,0.799-2.843,1.247-5.437,1.749l0.1-0.053c-0.548,0-3.393,0.351-3.393,0.351
	c-1.147,0.049-2.295,0-3.442-0.049c-9.079-0.302-18.01-2.694-27.14-2.294c-15.367,0.696-29.734,7.483-39.812,19.206
	c-1.299,1.496-2.494,3.045-3.642,4.589c-0.799,1.096-1.547,2.197-2.246,3.293c-1.747,2.646-3.242,5.389-4.539,8.131l-0.051,0.102
	h-0.049c-2.046,0.098-4.092,0.2-6.137,0.297c-2.046,0.049-4.041,0.2-6.088,0.351c-0.499,0.049-0.999,0.049-1.496,0.049
	c-6.037,0.199-12.424,4.292-13.819,10.528c-11.924,53.13-22.95,106.513-33.228,159.994c-64.408-8.132-127.071,2.796-186.588,31.035
	c-59.819,28.433-110.208,76.579-146.227,131.658c-39.863,61.013-61.615,138.245-57.822,211.136
	c4.039,78.577,35.023,152.564,90.55,208.739c52.984,53.583,126.021,90.601,200.756,100.827c4.94,0.648,9.678,1.199,14.37,1.447
	c-0.65,27.089,0.697,54.431,7.881,80.623c18.212,66.104,76.282,109.105,136.201,135.999
	c63.159,28.385,131.909,40.312,200.656,44.799c74.686,4.94,150.12,2.548,224.704-2.241c79.575-5.14,158.9-14.47,237.527-27.892
	c62.163-10.573,140.34-18.056,182.547-71.191c21.252-26.791,30.782-60.516,36.57-93.694c4.141-23.898,6.385-48.043,7.432-72.238
	c92.647-36.521,136.949-140.043,178.456-223.311c48.643-97.534,95.49-198.112,166.284-282.078
	c36.87-43.703,79.575-82.119,129.366-110.503C1970.708,1098.024,1973.003,1088.894,1969.161,1082.263z M1143.183,681.297
	c11.625-3.844,23.099-8.234,34.324-13.121c-10.375,5.237-19.905,11.922-28.236,20.004
	C1147.225,685.886,1145.178,683.591,1143.183,681.297z M491.52,1347.225c-10.275,78.426-18.806,157.056-25.542,235.832
	c-0.2,2.192-0.351,4.389-0.551,6.582c-3.742-0.794-7.632-1.545-11.722-2.241c-49.69-8.385-95.839-35.376-128.167-73.938
	c-35.023-41.661-45.252-101.076-36.67-154.011c2.095-12.872,5.337-25.592,9.727-37.865
	c31.632-88.257,121.083-160.047,218.068-150.172l0.95,0.102C507.934,1229.935,499.254,1288.507,491.52,1347.225z"/>
<path style="fill:#7BA42B;" d="M1405.456,823.532c-0.151-2.645-0.351-5.291-0.65-7.932c-0.2-1.895-0.397-3.791-0.597-5.69
	c-0.299-2.894-0.699-5.783-1.147-8.677c-0.199-1.447-0.399-2.894-0.65-4.341c-0.3-2.046-0.648-4.141-1.048-6.236
	c-8.58-43.703-30.731-85.763-67.6-111.907c-38.065-27.04-92.596-32.326-136.649-18.509c-1.947,0.599-3.842,1.247-5.737,1.949
	c-1.547,0.599-3.094,1.198-4.589,1.793c11.724-5.438,23.198-11.425,34.323-18.007c3.791-2.197,7.532-4.492,11.225-6.835
	c3.542-2.198,6.984-4.439,10.426-6.787l1.099-0.745c3.491-2.348,6.884-4.741,10.278-7.186c3.59-2.543,7.084-5.189,10.526-7.883
	c3.493-2.694,6.884-5.438,10.278-8.229c21.452-17.812,41.458-38.416,53.032-63.81c11.576-25.344,13.62-56.277,0-80.574
	c-17.162-30.684-56.126-44.604-90.898-39.464c-34.774,5.14-65.356,26.192-90.001,51.186c-2.295,2.348-4.541,4.692-6.736,7.137
	l-0.251,0.297c-2.195,2.343-4.338,4.79-6.434,7.284c-2.146,2.543-4.241,5.14-6.287,7.732c-1.647,2.095-3.242,4.195-4.789,6.339
	c-0.699,0.848-1.347,1.695-1.995,2.592c-1.646,2.348-3.293,4.692-4.94,7.084l-0.149,0.253c-1.695,2.543-3.394,5.135-5.089,7.781
	c-0.348,0.497-0.648,1.047-0.947,1.549c-1.599,2.543-3.142,5.135-4.69,7.781c-1.698,2.894-3.345,5.837-4.94,8.828
	c-1.596,2.996-3.143,5.988-4.641,9.033c-1.545,3.045-2.991,6.085-4.39,9.179c-1.296,2.894-2.594,5.837-3.842,8.731l-0.448,1.15
	c-6.485,15.513-11.674,31.576-15.515,47.844c-8.582-4.093-17.661-7.235-27.24-9.379c-1.198-0.302-2.395-0.55-3.593-0.75
	c-3.642-0.75-7.335-1.296-11.077-1.744c-12.321-1.398-24.794-1.301-37.167,0.297c2.694-58.372,9.079-116.944,21.503-174.166
	c52.684-27.04,106.964-58.967,144.033-104.467c12.57-15.566,23.099-32.779,31.13-51.088c9.33-21.252,15.367-44.453,13.52-67.6
	c-1.895-23.152-12.373-46.202-31.031-59.97c-22.202-16.365-53.235-17.413-78.827-7.133c-25.593,10.227-46.148,30.431-61.763,53.13
	c-45.949,66.855-51.736,155.311-29.985,233.635c0.1-0.546,0.251-1.097,0.4-1.696c-2.144,9.681-4.09,19.357-5.885,29.086
	c-7.683,41.861-12.723,84.316-15.517,127.02c-19.106-20.405-38.015-40.96-56.823-61.661c0.497-40.511-3.841-81.622-19.459-118.888
	c-17.31-41.359-50.087-77.831-92.793-91.449c-24.297-7.732-54.182-6.436-71.393,12.419c-10.977,12.024-14.819,29.086-15.318,45.403
	c-1.496,48.292,23.649,95.536,61.715,125.324c36.521,28.584,84.713,41.257,131.161,40.409c-2.495-2.743-4.938-5.535-7.433-8.283
	c22.4,24.696,44.95,49.291,67.8,73.539c0.448,0.497,0.947,0.848,1.447,1.15c-0.151,2.495-0.251,5.038-0.351,7.532
	c-15.464,3.24-30.531,8.58-44.65,15.766c-1.995,0.994-3.993,2.046-5.988,3.142l-0.648,0.346c-1.747,0.999-3.493,1.998-5.237,3.045
	c-2.097,1.247-4.192,2.543-6.187,3.893c-1.747,1.096-3.442,2.295-5.138,3.493c-1.846,1.296-3.642,2.592-5.439,3.99l-0.3,0.2
	c-1.596,1.247-3.191,2.543-4.738,3.84c-2.046,1.598-3.993,3.342-5.936,5.091c-1.447,1.296-2.845,2.592-4.193,3.888l-0.1,0.102
	c-1.595,1.545-3.143,3.094-4.638,4.692c-14.319,15.064-25.892,32.974-32.928,52.531c-21.303-13.121-44.852-21.9-70.493-14.416
	c-29.886,8.731-53.583,34.075-68,60.764c-7.187,13.32-12.672,27.839-15.666,42.708c-1.447,7.23-2.394,14.665-2.945,22.051
	c-0.198,2.792-0.049,5.438-0.848,7.883c-0.648,1.895-0.449,1.545-2.195,2.592c-1.296,0.799-2.843,1.247-5.437,1.749l0.1-0.053
	c-0.548,0-3.393,0.351-3.393,0.351c-1.147,0.049-2.295,0-3.442-0.049c-9.079-0.302-18.01-2.694-27.14-2.294
	c-15.367,0.696-29.734,7.483-39.812,19.206c-1.299,1.496-2.494,3.045-3.642,4.589c-0.799,1.096-1.547,2.197-2.246,3.293
	c-1.796,2.646-3.291,5.389-4.589,8.131h0.051c30.231-1.598,60.665-1.744,90.898-2.743c70.745-2.397,141.487-4.789,212.232-7.186
	c28.838-0.945,57.722-1.944,86.56-2.943c4.441-0.098,8.93-0.249,13.372-0.449c48.891-1.598,97.833-3.293,146.724-4.94
	c67.602-2.295,135.202-4.541,202.754-6.835c17.161-0.595,34.324-1.145,51.485-1.745
	C1406.153,834.908,1405.905,829.218,1405.456,823.532z M1149.271,688.181c-2.046-2.294-4.093-4.589-6.088-6.884
	c11.625-3.844,23.099-8.234,34.324-13.121C1167.132,673.414,1157.602,680.098,1149.271,688.181z"/>
<path style="fill:#8EBF22;" d="M1188.589,274.938c-8.032,18.309-18.558,35.522-31.13,51.088
	c-37.069,45.549-91.397,77.481-144.133,104.52c6.187-28.838,14.02-57.324,23.698-85.261c16.115-46.548,37.768-91.103,65.405-131.912
	c4.792-7.084-6.685-13.768-11.474-6.733c-45.001,66.402-73.488,142.284-90.45,220.364c-21.752-78.328-15.966-166.781,29.982-233.635
	c15.618-22.699,36.17-42.903,61.766-53.135c25.593-10.275,56.623-9.228,78.825,7.138c18.658,13.768,29.135,36.818,31.031,59.965
	C1203.955,230.484,1197.918,253.685,1188.589,274.938z"/>
<path style="fill:#8EBF22;" d="M818.255,421.567c32.229,37.618,65.008,74.733,98.333,111.405
	c-46.445,0.848-94.64-11.825-131.161-40.414c-38.066-29.783-63.21-77.027-61.712-125.324c0.497-16.311,4.339-33.374,15.315-45.398
	c17.213-18.86,47.096-20.156,71.393-12.424c42.706,13.622,75.483,50.09,92.796,91.449c15.615,37.32,19.956,78.426,19.457,118.986
	c-32.18-35.42-63.861-71.342-94.991-107.658C822.097,405.65,812.718,415.077,818.255,421.567z"/>
<path style="fill:#8EBF22;" d="M1327.976,544.499c-11.574,25.393-31.581,45.998-53.032,63.81c-3.394,2.791-6.785,5.535-10.278,8.229
	c-3.442,2.694-6.935,5.34-10.526,7.883c-3.394,2.446-6.787,4.838-10.278,7.186l-1.099,0.745c-3.442,2.348-6.884,4.589-10.426,6.787
	c-3.693,2.343-7.435,4.638-11.225,6.835c-11.125,6.582-22.599,12.57-34.323,18.007l-0.551,0.253l-0.149,0.049
	c-2.794,1.096-5.488,2.343-8.132,3.693l-0.45,0.2c-11.225,4.887-22.699,9.276-34.324,13.121c-8.231,2.743-16.562,5.237-24.993,7.43
	c-12.473,3.196-25.345,5.891-38.166,6.037c14.668-11.873,28.884-24.292,42.604-37.266c15.518-14.519,30.384-29.783,44.604-45.647
	c14.417-16.116,28.037-32.828,41.059-50.041c5.189-6.836-6.336-13.471-11.476-6.738c-25.045,33.13-52.932,64.209-83.166,92.749
	c-16.163,15.264-33.077,29.832-50.538,43.503c-0.748-24.847,1.995-50.241,7.883-75.083c3.842-16.268,9.03-32.331,15.515-47.844
	l0.448-1.15c1.247-2.894,2.546-5.837,3.842-8.731c1.398-3.094,2.845-6.134,4.39-9.179c1.498-3.045,3.045-6.037,4.641-9.033
	c1.595-2.991,3.242-5.934,4.94-8.828c1.547-2.646,3.091-5.237,4.69-7.781c0.299-0.502,0.599-1.052,0.947-1.549
	c1.695-2.646,3.394-5.237,5.089-7.781l0.149-0.253c1.647-2.392,3.294-4.736,4.94-7.084c0.648-0.897,1.296-1.744,1.995-2.592
	c1.547-2.144,3.142-4.244,4.789-6.339c2.047-2.592,4.141-5.189,6.287-7.732c2.095-2.494,4.239-4.941,6.434-7.284l0.251-0.297
	c2.195-2.446,4.441-4.789,6.736-7.137c24.645-24.994,55.227-46.046,90.001-51.186c34.772-5.14,73.736,8.78,90.898,39.464
	C1341.595,488.222,1339.552,519.155,1327.976,544.499z"/>
<path style="fill:#C26017;" d="M1208.296,561.805c-13.021,17.213-26.641,33.929-41.059,50.041
	c-14.219,15.863-29.086,31.132-44.601,45.651c-39.613,37.364-83.218,70.391-129.814,98.43c2.295,32.93,6.285,65.754,12.473,98.182
	c-4.441,0.2-8.93,0.351-13.371,0.453c-7.433-39.367-11.574-79.376-13.569-119.39c-2.046-42.504-2.246-85.412-0.299-128.267
	c0.1-2.495,0.2-5.037,0.348-7.532c-0.499-0.297-0.996-0.648-1.447-1.145c-54.28-57.627-107.164-116.545-158.7-176.661
	c-5.537-6.49,3.841-15.917,9.43-9.379c49.291,57.52,99.931,113.948,151.816,169.227c2.794-42.709,7.832-85.164,15.515-127.02
	c16.014-87.658,45.7-173.621,95.938-247.755c4.789-7.035,16.265-0.351,11.474,6.733c-27.637,40.809-49.291,85.364-65.405,131.912
	c-28.935,83.317-41.059,171.569-45.101,259.374c-0.049,0.702-0.049,1.349-0.1,2.047c-1.995,44.555-2.394,89.505,0.051,134.206
	c15.615-9.578,30.881-19.659,45.698-30.333c26.692-19.157,52.136-40.16,76.082-62.762c30.233-28.536,58.124-59.62,83.168-92.744
	C1201.96,548.338,1213.484,554.969,1208.296,561.805z"/>
<path style="fill:#FFFFFF;" d="M879.573,1701.269c-30.158-10.119-59.885-21.388-89.083-34.022
	c-26.185-11.332-55.917-22.221-77.493-41.437c-19.058-16.969-26.419-37.992-16.865-62.104c5.732-14.461,14.104-28.054,21.462-41.719
	c7.763-14.431,15.527-28.857,23.293-43.284c14.304-26.582,28.611-53.169,42.918-79.751c5.661,3.444,11.279,6.962,16.838,10.573
	c7.096,4.614,17.471,2.708,23.61-2.305c6.745-5.51,9.245-14.182,7.028-22.597c-3.089-11.717-11.366-61.334-11.91-67.371
	c-0.621-6.869-3.232-12.394-8.847-16.497c-5.091-3.717-12.495-5.783-18.67-3.308c-24.338,9.734-45.476,21.311-70.976,34.714
	c-9.766,5.13-15.052,19.946-7.247,27.64c4.694,4.623,10.11,7.162,16.273,9.671c5.637,2.758,11.247,5.569,16.804,8.482
	c-13.564,25.203-27.128,50.406-40.691,75.61c-8.872,16.487-17.747,32.974-26.619,49.461c-7.847,14.582-16.192,28.989-22.329,44.394
	c-13.41,33.671-9.004,67.737,14.083,95.999c21.53,26.358,53.083,40.76,83.446,54.406c37.469,16.842,75.822,31.766,114.767,44.828
	c10.911,3.664,23.21-5.062,25.797-15.586C898.101,1715.11,890.525,1704.942,879.573,1701.269z"/>
<path style="fill:#FFFFFF;" d="M861.561,1227.918c19.92-24.799,40.774-48.794,62.725-71.824
	c19.684-20.652,40.18-44.789,65.671-58.387c22.514-12.015,44.787-11.654,64.104,5.647c11.589,10.378,21.447,22.933,31.729,34.563
	c10.855,12.272,21.708,24.545,32.56,36.823c19.997,22.611,39.995,45.227,59.992,67.843c-5.189,4.122-10.431,8.176-15.742,12.141
	c-6.782,5.067-8.582,15.459-6,22.952c2.838,8.239,10.109,13.579,18.772,14.407c12.065,1.155,61.483,10.543,67.334,12.117
	c6.663,1.798,12.75,1.257,18.541-2.597c5.247-3.488,9.744-9.724,9.559-16.375c-0.721-26.202-4.276-50.036-8.032-78.601
	c-1.44-10.938-13.515-21.018-23.432-16.355c-5.963,2.806-10.214,7.011-14.701,11.927c-4.536,4.337-9.113,8.629-13.766,12.833
	c-18.96-21.437-37.919-42.879-56.879-64.321c-12.402-14.027-24.806-28.053-37.21-42.08c-10.967-12.404-21.598-25.213-33.934-36.301
	c-26.957-24.224-60.445-31.868-94.946-19.975c-32.175,11.089-56.599,35.717-79.902,59.488
	c-28.76,29.335-56.024,60.165-81.746,92.189c-7.208,8.974-3.271,23.532,5.705,29.598
	C842.168,1240.517,854.326,1236.927,861.561,1227.918z"/>
<path style="fill:#FFFFFF;" d="M1288.322,1415.659c12.419,29.286,23.683,59.015,33.578,89.251
	c8.874,27.118,20.431,56.594,20.346,85.485c-0.075,25.52-10.935,44.969-35.318,53.797c-14.628,5.296-30.355,8.034-45.466,11.585
	c-15.949,3.752-31.897,7.503-47.846,11.255c-29.388,6.909-58.774,13.817-88.162,20.731c-1.172-6.524-2.266-13.062-3.245-19.615
	c-1.25-8.37-9.551-14.879-17.376-16.151c-8.596-1.398-16.745,2.48-21.576,9.715c-6.728,10.085-38.389,49.169-42.548,53.578
	c-4.734,5.018-7.14,10.636-6.49,17.559c0.592,6.275,3.956,13.188,9.9,16.175c23.425,11.766,46.102,19.922,73.039,30.129
	c10.317,3.912,24.914-1.954,25.498-12.896c0.353-6.583-1.34-12.317-3.544-18.597c-1.671-6.046-3.286-12.112-4.789-18.202
	c27.861-6.553,55.722-13.101,83.583-19.654c18.229-4.287,36.455-8.57,54.681-12.857c16.117-3.791,32.436-7.094,48.041-12.711
	c34.097-12.277,56.681-38.158,62.538-74.177c5.464-33.593-4.67-66.762-14.577-98.543c-12.227-39.22-26.477-77.826-42.514-115.648
	c-4.492-10.597-19.179-14.022-28.77-8.984C1286.402,1392.613,1283.813,1405.022,1288.322,1415.659z"/>
<path style="fill:#A42933;" d="M562.759,1262.364c-25.447,128.423-36.331,259.686-31.987,390.544
	c1.228,37.008,3.69,73.963,7.31,110.816c0.965,9.807,16.431,9.905,15.459,0c-12.696-129.198-10.704-259.769,6.156-388.494
	c4.773-36.438,10.826-72.711,17.969-108.754C579.59,1256.756,564.696,1252.6,562.759,1262.364z"/>
<path style="fill:#A42933;" d="M584.696,1074.131c-7.99,27.537-12.68,55.97-14.095,84.608c-0.492,9.944,14.967,9.915,15.456,0
	c1.35-27.308,5.927-54.246,13.545-80.501C602.379,1068.665,587.465,1064.578,584.696,1074.131z"/>
<path style="fill:#A42933;" d="M1795.572,1202.866c-86.284,78.192-134.389,186.415-180.819,290.794
	c-14.38,32.326-28.86,64.618-44.662,96.287c-4.429,8.872,8.901,16.711,13.347,7.8c52.67-105.539,90.728-219.56,161.327-315.286
	c18.304-24.823,38.879-47.951,61.739-68.662C1813.889,1207.105,1802.931,1196.196,1795.572,1202.866z"/>
<path style="fill:#A42933;" d="M1910.407,1114.385c-2.207-3.42-6.916-5.077-10.575-2.772c-13.932,8.78-27.037,18.918-39.032,30.197
	c-2.953,2.777-3.011,8.165,0,10.933c3.161,2.904,7.78,2.963,10.93,0c2.796-2.631,5.652-5.203,8.568-7.702
	c1.459-1.252,2.931-2.485,4.419-3.698c0.787-0.643,1.578-1.282,2.373-1.915l1.065-0.843l0.804-0.628l0.58-0.449l1.079-0.818
	c0.811-0.609,1.627-1.218,2.446-1.822c1.549-1.135,3.111-2.251,4.684-3.352c3.242-2.266,6.541-4.448,9.886-6.553
	C1911.05,1122.808,1912.719,1117.975,1910.407,1114.385z"/>
<path style="fill:#A42933;" d="M1570.799,1287.226c4.28-8.41,9.14-16.517,14.589-24.224c5.04-7.128,10.76-14.002,17.328-20.857
	c2.801-2.918,3.121-8.064,0-10.928c-3.03-2.782-7.939-3.118-10.93,0c-13.698,14.285-25.355,30.563-34.334,48.209
	c-1.832,3.595-1.064,8.546,2.772,10.573C1563.749,1291.859,1568.841,1291.07,1570.799,1287.226z"/>
<path style="fill:#A42933;" d="M1350.156,1888.916c-96.046,23.693-194.206,37.914-293.026,42.421
	c-9.908,0.453-9.964,15.912,0,15.459c100.155-4.57,199.789-18.962,297.132-42.972
	C1363.917,1901.442,1359.829,1886.534,1350.156,1888.916z"/>
<path style="fill:#A42933;" d="M984.128,1926.382c-11.376-0.75-22.792-0.507-34.129,0.74c-2.109,0.229-3.907,0.707-5.464,2.261
	c-1.34,1.34-2.351,3.542-2.263,5.466c0.171,3.81,3.425,8.2,7.727,7.727c11.337-1.243,22.753-1.491,34.129-0.736
	c4.044,0.268,7.91-3.747,7.729-7.727C991.659,1929.695,988.458,1926.67,984.128,1926.382z"/>
<path style="fill:#2C8E60;" d="M757.362,521.41c-9.532,0-17.259,7.727-17.259,17.262c0,9.53,7.727,17.257,17.259,17.257
	c9.53,0,17.259-7.727,17.259-17.257C774.621,529.137,766.892,521.41,757.362,521.41z"/>
<path style="fill:#2C8E60;" d="M746.967,603.378c-8.429,0-15.259,6.835-15.259,15.264c0,8.423,6.83,15.259,15.259,15.259
	c8.426,0,15.259-6.836,15.259-15.259C762.227,610.213,755.394,603.378,746.967,603.378z"/>
<path style="fill:#2C8E60;" d="M816.901,633.902c-3.471,0-6.285,2.811-6.285,6.28c0,3.473,2.813,6.285,6.285,6.285
	c3.469,0,6.283-2.811,6.283-6.285C823.183,636.712,820.37,633.902,816.901,633.902z"/>
<path style="fill:#2C8E60;" d="M596.669,748.069c-10.404,0-18.838,8.433-18.838,18.835c0,10.402,8.433,18.836,18.838,18.836
	c10.402,0,18.836-8.433,18.836-18.836C615.505,756.502,607.071,748.069,596.669,748.069z"/>
<path style="fill:#2C8E60;" d="M491.622,924.354c-5.564,0-10.075,4.507-10.075,10.071c0,5.564,4.512,10.075,10.075,10.075
	c5.562,0,10.073-4.512,10.073-10.075C501.695,928.861,497.184,924.354,491.622,924.354z"/>
<path style="fill:#2C8E60;" d="M496.239,816.901c-8.115,0-14.692,6.578-14.692,14.69c0,8.117,6.577,14.694,14.692,14.694
	c8.112,0,14.689-6.578,14.689-14.694C510.928,823.478,504.351,816.901,496.239,816.901z"/>
<path style="fill:#2C8E60;" d="M340.099,1810.822c-7.186,0-13.011,5.827-13.011,13.013c0,7.186,5.825,13.008,13.011,13.008
	c7.187,0,13.011-5.822,13.011-13.008C353.109,1816.649,347.285,1810.822,340.099,1810.822z"/>
<path style="fill:#2C8E60;" d="M368.851,1730.233c-8.694,0-15.742,7.049-15.742,15.741s7.047,15.737,15.742,15.737
	c8.692,0,15.739-7.045,15.739-15.737S377.543,1730.233,368.851,1730.233z"/>
<path style="fill:#2C8E60;" d="M439.996,1836.843c-8.577,0-15.532,6.957-15.532,15.532c0,8.575,6.955,15.532,15.532,15.532
	c8.575,0,15.53-6.958,15.53-15.532C455.525,1843.801,448.57,1836.843,439.996,1836.843z"/>
<path style="fill:#2C8E60;" d="M1551.136,1780.371c-8.409,0-15.227,6.816-15.227,15.225c0,8.409,6.818,15.225,15.227,15.225
	c8.409,0,15.225-6.816,15.225-15.225C1566.361,1787.187,1559.545,1780.371,1551.136,1780.371z"/>
<path style="fill:#2C8E60;" d="M1607.264,1658.039c-5.101,0-9.235,4.136-9.235,9.237c0,5.096,4.134,9.233,9.235,9.233
	c5.099,0,9.233-4.136,9.233-9.233C1616.497,1662.175,1612.363,1658.039,1607.264,1658.039z"/>
<path style="fill:#2C8E60;" d="M1611.462,1721.838c-2.319,0-4.197,1.881-4.197,4.2c0,2.319,1.878,4.195,4.197,4.195
	c2.317,0,4.197-1.876,4.197-4.195C1615.659,1723.719,1613.778,1721.838,1611.462,1721.838z"/>
<path style="fill:#2C8E60;" d="M1846.51,1271.889c-12.981,0-23.505,10.523-23.505,23.503c0,12.984,10.524,23.508,23.505,23.508
	c12.982,0,23.505-10.524,23.505-23.508C1870.015,1282.412,1859.491,1271.889,1846.51,1271.889z"/>
<path style="fill:#2C8E60;" d="M1936.657,1170.506c-6.207,0-11.24,5.028-11.24,11.235c0,6.207,5.033,11.24,11.24,11.24
	c6.205,0,11.238-5.033,11.238-11.24C1947.895,1175.534,1942.862,1170.506,1936.657,1170.506z"/>
<path style="fill:#2C8E60;" d="M1904.173,1229.005c-4.029,0-7.296,3.264-7.296,7.293c0,4.034,3.267,7.298,7.296,7.298
	c4.032,0,7.298-3.264,7.298-7.298C1911.471,1232.269,1908.204,1229.005,1904.173,1229.005z"/>
<circle style="fill:#2C8E60;" cx="1525.182" cy="1143.846" r="11.099"/>
<path style="fill:#2C8E60;" d="M1497.295,894.133c-9.274,0-16.789,7.517-16.789,16.789c0,9.271,7.515,16.789,16.789,16.789
	c9.271,0,16.789-7.518,16.789-16.789C1514.084,901.65,1506.566,894.133,1497.295,894.133z"/>
<path style="fill:#2C8E60;" d="M1534.159,1034.648c4.96,0,8.979-4.019,8.979-8.979c0-4.955-4.02-8.974-8.979-8.974
	c-4.957,0-8.977,4.02-8.977,8.974C1525.182,1030.629,1529.202,1034.648,1534.159,1034.648z"/>
<path style="fill:#2C8E60;" d="M1604.933,1072.767c0-6.69-5.42-12.107-12.109-12.107c-6.687,0-12.107,5.418-12.107,12.107
	c0,6.689,5.42,12.107,12.107,12.107C1599.513,1084.874,1604.933,1079.457,1604.933,1072.767z"/>
<circle style="fill:#2C8E60;" cx="1798.349" cy="997.075" r="10.602"/>
<ellipse style="fill:#2C8E60;" cx="1355.06" cy="601.161" rx="17.63" ry="17.627"/>
<path style="fill:#2C8E60;" d="M1258.132,371.989c-7.001,0-12.677,5.676-12.677,12.677c0,6.997,5.676,12.673,12.677,12.673
	c7.002,0,12.675-5.676,12.675-12.673C1270.807,377.665,1265.134,371.989,1258.132,371.989z"/>
<path style="fill:#2C8E60;" d="M1312.234,384.666c-3.498,0-6.336,2.836-6.336,6.334c0,3.503,2.838,6.339,6.336,6.339
	c3.5,0,6.339-2.836,6.339-6.339C1318.573,387.502,1315.734,384.666,1312.234,384.666z"/>
<path style="fill:#2C8E60;" d="M1270.042,304.959c-6.578,0-11.91,5.33-11.91,11.907c0,6.577,5.333,11.912,11.91,11.912
	c6.577,0,11.91-5.335,11.91-11.912C1281.952,310.289,1276.619,304.959,1270.042,304.959z"/>
<path style="fill:#2C8E60;" d="M1433.286,694.758c-7.301,0-13.22,5.919-13.22,13.223s5.919,13.223,13.22,13.223
	c7.303,0,13.222-5.919,13.222-13.223S1440.589,694.758,1433.286,694.758z"/>
<path style="fill:#2C8E60;" d="M1444.057,618.642c-5.948,0-10.772,4.818-10.772,10.767c0,5.953,4.823,10.772,10.772,10.772
	c5.949,0,10.772-4.819,10.772-10.772C1454.83,623.461,1450.006,618.642,1444.057,618.642z"/>
</svg>
