<?xml version="1.0" encoding="utf-8"?>
<!-- Generator: Adobe Illustrator 27.5.0, SVG Export Plug-In . SVG Version: 6.00 Build 0)  -->
<svg version="1.1" id="Capa_1" xmlns="http://www.w3.org/2000/svg" xmlns:xlink="http://www.w3.org/1999/xlink" x="0px" y="0px"
	 viewBox="0 0 2122 2122" style="enable-background:new 0 0 2122 2122;" xml:space="preserve">
<path style="fill:#B9D68A;" d="M1849.29,599.254c-20.235-63.744-79.472-106.986-146.352-106.986h-59.326
	c-3.944-14.146-8.825-28.668-14.727-43.626c-100.331-254.197-384.491-383.781-622.618-283.742
	c-60.211-4.251-121.157,3.502-178.834,25.207c-29.711,10.947-58.017,25.355-84.753,42.1c-1.1,0.69-1.456,2.137-0.789,3.26
	l0.034,0.05c-53.623,33.932-99.162,83.364-132.323,142.921c-19.319,34.697-34.622,73.609-43.889,113.83H408.193
	c-67.636,0-127.252,44.245-146.962,108.944C177.947,874.604-14.454,1581.53,158.05,1773.578
	c146.886,163.528,543.078,234.727,905.431,212.847c361.861,21.823,756.351-48.877,902.063-212.847
	C2137.615,1579.951,1935.553,870.991,1849.29,599.254z M918.473,416.944c29.758-53.439,68.072-92.099,110.813-117.916
	c58.939,9.089,115.456,34.037,161.36,71.01c30.448,24.524,58.323,53.721,80.706,87.995c5.254,8.044,11.854,20.041,18.621,34.235
	H890.869C896.538,463.305,907.821,436.076,918.473,416.944z M1391.023,332.708c30.448,24.524,58.322,53.721,80.706,87.995
	c9.451,14.47,23.258,41.729,34.554,71.566h-75.342c-0.792-2.09-1.6-4.188-2.433-6.295c-9.339-23.658-20.269-46.237-32.605-67.651
	c1.136-0.659,1.536-2.111,0.887-3.257c-15.534-27.451-33.623-53.499-53.993-77.678c-19.747-23.751-41.901-45.465-65.934-64.887
	C1318.441,285.186,1357.553,305.75,1391.023,332.708z M718.097,454.275c23.63-42.435,52.655-75.551,85.009-100.317
	c-21.705,42.292-37.424,90.008-43.787,138.31H700.94C706.152,477.852,712.221,464.831,718.097,454.275z"/>
<path style="fill:#ABCD6E;" d="M890.869,492.268c5.669-28.963,16.953-56.192,27.604-75.324
	c29.758-53.439,68.072-92.099,110.813-117.916c-77.396-11.934-158.969,3.48-226.181,54.929
	c-21.705,42.292-37.424,90.008-43.787,138.31H890.869z"/>
<path style="fill:#254247;" d="M745.212,236.284c53.663-31.9,113.674-52.817,175.416-60.033
	c187.453-23.438,376.828,80.613,472.015,241.229c0.669,1.109,2.106,1.497,3.24,0.855l0.021-0.012
	c1.136-0.659,1.536-2.111,0.887-3.257c-15.534-27.451-33.623-53.499-53.993-77.678c-19.747-23.751-41.901-45.465-65.934-64.887
	c-76.767-62.039-172.707-100.687-270.597-107.599c-60.211-4.251-121.157,3.502-178.834,25.207
	c-29.711,10.947-58.017,25.355-84.753,42.1c-1.1,0.69-1.456,2.137-0.789,3.26l0.034,0.05
	C742.619,236.627,744.094,236.975,745.212,236.284z"/>
<path style="fill:#ABCD6E;" d="M1849.29,599.254c-20.235-63.744-79.472-106.986-146.352-106.986h-59.326
	c-3.944-14.146-8.825-28.668-14.727-43.626c-100.331-254.197-384.491-383.781-622.618-283.742
	c97.889,6.912,193.829,45.56,270.597,107.599c41.577,12.686,80.689,33.25,114.159,60.208c30.448,24.524,58.322,53.721,80.706,87.995
	c9.451,14.47,23.258,41.729,34.554,71.566h-60.979c66.88,0,126.117,43.241,146.353,106.986
	c86.261,271.737,288.323,980.697,116.254,1174.325c-111.368,125.321-368.057,196.158-644.431,212.847
	c361.861,21.823,756.351-48.877,902.063-212.847C2137.615,1579.951,1935.553,870.991,1849.29,599.254z M1782.215,530.734
	c-60.329,8.398-121.496,13.508-182.334,16.781c-8.725,0.306-17.434,0.794-26.17,0.943c-1.329,0.023-2.424-1.036-2.446-2.364
	c-0.021-1.218,0.868-2.24,2.039-2.418c8.637-1.327,17.303-2.317,25.955-3.488l26.001-2.937
	c52.042-5.509,104.224-9.673,156.548-11.299C1784.684,525.868,1785.205,530.313,1782.215,530.734z"/>
<path style="fill:#254247;" d="M1652.016,1253.969c-0.395-2.483-2.663-4.292-5.2-4.051c-2.641,0.251-4.576,2.595-4.325,5.234
	c7.185,77.066,12.322,154.757,7.68,231.983c-5.457,73.949-15.705,155.841-65.558,213.166
	c-102.347,109.535-271.533,155.659-414.031,187.509c-2.458,0.537-4.141,2.911-3.75,5.432c0.406,2.62,2.859,4.415,5.479,4.01
	c115.756-19.005,232.036-49.128,333.875-109.356c50.147-30.856,101.855-70.055,126.273-125.678
	c40.163-91.463,38.698-194.221,32.887-291.797C1662.298,1331.403,1657.946,1292.555,1652.016,1253.969z"/>
<path style="fill:#254247;" d="M1781.808,525.952c-52.324,1.626-104.505,5.79-156.548,11.299l-26.001,2.937
	c-8.651,1.17-17.318,2.161-25.955,3.488c-1.171,0.179-2.06,1.2-2.039,2.418c0.022,1.328,1.117,2.386,2.446,2.364
	c8.737-0.15,17.446-0.637,26.17-0.943c60.838-3.272,122.005-8.383,182.334-16.781
	C1785.205,530.313,1784.684,525.868,1781.808,525.952z"/>
<path style="fill:#92BD43;" d="M1030.898,1058.198c-1.998,12.236,6.305,23.778,18.538,25.776l77.637,12.677
	c1.208,0.195,2.416,0.292,3.62,0.292c5.949,0,11.708-2.363,15.961-6.66c5.111-5.169,7.405-12.487,6.158-19.649l-15.089-86.536
	c-2.129-12.212-13.71-20.38-25.978-18.26c-12.215,2.129-20.39,13.759-18.261,25.973l1.064,6.099
	c-94.101-76.173-232.902-70.524-320.381,16.951l-2.996,2.997c-8.77,8.767-8.77,22.984,0,31.752c8.76,8.765,22.987,8.765,31.747,0
	l2.996-2.996c74.848-74.846,195.907-75.994,272.17-3.458l-21.408-3.497C1044.438,1037.677,1032.896,1045.962,1030.898,1058.198z"/>
<path style="fill:#92BD43;" d="M1215.58,1193.772l-1.277-4.034c-3.737-11.82-16.355-18.397-28.175-14.631
	c-11.824,3.737-18.373,16.356-14.631,28.175l1.276,4.039c15.649,49.418,11.011,102.173-13.057,148.545
	c-22.405,43.169-59.024,75.745-103.834,92.662l14.212-17.169c7.902-9.549,6.572-23.702-2.982-31.61
	c-9.55-7.903-23.698-6.573-31.61,2.982l-54.383,65.695c-4.541,5.486-6.207,12.799-4.497,19.713
	c1.71,6.909,6.602,12.599,13.179,15.332l78.183,32.488c2.816,1.169,5.734,1.725,8.604,1.725c8.804,0,17.155-5.208,20.74-13.841
	c4.76-11.45-0.667-24.59-12.117-29.345l-11.415-4.743C1190.703,1444.41,1253.952,1314.944,1215.58,1193.772z"/>
<path style="fill:#92BD43;" d="M839.181,1510.755c2.514,0.906,5.086,1.335,7.615,1.335c9.194,0,17.822-5.691,21.121-14.84
	c4.205-11.664-1.841-24.526-13.505-28.736l-3.99-1.437c-98.679-35.558-151.178-142.979-119.821-242.111l4.907,19.144
	c2.602,10.144,11.727,16.882,21.735,16.882c1.846,0,3.722-0.229,5.588-0.706c12.015-3.079,19.254-15.313,16.175-27.323l-19.8-77.228
	c-1.73-6.748-6.495-12.307-12.892-15.054c-6.402-2.753-13.715-2.368-19.796,1.023l-78.051,43.537
	c-10.826,6.037-14.709,19.713-8.667,30.543c6.037,10.836,19.718,14.719,30.543,8.667l16.232-9.054
	c-35.965,120.858,28.53,250.645,148.62,293.921L839.181,1510.755z"/>
<path style="fill:#D4E4AD;" d="M374.516,833.825c-28.014-21.018-68.653,6.354-84.477,30.51
	c-48.318,73.763-115.879,364.109-97.893,459.252c2.291,12.122,5.618,24.048,10.394,35.436c6.643,15.84,16.593,28.371,33.946,31.952
	c73.331,15.136,82.574-75.921,84.715-124.752c3.43-78.241,42.813-305.377,57.359-341.057
	C390.033,897.02,404.076,856.003,374.516,833.825z"/>
<path style="fill:#D4E4AD;" d="M201.076,1446.711c-14.594,14.396-24.001,36.123-27.237,58.852
	c-3.658,25.704,0.575,52.691,14.118,71.803c10.92,15.41,30.095,19.981,47.446,13.462c16.2-6.087,27.724-20.453,33.989-36.184
	c11.758-29.52,14.246-74.078-6.337-100.382C248.196,1435.275,219.385,1428.652,201.076,1446.711z"/>
<path style="fill:#D4E4AD;" d="M365.858,796.828c27.945,1.649,49.126-25.375,60.017-56.581c9.054-25.942,10.995-54.776,3.799-72.427
	c-7.13-17.49-24.764-26.301-43.144-23.896c-44.285,5.792-66.384,64.239-63.674,103.322
	C324.451,770.262,340.948,795.356,365.858,796.828z"/>
<path style="fill:#ABCD6E;" d="M868.813,1849.174c9.63,0,9.646-14.967,0-14.967C859.182,1834.207,859.166,1849.174,868.813,1849.174
	z"/>
<path style="fill:#ABCD6E;" d="M478.76,1464.323c9.631,0,9.647-14.967,0-14.967C469.129,1449.356,469.113,1464.323,478.76,1464.323z
	"/>
<path style="fill:#ABCD6E;" d="M486.561,744.026c9.63,0,9.647-14.967,0-14.967C476.93,729.058,476.914,744.026,486.561,744.026z"/>
<path style="fill:#ABCD6E;" d="M652.983,988.459c9.63,0,9.647-14.967,0-14.967C643.353,973.492,643.337,988.459,652.983,988.459z"/>
<path style="fill:#ABCD6E;" d="M996.229,567.837c-9.631,0-9.647,14.967,0,14.967C1005.86,582.804,1005.876,567.837,996.229,567.837z
	"/>
<path style="fill:#ABCD6E;" d="M1370.679,980.657c9.631,0,9.647-14.967,0-14.967C1361.048,965.69,1361.034,980.657,1370.679,980.657
	z"/>
<path style="fill:#ABCD6E;" d="M1472.093,647.813c9.631,0,9.647-14.967,0-14.967
	C1462.463,632.846,1462.447,647.813,1472.093,647.813z"/>
<path style="fill:#ABCD6E;" d="M1396.683,1446.12c9.631,0,9.647-14.967,0-14.967
	C1387.053,1431.153,1387.036,1446.12,1396.683,1446.12z"/>
<path style="fill:#ABCD6E;" d="M1721.728,1674.951c9.63,0,9.646-14.967,0-14.967
	C1712.097,1659.984,1712.081,1674.951,1721.728,1674.951z"/>
<path style="fill:#ABCD6E;" d="M1313.473,1747.761c9.629,0,9.647-14.967,0-14.967
	C1303.842,1732.794,1303.826,1747.761,1313.473,1747.761z"/>
<path style="fill:#ABCD6E;" d="M431.954,1787.401c-9.631,0-9.647,14.967,0,14.967
	C441.585,1802.368,441.601,1787.401,431.954,1787.401z"/>
<path style="fill:#ABCD6E;" d="M382.547,1173.083c9.631,0,9.647-14.967,0-14.967C372.916,1158.116,372.9,1173.083,382.547,1173.083z
	"/>
<path style="fill:#ABCD6E;" d="M247.329,796.033c9.63,0,9.646-14.967,0-14.967C237.698,781.066,237.682,796.033,247.329,796.033z"/>
<path style="fill:#ABCD6E;" d="M681.587,629.61c9.63,0,9.646-14.967,0-14.967C671.957,614.643,671.941,629.61,681.587,629.61z"/>
<path style="fill:#ABCD6E;" d="M1157.451,778.465c-9.63,0-9.647,14.967,0,14.967
	C1167.082,793.432,1167.097,778.465,1157.451,778.465z"/>
<path style="fill:#ABCD6E;" d="M1630.715,1058.668c9.631,0,9.647-14.967,0-14.967
	C1621.085,1043.701,1621.068,1058.668,1630.715,1058.668z"/>
<path style="fill:#ABCD6E;" d="M933.821,1269.297c9.63,0,9.647-14.967,0-14.967C924.19,1254.33,924.174,1269.297,933.821,1269.297z"
	/>
<path style="fill:#ABCD6E;" d="M746.596,1565.736c9.63,0,9.646-14.967,0-14.967C736.965,1550.769,736.95,1565.736,746.596,1565.736z
	"/>
<path style="fill:#ABCD6E;" d="M1063.839,1940.822c-9.63,0-9.647,14.967,0,14.967
	C1073.469,1955.789,1073.485,1940.822,1063.839,1940.822z"/>
<path style="fill:#ABCD6E;" d="M621.779,1922.619c-9.631,0-9.647,14.967,0,14.967
	C631.41,1937.586,631.426,1922.619,621.779,1922.619z"/>
</svg>
