<?xml version="1.0" encoding="utf-8"?>
<!-- Generator: Adobe Illustrator 27.5.0, SVG Export Plug-In . SVG Version: 6.00 Build 0)  -->
<svg version="1.1" xmlns="http://www.w3.org/2000/svg" xmlns:xlink="http://www.w3.org/1999/xlink" x="0px" y="0px"
	 viewBox="0 0 1122 800" style="enable-background:new 0 0 1122 800;" xml:space="preserve">
<g id="Background">
	<rect style="fill:#FFFFFF;" width="1122" height="800"/>
</g>
<g id="shadow">
	<path style="opacity:0.1;fill:#516784;" d="M987.591,650.221H125.033c-27.283,0-49.606,8.939-49.606,19.863l0,0
		c0,7.565,10.707,14.175,26.35,17.527H25.821c-27.283,0-49.606,8.939-49.606,19.863l0,0c0,10.925,22.323,19.864,49.606,19.864
		h26.467c-7.392,3.471-11.877,7.961-11.877,12.853v7.945c0,10.925,22.323,19.864,49.606,19.864h849.719
		c27.283,0,49.606-8.939,49.606-19.864v-7.945c0-10.925-22.323-19.863-49.606-19.863l-57.776,0.441
		c4.401,0,11.547-1.39,16.341-4.185c8.406-4.9,8.779-12.359,4.669-18.534c-2.664-4.003-6.933-7.176-17.508-8.37l102.13,0.268
		c27.283,0,49.606-8.938,49.606-19.863l0,0C1037.197,659.16,1014.874,650.221,987.591,650.221z"/>
</g>
<g id="object">
	<g>
		<g>
			<g>
				<g>
					<polygon style="fill:#EBCEB1;" points="286.513,317.345 281.898,326.179 295.606,335.504 304.688,330.428 305.075,321.481 
						297.179,321.549 298.044,319.893 300.591,319.121 299.775,316.58 					"/>
				</g>
				<g>
					<g>
						<polygon style="fill:#9299A2;" points="209.682,220.116 238.289,282.661 290.807,315.166 284.36,328.974 215.605,301.001 
							165.124,219 						"/>
					</g>
				</g>
			</g>
		</g>
	</g>
	<g>
		<path style="fill:#998675;" d="M141.929,694.994l-0.781,9.058l-5.979,7.366c0,0-1.716,11.052,1.552,12.992
			c3.269,1.941,54.282,7.997,54.282,7.997l5.257-7.843l-4.216-8.659l-26.964-12.334l-9.261-10.284L141.929,694.994z"/>
		<path style="fill:#998675;" d="M195.261,675.426l-0.781,9.058l-5.893,7.373c0,0-1.704,11.052,1.509,12.989
			c3.213,1.936,53.398,7.921,53.398,7.921l5.183-7.849l-4.136-8.652l-26.513-12.295l-9.098-10.27L195.261,675.426z"/>
		<g>
			<path style="fill:#667482;" d="M133.879,517.346c4.379,9.216,8.324,17.576,9.038,29.446c0.702,11.674-1.482,23.3-3.136,34.878
				c-5.725,40.067-5.163,80.733-4.59,121.203c13.96,0.607,27.934,0.897,41.907,0.869c2.376-0.005,5.054-0.147,6.635-1.921
				c1.585-1.778,1.416-4.46,1.152-6.827c-3.205-28.754-2.982-57.845-2.548-86.731c0.213-14.228,0.703-26.393,3.62-40.124
				c2.897-13.641,2.38-27.773,1.445-41.598c-2.291-33.858-9.151-67.089-11.04-100.933c-0.343-6.138-0.924-12.737-4.896-17.428
				c-4.776-5.641-12.964-6.792-20.355-6.788c-20.319,0.01-43.249,3.215-44.271,27.857c-0.341,8.215,1.824,16.309,4.123,24.203
				c5.266,18.085,10.991,36.348,18.285,53.733C130.764,510.8,132.348,514.125,133.879,517.346z"/>
			<path style="fill:#667482;" d="M190.531,501.787c4.176,9.421,7.934,17.965,8.079,29.856c0.143,11.695-2.775,23.198-5.129,34.68
				c-8.146,39.735-9.646,80.38-11.123,120.828c14.794,1.296,29.618,2.275,44.459,2.937c2.524,0.112,5.374,0.102,7.145-1.591
				c1.775-1.697,1.734-4.385,1.576-6.762c-2.39-35.932-5.083-71.976-2.554-107.895c0.968-13.747,2.7-27.441,3.474-41.199
				c1.508-26.793-0.646-53.615-3.912-80.229c-2.011-16.391,0.838-51.483-15.747-61.406c-7.508-4.492-17.002-5.156-25.779-3.812
				c-4.477,0.686-8.946,1.889-12.73,4.238c-7.293,4.527-11.146,12.838-11.932,21.026c-0.785,8.188,1.096,16.38,3.13,24.378
				c4.66,18.323,9.798,36.846,16.648,54.57C187.561,495.094,189.072,498.494,190.531,501.787z"/>
			<path style="fill:#9299A2;" d="M117.767,193.372c-10.695,6.34-18.773,16.017-21.575,30.379
				c-12.654,64.859-4.84,131.754,3.013,197.368c0.536,4.477,1.362,9.474,5.001,12.136c4.119,3.013,9.847,1.646,14.743,0.205
				c38.515-11.335,77.977-19.444,117.84-24.217c-2.409-48.247-7.086-96.38-14.01-144.188c-1.872-12.923-3.942-25.95-8.769-38.084
				c-10.778-27.088-29.074-46.395-59.744-43.886C141.254,184.15,128.252,187.157,117.767,193.372z"/>
			<g>
				<path style="fill:#FEE4D6;" d="M184.923,129.757c0.521,8.26,0.922,17.07-3.208,24.243c-3.518,6.111-9.781,10.049-14.592,15.204
					c-2.93,3.14-5.368,7.227-5.916,11.55c-0.541,4.267,1.752,7.907,1.725,12.177c-0.003,0.4-0.02,0.816-0.207,1.168
					c-0.201,0.377-0.571,0.633-0.947,0.836c-1.929,1.047-4.227,1.085-6.422,1.098c-2.593,0.015-5.425,0.362-7.996,0.047
					c-3.361-0.411-2.678-1.09-2.994-4.515c-0.473-5.107-1.164-10.234-2.812-15.111c-3.4-10.064-10.639-18.663-12.69-29.211
					c-2.27-11.671,1.123-23.109,4.823-34.206c1.656-4.965,3.474-10.025,6.877-14.001c7.478-8.737,25.015-11.527,33.395-2.601
					C183.917,107.044,184.039,115.74,184.923,129.757z"/>
				<path style="fill:#8C6239;" d="M182.272,124.094c5.43,7.443,6.313,17.948,2.201,26.192c6.31-4.404,9.279-12.248,10.551-19.837
					c0.699-4.174,0.994-8.439,0.515-12.644c-1.513-13.277-12.038-25.547-25.285-27.31c-8.761-1.166-8.727,10.005-5.312,15.439
					C169.433,113.084,177.333,117.325,182.272,124.094z"/>
				<path style="fill:#8C6239;" d="M159.069,83.555c-4.909-2.349-10.58-2.485-16.002-2.021c-7.429,0.635-22.377,2.829-31.204,8.364
					c-4.977-10.644-19.345-18.689-29.829-13.168c-6.139,3.234-8.796,10.262-5.962,15.771c0.708,1.376,1.718,2.656,3.033,3.691
					c1.102,0.867,2.416,1.563,3.358,2.55c3.568,3.737,0.267,9.041-2.359,13.269c-2.965,4.773-4.998,9.933-6,15.225
					c-0.565,2.985-0.783,6.135,0.585,8.941c1.368,2.806,4.691,5.159,8.374,5c6.669-0.288,8.013-5.969,8.358-11.131
					c0.398-5.945,1.399-11.161,4.096-16.7c0.987-2.029,2.338-4.167,4.518-4.748c0.417-0.111,0.836-0.153,1.257-0.152
					c-1.466,4.966-2.26,9.998-1.489,15.525c1.537,11.016,5.611,21.758,12.356,30.602c6.744,8.844,16.221,15.71,26.937,18.689
					c0.758-6.779-6.392-11.913-7.693-18.609c-0.704-3.625,0.411-7.413,2.308-10.581c1.897-3.168,4.529-5.819,7.135-8.436
					c4.492-4.511,8.983-9.022,13.475-13.532c3.664-3.68,7.363-7.403,10.102-11.816C169.992,101.31,169.732,88.66,159.069,83.555z"/>
			</g>
		</g>
	</g>
	<g>
		<g id="XMLID_200_">
			<polygon style="fill:#41352B;" points="569.751,727.889 569.751,737.577 544.906,750 532.484,737.577 544.906,725.155 
				546.509,725.155 546.909,727.889 			"/>
		</g>
		<g id="XMLID_199_">
			<polygon style="fill:#41352B;" points="630.937,725.155 632.652,725.155 645.075,737.577 632.652,750 607.807,737.577 
				607.807,727.889 630.65,727.889 			"/>
		</g>
		<g>
			<g id="XMLID_198_">
				<path style="fill:#667482;" d="M630.586,360.205c-3.27-16.548-5.826-31.82-6.06-40.103
					c-0.704-24.911-3.839-107.187-3.839-107.187l-15.205-31.47l-2.807,0.027c0.202-0.024,0.404-0.049,0.606-0.073
					c-0.661,0.079,0.318-6.082,0.554-6.626c13.221-0.451,30.258,7.006,38.596,17.396c6.17,7.688,9.838,17.086,13.412,26.32
					c10.064,25.998,14.629,50.085,19.649,77.423c3.202,17.432,6.159,34.782,8.487,52.087c2.579,19.165,4.396,38.274,4.923,57.271
					c0.058,2.1,0.474,7.973,0.708,14.989c0.489,14.696,0.175,34.354-5.909,35.088c-1.139,0.138-2.238-0.375-3.24-0.87
					c-7.827-3.867-13.994-8.916-20.896-13.328l-0.371-76.661L630.586,360.205z"/>
			</g>
			<g id="XMLID_197_">
				<path style="fill:#667482;" d="M490.74,438.994c1.556-16.314,3.172-32.624,5.146-48.891c3.936-32.447,9.295-64.817,18.36-96.228
					c3.463-11.999,7.459-23.832,11.453-35.66c4.864-14.404,9.727-28.807,14.591-43.21c6.045-17.901,16.246-30.512,34.11-36.774
					c3.191-1.118,6.548-1.981,10.009-2.613c0.085,0.37,0.161,0.745,0.209,1.14c0.207,1.719,0.69,3.626,1.76,4.873l-11.724,0.114
					c0,0-33.079,117.563-34.295,137.825c-0.462,7.702-1.999,24.516-3.709,42.229l-17.963,2.69l-0.77,67.751
					c-1.005,0.294-2.006,0.578-2.999,0.846c-5.7,1.538-10.336,5.762-15.071,9.076C492.853,447.053,489.786,448.991,490.74,438.994z"
					/>
			</g>
			<g id="XMLID_196_">
				<path style="fill:#667482;" d="M536.65,361.798c-2.706,28.032-5.845,58.316-5.845,58.316s14.523,0.349,35.532,1.942
					c-1.554-0.037-3.109-0.078-4.661-0.092c-14.613-0.131-29.769,6.182-43.76,10.275l0.77-67.751L536.65,361.798z"/>
			</g>
			<g id="XMLID_195_">
				<path style="fill:#667482;" d="M634.705,430.582c10.018,0.531,11.263-1.356,11.263-1.356s-9.037-36.913-15.382-69.021
					l28.607,4.283l0.371,76.661c-2.427-1.551-4.943-3.024-7.656-4.339C646.47,434.178,640.662,432.171,634.705,430.582z"/>
			</g>
			<g>
				<path style="fill:#545150;" d="M517.916,432.239c13.991-4.093,29.147-10.406,43.76-10.275c1.552,0.014,3.106,0.056,4.66,0.092
					c1.3,0.099,2.625,0.202,3.973,0.31c9.792,0.788,20.794,1.839,32.28,3.234c0.564,0.069,1.126,0.135,1.692,0.205
					c14.691,3.197,24.23,4.448,30.423,4.776c5.957,1.589,11.765,3.596,17.202,6.228c2.714,1.314,5.229,2.788,7.656,4.339
					l0.077,15.964l-28.009,271.144h-22.965v2.761h-0.132l-25.251-181.871l-0.105-1.024l-13.834,182.896h-0.131v-2.761h-23.077
					l-29.27-203.666L517.916,432.239z"/>
			</g>
			<g>
				<path style="fill:#FFFFFF;" d="M530.805,420.114c0,0,14.523,0.349,35.532,1.942c1.3,0.099,2.625,0.202,3.973,0.31
					c9.792,0.788,20.794,1.839,32.28,3.234c0.564,0.069,1.125,0.135,1.692,0.205c14.692,3.197,24.23,4.448,30.424,4.776
					c10.018,0.531,11.263-1.356,11.263-1.356s-9.037-36.913-15.382-69.021c-3.27-16.548-5.826-31.82-6.06-40.103
					c-0.704-24.911-3.839-107.187-3.839-107.187l-15.205-31.47l-2.807,0.027c-3.876,0.466-7.752,0.933-11.628,1.399
					c-1.002,0.121-2.041,0.238-2.999-0.083c-0.482-0.161-0.899-0.413-1.261-0.733c-0.147-0.129-0.28-0.275-0.408-0.425
					l-11.724,0.114c0,0-33.079,117.563-34.295,137.825c-0.462,7.702-1.999,24.516-3.709,42.229
					C533.944,389.83,530.805,420.114,530.805,420.114z"/>
			</g>
		</g>
	</g>
	<g>
		<g>
			<path style="fill:#534741;" d="M565.125,106.503c-2.943,5.934-4.165,12.656-4.117,19.301c0.013,1.767-0.003,3.809-1.351,4.923
				c-1.444,1.193-0.001,3.568-1.218,2.138c-1.217-1.431-5.355-6.405-5.624-8.277c-0.632-4.385-0.85-8.832-0.653-13.259
				c0.172-3.85,0.739-7.894,3.056-10.944c1.374-1.809,3.263-3.128,5.125-4.409c2.699-1.858,5.483-3.734,8.652-4.508
				c5.462-1.334,8.947,0.501,4.278,4.667C569.928,99.118,567.141,102.438,565.125,106.503z"/>
		</g>
		<g>
			<g>
				<path style="fill:#EACDB0;" d="M603.207,179.957c-7.551,1.119-15.102,2.237-22.653,3.356
					c-1.492-6.604-2.512-13.339-3.047-20.119c-6.667-0.807-14.549-2.573-17.164-9.494c-0.824-2.18-0.971-4.59-1.107-6.949
					c-0.564-9.749-1.128-19.498-1.692-29.247c-0.195-3.372-0.379-6.847,0.599-10.037c1.715-5.597,6.613-9.136,11.475-11.456
					c12.407-5.921,27.189-6.485,39.265,0.38c3.214,1.827,6.281,4.232,8.25,7.613c3.036,5.212,3.023,11.845,2.907,18.05
					c-0.107,5.727-0.215,11.454-0.322,17.181c-0.124,6.587-0.71,14.192-5.546,17.921c-2.568,1.98-5.989,2.497-8.162,4.999
					C602.178,166.566,604.403,173.942,603.207,179.957z"/>
			</g>
		</g>
		<g>
			<path style="fill:#534741;" d="M557.803,152.517c1.491,6.009,4.672,11.655,9.703,14.81c5.703,3.576,12.628,3.49,19.173,3.305
				c3.58-0.102,7.161-0.203,10.741-0.304c9.058-0.257,17.999-1.918,22.164-11.851c1.921-4.581,2.34-9.811,1.768-14.832
				c-0.157-1.379-0.402-2.794-1.106-3.954c-0.704-1.16-1.972-2.011-3.218-1.767c-1.592,0.312-2.466,2.119-3.43,3.538
				c-2.102,3.095-5.998,4.965-9.294,3.541c-0.977-0.422-1.837-1.091-2.693-1.767c-0.351-0.277-0.701-0.555-1.058-0.818
				c-3.542-2.607-7.771-3.666-11.961-4c-3.636-0.29-9.021-1.364-11.542,1.904c-1.467,1.901-2.934,3.803-4.401,5.704
				c-0.604,0.783-1.224,1.581-2.029,2.104c-0.829,0.539-1.806,0.753-2.771,0.82c-2.427,0.171-5.212-0.826-6.164-3.289
				c-0.415-1.073-0.423-2.269-0.525-3.427c-0.102-1.157-0.337-2.379-1.08-3.214c-2.843-3.191-3.352,2.149-3.367,3.963
				C556.686,146.19,557.033,149.415,557.803,152.517z M582.534,152.906c2.966,1.81,5.969,1.678,9.099,0.538
				c1.608-0.586,2.441,2.162,0.836,2.747c-3.778,1.376-7.579,1.448-11.141-0.726C579.845,154.559,581.042,151.995,582.534,152.906z"
				/>
		</g>
		<g>
			<path style="fill:#534741;" d="M552.672,90.209c-0.751-2.33-1.34-4.715-1.76-7.13c2.253,0.674,4.673,0.757,6.965,0.241
				c-0.066-1.403-0.131-2.805-0.197-4.208c-0.049-1.167,15.425-2.796,16.681-2.968c11.753-1.603,22.499-3.105,33.498,2.778
				c9.395,5.025,15.656,12.936,17.597,23.559c1.854,10.148-0.759,23.666-6.14,32.451c-0.104-2.722,1.11-9.22,0.348-11.772
				c-0.518-2.571-1.524-5.023-2.855-7.265c-2.658-4.478-6.611-8.157-11.09-10.695c-7.141-4.047-15.302-5.957-23.393-6.674
				c-7.413-0.657-16.43-1.149-23.601,1.214c-3.447,1.136-3.981,2.058-6.28-1.418c-0.405-0.613-3.738-7.844-3.449-7.864
				C550.221,90.375,551.446,90.292,552.672,90.209z"/>
		</g>
	</g>
	<circle style="fill:#59A496;" cx="530.075" cy="525" r="234"/>
	
		<ellipse transform="matrix(0.7071 -0.7071 0.7071 0.7071 -44.2979 299.1559)" style="fill:#5AA0A3;" cx="338.964" cy="203.05" rx="123.889" ry="123.889"/>
	
		<ellipse transform="matrix(0.7071 -0.7071 0.7071 0.7071 -231.5997 209.9266)" style="fill:#67B8A9;" cx="137.604" cy="384.529" rx="102.529" ry="102.529"/>
	<g id="XMLID_192_">
		<g id="XMLID_194_">
			<polygon style="fill:#EACDB0;" points="659.905,341.22 656.615,352.182 647.653,356.703 647.673,359.114 650.627,359.258 
				644.292,365.168 643.43,372.207 650.363,378.714 660.056,379.658 665.646,372.158 666.906,361.021 672.059,346.222 			"/>
		</g>
		<g id="XMLID_193_">
			<path style="fill:#667482;" d="M653.182,345.739c1.146-12.528,2.291-25.056,3.437-37.584c0.74-8.087,1.644-16.179,2.22-24.279
				c0.725-10.184-6.318-10.859-11.177-19.598c-10.936-19.665-22.247-41.309-18.542-63.503c0.37-2.217,0.936-4.504,2.399-6.21
				c2.77-3.228,7.988-3.275,11.73-1.254c3.742,2.021,6.347,5.6,8.79,9.081c13.246,18.875,30.13,39.953,38.799,61.428
				c3.897,9.654-2.443,24.422-4.748,34.588c-4.662,20.567-9.324,41.134-13.986,61.701L653.182,345.739z"/>
		</g>
	</g>
	<g>
		<path style="fill:#FFFFFF;" d="M527.782,405.547c1.233,2.166,2.224,4.477,3.466,6.607c4.692,8.046,9.299,16.062,13.797,24.24
			l-15.262,8.994c-9.098,5.356-9.308,11.843-0.474,14.419l24.862,7.23c8.835,2.571,23.284,6.779,32.128,9.35l24.862,7.234
			c8.834,2.566,17.724-2.671,19.756-11.647l5.725-25.249c2.024-8.976,5.342-23.659,7.375-32.638l5.726-25.249
			c2.042-8.971-3.747-11.93-12.846-6.573l-15.598,9.194c-5.717-9.746-11.433-19.437-13.639-22.983
			c-5.024-8.055-14.678-14.218-33.641-14.109c-14.077,0.077-51.474,0.292-75.132,0.429c3.892,6.837,7.785,13.675,11.678,20.512
			C516.303,385.386,522.042,395.466,527.782,405.547z"/>
		<path style="fill:#FFFFFF;" d="M411.938,439.184l50.107,29.406c7.439,4.363,17.194,1.906,21.661-5.461
			c0,0,28.262-46.45,30.879-50.749c1.9-3.156,4.078-4.415,6.116-3.948c0.71,0.163,1.282-0.564,0.922-1.197l-29.857-52.442
			c-8.187,0.046-14.742,0.087-18.097,0.105c-13.046,0.078-27.961,2.343-38.437,18.252c-8.059,12.239-28.49,44.813-28.49,44.813
			C402.164,425.267,404.498,434.821,411.938,439.184z"/>
		<path style="fill:#FFFFFF;" d="M626.685,588.486c-2.492-0.069-4.977-0.127-7.455-0.166c-9.313-0.149-18.556-0.356-27.882-0.739
			l0.203-17.713c0.126-10.557-5.316-14.094-12.092-7.868l-19.053,17.532c-6.772,6.229-17.851,16.415-24.627,22.652l-19.057,17.53
			c-6.768,6.231-6.887,16.548-0.259,22.932l18.642,17.966c6.633,6.377,17.479,16.815,24.111,23.202l18.642,17.967
			c6.619,6.39,12.146,2.968,12.272-7.59l0.206-18.105c11.298,0.152,22.549,0.276,26.725,0.224
			c9.492-0.13,19.762-5.202,29.483-21.484c7.219-12.085,26.389-44.195,38.517-64.509c-7.865-0.208-15.73-0.416-23.595-0.623
			C649.883,589.386,638.218,588.807,626.685,588.486z"/>
		<path style="fill:#FFFFFF;" d="M702.295,526.348c-6.302-13.23-23.6-47.57-23.6-47.57c-3.88-7.696-13.264-10.644-20.846-6.536
			l-51.094,27.656c-7.583,4.108-10.53,13.726-6.538,21.361c0,0,25.119,48.222,27.443,52.686c1.718,3.259,1.667,5.774,0.213,7.276
			c-0.507,0.523-0.181,1.389,0.547,1.408l60.324,1.594c4.198-7.029,7.555-12.659,9.276-15.539
			C704.706,557.479,710.486,543.545,702.295,526.348z"/>
		<path style="fill:#FFFFFF;" d="M415.09,583.676c1.231-2.167,2.71-4.2,3.906-6.356c4.517-8.146,9.051-16.203,13.78-24.251
			l15.532,8.519c9.255,5.081,14.937,1.945,12.634-6.964l-6.496-25.063c-2.307-8.907-6.078-23.477-8.389-32.392l-6.492-25.066
			c-2.311-8.905-11.357-13.867-20.11-11.026l-24.627,7.987c-8.749,2.849-23.065,7.503-31.822,10.347l-24.628,7.987
			c-8.754,2.831-8.337,9.319,0.918,14.401l15.876,8.706c-5.454,9.896-10.86,19.763-12.78,23.472
			c-4.355,8.435-4.716,19.884,5.072,36.126c7.262,12.059,26.565,44.09,38.777,64.353c3.886-6.841,7.773-13.682,11.659-20.523
			C403.631,603.848,409.36,593.762,415.09,583.676z"/>
		<path style="fill:#FFFFFF;" d="M487.112,592.12c0,0-54.369-0.544-59.402-0.595c-3.684-0.02-5.879-1.248-6.519-3.238
			c-0.223-0.693-1.14-0.814-1.5-0.181l-29.809,52.47c4.225,7.013,7.611,12.626,9.342,15.5c6.736,11.173,16.308,22.833,35.336,23.704
			c14.639,0.67,53.08,1.576,53.08,1.576c8.616,0.2,15.634-6.69,15.581-15.314l-0.342-58.097
			C502.825,599.322,495.727,592.193,487.112,592.12z"/>
	</g>
	<g>
		<polygon style="fill:#FFFFFF;" points="70.151,335.341 115.773,319.275 181.455,392.089 148.012,403.866 199.257,464.195 
			97.1,401.714 133.186,385.388 		"/>
	</g>
	<g>
		<path style="fill:#FFFFFF;" d="M334.782,213.822c0,0-15.341,24.835-13.296,86.178h16.131c0,0-5.237-53.585,5.67-83.914
			L334.782,213.822z"/>
		<path style="fill:#FFFFFF;" d="M414.953,122.191c0,0-54.546,10.066-75.042,35.29c-20.497,25.224-3.447,61.298-3.447,61.298
			s38.799,9.311,59.297-15.913C416.257,177.642,414.953,122.191,414.953,122.191z M346.689,216.068
			c-3.66-0.466-5.899-0.998-5.899-0.998s-0.979-2.082-2.184-5.57l51.527-55.152L346.689,216.068z"/>
		<path style="fill:#FFFFFF;" d="M314.138,190.375c-22.58-18.207-72.063-16.855-72.063-16.855s9.168,48.644,31.749,66.851
			c22.58,18.207,54.716,2.868,54.716,2.868S336.718,208.582,314.138,190.375z M323.904,238.613c0,0-1.855,0.881-4.963,1.968
			l-49.394-45.798l55.229,38.563C324.372,236.613,323.904,238.613,323.904,238.613z"/>
	</g>
	<g>
		<path style="fill:#9299A2;" d="M76.493,285.781c6.529-4.61,15.825-3.806,21.617,1.868c1.782,1.746,3.3,4.638,2.042,6.867
			c-0.525,0.931-1.43,1.51-2.302,2.043c-5.227,3.194-21.695,15.44-27.4,11.008C63.804,302.406,71.895,289.027,76.493,285.781z"/>
		<path style="fill:#EBCEB1;" d="M96.167,295.087c-3.605-5.031-10.639-4.957-15.34-1.532c-3.934,2.867-5.069,8.55-2.576,12.733
			c1.833,3.076,5.368,4.285,8.7,2.993c5.078-1.97,4.547-5.991,4.835-10.578c0.765,0.029,1.485,0.343,2.212,0.582
			c0.727,0.239,1.531,0.402,2.247,0.132C98.407,298.602,97.01,296.263,96.167,295.087z"/>
	</g>
	<g>
		<path style="fill:#D1E0DA;" d="M1057.57,285.002c5.343,2.122,11.587,5.115,12.417,11.007c0.702,4.981-2.942,9.367-6.322,12.966
			c-3.917,4.172-8.365,8.61-13.956,8.998c-2.911,0.202-5.77-0.747-8.536-1.712c-28.138-9.821-55.325-22.595-81.016-38.065
			c-13.082-7.877-61.508-43.967-28.083-57.85c13.143-5.459,24.557,6.991,34.698,13.949c13.714,9.408,27.66,18.468,42.024,26.765
			C1024.526,270.144,1040.757,278.325,1057.57,285.002z"/>
		<g>
			<g>
				<g>
					<g>
						<g>
							<polygon style="fill:#EBCEB1;" points="926.543,424.465 905.511,575.766 912.979,685.068 897.662,690.41 883.951,589.411 
								854.691,404.85 							"/>
						</g>
					</g>
				</g>
				<g>
					<g>
						<polygon style="fill:#514943;" points="897.694,693.492 896.004,704.815 899.845,726.338 912.492,725.14 914.873,693.261 
							913.011,688.149 						"/>
					</g>
				</g>
			</g>
			<g>
				<g>
					<g>
						<polygon style="fill:#EBCEB1;" points="802.613,419.966 809.374,548.293 837.973,727.692 853.474,727.484 846.582,561.148 
							866.688,407.805 						"/>
					</g>
				</g>
				<g>
					<g>
						<polygon style="fill:#514943;" points="838.229,724.624 818.417,739.148 820.889,750 857.161,741.353 854.211,725.677 						
							"/>
					</g>
				</g>
			</g>
			<g>
				<g>
					<polygon style="fill:#C7B299;" points="799.196,439.2 799.842,588.155 818.069,688.589 859.594,681.867 858.386,565.794 
						867.006,438.289 862.735,418.98 802.673,425.798 					"/>
				</g>
			</g>
			<g>
				<g>
					<polygon style="fill:#C7B299;" points="872.877,567.986 885.732,673.629 921.844,668.007 913.563,567.439 926.962,438.842 
						919.096,404.018 858.419,414.233 					"/>
				</g>
			</g>
			<g>
				<g>
					<g>
						<path style="fill:#EACDB0;" d="M944.886,155.283c-2.766-26.221-36.107-42.308-50.339-15.581
							c-4.277,8.031-7.688,16.794-7.88,25.905c-0.192,9.112,3.279,18.64,10.54,23.951c0.042,0.03,0.085,0.054,0.126,0.084
							c-0.797,2.205-1.595,4.411-2.391,6.616c-0.172,0.473-0.343,1-0.16,1.467c0.208,0.532,0.792,0.785,1.32,0.985
							c2.579,0.977,5.159,1.954,7.739,2.932c1.279,0.484,2.613,0.977,3.973,0.836c2.978-0.309,4.858-3.455,5.613-6.401
							c0.18-0.705,0.326-1.424,0.469-2.146C930.842,191.822,946.693,172.423,944.886,155.283z"/>
					</g>
				</g>
				<g>
					<g>
						<g>
							<path style="fill:#333333;" d="M893.753,147.53c-4.947,5.788-5.917,13.65-6.017,21.011
								c-0.098,7.197-1.934,13.966-1.369,21.195c-0.916,0.976-2.478-0.003-3.4-0.964c-5.403-5.636-10.728-11.348-15.975-17.135
								c-0.528-0.582-1.069-1.189-1.315-1.941c-0.312-0.953-0.106-1.994,0.119-2.975c4.429-19.367,14.278-32.496,27.619-46.264
								c6.478-6.685,21.983-12.794,28.685-2.601c1.526,2.321,1.762,5.261,1.821,8.058c0.035,1.67,0.014,3.389-0.602,4.941
								c-2.456,6.189-8.405,4.911-13.422,6.243C903.71,138.74,897.928,142.644,893.753,147.53z"/>
						</g>
					</g>
					<g>
						<g>
							<path style="fill:#333333;" d="M936.415,167.286c-0.866,5.643-3.168,11.849-5.679,16.925c-0.87,1.758-5.07,5.512-5.373,6.746
								c-0.876,3.575,5.27,13.233,6.725,16.699c12.651-4.68,25.301-9.36,37.952-14.04c0.969-0.358,1.986-0.751,2.642-1.561
								c0.595-0.735,0.803-1.708,0.98-2.641c3.486-18.347,1.284-35.659-3.185-53.428c-4.466-17.76-18.146-33.737-36.89-35.428
								c-15.145-1.366-27.337,8.088-24.227,24.386c2.348,12.304,16.485,17.006,23.162,26.192
								C936.714,156.904,937.37,162.091,936.415,167.286z"/>
						</g>
					</g>
				</g>
			</g>
			<g>
				<g>
					<path style="fill:#D1E0DA;" d="M928.446,204.51c0.289,0.149,0.576,0.299,0.86,0.451c13.615,7.279,21.858,32.815,26.539,47.8
						c12.082,38.68,14.636,77.634,10.977,118.087c-1.97,21.783-4.919,43.47-8.314,65.074c-0.938,5.969-12.96,58.918-10.362,60.572
						c-26.655-16.96-53.875-33.255-83.051-44.818c-29.176-11.563-60.693-1.328-91.946,1.411
						c17.665-66.889,39.783-151.375,67.247-214.605c3.285-7.563,5.867-15.749,10.216-22.749c5.009-8.063,11.245-9.802,19.357-13.874
						c2.779-1.395,5.578-2.798,8.547-3.632C894.163,193.831,914.07,197.111,928.446,204.51z"/>
				</g>
			</g>
		</g>
		
			<ellipse transform="matrix(0.7071 -0.7071 0.7071 0.7071 133.8829 782.9432)" style="fill:#448A7D;" cx="1012.038" cy="229.861" rx="76.962" ry="76.962"/>
		
			<ellipse transform="matrix(0.7071 -0.7071 0.7071 0.7071 -42.0465 753.3853)" style="fill:#7EC4B6;" cx="888.393" cy="427.447" rx="115.318" ry="115.318"/>
		<g>
			<path style="fill:#FFFFFF;" d="M889.234,336c0,0-53.159,57.561-53.159,105.578c0,48.017,36.772,59.424,53.159,59.424
				c16.388,0,53.159-11.407,53.159-59.424C942.393,393.561,889.234,336,889.234,336z M878.193,489.072
				c-54.278-14.418-33.622-80.922-9.084-112.587c3.06-3.949,8.52,1.589,5.494,5.494c-21.818,28.155-32.857,82.952,7.512,100.384
				C886.698,484.342,882.976,490.343,878.193,489.072z"/>
		</g>
		<g>
			<path style="fill:#FFFFFF;" d="M1033.088,258.236h-35.367c-2.056,0-3.723,1.358-3.723,3.033v11.298
				c0,0.595,0.215,1.177,0.618,1.674l0.306,0.377h-0.306l8.463,10.418v2.11c0,2.129,2.118,3.854,4.731,3.854h15.188
				c2.613,0,4.731-1.725,4.731-3.854v-2.11l8.463-10.418h-0.306l0.306-0.377c0.403-0.496,0.618-1.078,0.618-1.674v-11.298
				C1036.81,259.594,1035.144,258.236,1033.088,258.236z"/>
			<path style="fill:#FFFFFF;" d="M1044.058,231.715c-0.203-0.012-0.402,0.06-0.593,0.13c-3.989,1.477-7.602,3.194-11.28,5.394
				c-2.038,1.219-5.084,2.544-6.232,4.761c-0.324,0.625-0.389,1.347-0.443,2.049c-0.278,3.548-0.448,7.105-0.51,10.664l9.519,0.244
				c0.283-2.427,0.567-4.853,0.85-7.28c0.038-0.322,0.08-0.658,0.264-0.925c0.237-0.345,0.657-0.505,1.05-0.646
				c2.262-0.809,4.525-1.617,6.787-2.426c0.671-0.24,1.39-0.516,1.778-1.115c0.283-0.437,0.342-0.978,0.379-1.498
				c0.19-2.66,0.013-5.346-0.524-7.959C1044.976,232.495,1044.684,231.753,1044.058,231.715z"/>
			<path style="fill:#FFFFFF;" d="M1048.334,209.592c-0.122-0.156-0.352-0.165-0.55-0.152c-1.142,0.07-2.271,0.272-3.383,0.535
				c-7.63,1.805-14.915,4.88-22.181,7.838c-10.007,4.074-20.072,8.247-30.215,11.962c-1.328,0.486-3.14,0.971-4.087,2.122
				c-0.531,0.13-0.79,0.805-0.906,1.371c-0.537,2.612-0.714,5.298-0.524,7.959c0.037,0.519,0.096,1.061,0.379,1.498
				c0.388,0.598,1.107,0.875,1.778,1.115c2.262,0.809,4.525,1.617,6.787,2.426c0.394,0.141,0.814,0.301,1.05,0.646
				c0.183,0.267,0.226,0.603,0.264,0.925c0.284,2.427,0.567,4.853,0.85,7.28l9.519-0.244c-0.062-3.559-0.232-7.115-0.51-10.663
				c-0.055-0.702-0.12-1.424-0.444-2.049c-1.148-2.217-4.194-3.542-6.232-4.761c-0.205-0.123-0.41-0.243-0.614-0.363
				c3.284-1.031,6.488-2.315,9.725-3.502c8.959-3.289,18.069-5.791,27.164-8.659c2.581-0.814,5.152-1.655,7.715-2.525
				c2.251-0.764,4.205-1.048,4.414-3.778c0.218-2.856,0.133-5.723,0.094-8.584C1048.424,209.85,1048.419,209.701,1048.334,209.592z"
				/>
			<path style="fill:#FFFFFF;" d="M1051.935,196.255c-0.047-0.987-0.095-1.975-0.142-2.962c-0.044-0.912-0.089-1.835-0.349-2.711
				c-0.26-0.876-0.76-1.714-1.533-2.2c-1.258-0.79-2.545-0.062-3.804,0.323c-1.7,0.52-3.395,1.06-5.08,1.628
				c-0.971,0.327-1.938,0.664-2.902,1.01c-5.845,2.097-11.49,4.684-17.192,7.134c-2.411,1.036-4.831,2.048-7.281,2.987
				c-8.927,3.425-17.849,6.864-26.766,10.315c-2.243,0.868-5.993,1.815-6.677,4.53c-0.53,2.104,0.621,5.061,1.584,6.936
				c0.5,0.974,1.349,1.827,2.418,2.062c1.148,0.252,2.315-0.23,3.391-0.703c7.36-3.223,14.695-6.505,22.131-9.551
				c8.383-3.434,16.884-6.593,25.31-9.925c3.924-1.551,7.961-2.79,11.903-4.292C1049.404,199.899,1052.088,199.448,1051.935,196.255
				z"/>
			<path style="fill:#FFFFFF;" d="M986.498,203.493c0.852,0.348,1.786-0.034,2.65-0.413c5.908-2.587,11.802-5.235,17.751-7.639
				c6.707-2.711,13.479-5.138,20.209-7.743c3.134-1.213,6.326-2.105,9.47-3.267c1.961-0.725,4.049-0.948,4.224-4.139
				c0.054-0.987,0.109-1.974,0.163-2.961c0.05-0.912,0.1-1.835-0.018-2.729c-0.118-0.894-0.422-1.77-0.968-2.319
				c-0.887-0.893-1.935-0.277-2.93,0c-1.344,0.374-2.686,0.768-4.022,1.191c-0.77,0.244-1.539,0.498-2.305,0.761
				c-4.649,1.594-9.191,3.692-13.763,5.65c-1.933,0.828-3.872,1.63-5.826,2.359c-7.121,2.656-14.239,5.325-21.355,8.008
				c-1.79,0.675-4.736,1.301-5.507,3.946c-0.597,2.05,0.01,5.091,0.572,7.039C985.135,202.248,985.704,203.169,986.498,203.493z"/>
		</g>
		<g>
			<path style="fill:#D1E0DA;" d="M1065.483,304.485c-6.727,8.709-19.286,11.414-29.204,6.29c-3.052-1.577-6.22-4.768-5.467-8.211
				c0.315-1.438,1.271-2.566,2.203-3.62c5.587-6.319,22.302-29.099,31.604-25.576
				C1075.454,277.471,1070.22,298.352,1065.483,304.485z"/>
			<path style="fill:#EBCEB1;" d="M1035.826,300.201c6.78,5.162,16.008,2.217,20.807-4.193c4.017-5.365,3.21-13.303-1.764-17.8
				c-3.657-3.307-8.799-3.467-12.661-0.417c-5.886,4.648-3.559,9.725-2.082,15.878c-1.018,0.272-2.093,0.15-3.146,0.13
				c-1.054-0.02-2.177,0.091-3.011,0.736C1031.455,296.483,1034.24,298.994,1035.826,300.201z"/>
		</g>
		<g>
			<path style="fill:#D1E0DA;" d="M788.775,331.381c7.243-8.284,19.944-10.222,29.532-4.505c2.951,1.759,5.919,5.137,4.958,8.528
				c-0.401,1.417-1.424,2.484-2.419,3.48c-5.96,5.967-24.028,27.691-33.099,23.609C777.182,357.739,783.675,337.215,788.775,331.381
				z"/>
			<path style="fill:#EBCEB1;" d="M818.117,337.458c-6.454-5.564-15.844-3.185-21.023,2.921c-4.335,5.111-4.012,13.084,0.679,17.874
				c3.45,3.523,8.572,3.995,12.612,1.185c6.158-4.282,4.143-9.491,3.042-15.722c1.033-0.21,2.098-0.022,3.148,0.061
				c1.05,0.084,2.179,0.042,3.05-0.552C822.254,341.435,819.627,338.759,818.117,337.458z"/>
		</g>
	</g>
</g>
</svg>
